<svg xmlns="http://www.w3.org/2000/svg" width="20.713" height="22.784" viewBox="0 0 20.713 22.784">
  <g id="Group_433" data-name="Group 433" transform="translate(-1631.216 -797.18)">
    <path id="Path_2137" data-name="Path 2137" d="M20.642,3.071H19.606V2.036a1.036,1.036,0,1,0-2.071,0V3.071H7.178V2.036a1.036,1.036,0,1,0-2.071,0V3.071H4.071A2.077,2.077,0,0,0,2,5.143v16.57a2.077,2.077,0,0,0,2.071,2.071h16.57a2.077,2.077,0,0,0,2.071-2.071V5.143A2.077,2.077,0,0,0,20.642,3.071ZM19.606,21.713H5.107a1.039,1.039,0,0,1-1.036-1.036V8.25h16.57V20.677A1.039,1.039,0,0,1,19.606,21.713Z" transform="translate(1629.216 796.18)" fill="#526665"/>
    <text id="_21" data-name="21" transform="translate(1637 814)" fill="#526665" font-size="10" font-family="Raleway-Bold, Raleway" font-weight="700"><tspan x="0" y="0">21</tspan></text>
  </g>
</svg>
