<svg xmlns="http://www.w3.org/2000/svg" width="20.713" height="22.784" viewBox="0 0 20.713 22.784">
  <g id="Group_440" data-name="Group 440" transform="translate(-1631.216 -797.18)">
    <path id="Path_2137" data-name="Path 2137" d="M20.642,3.071H19.606V2.036a1.036,1.036,0,1,0-2.071,0V3.071H7.178V2.036a1.036,1.036,0,1,0-2.071,0V3.071H4.071A2.077,2.077,0,0,0,2,5.143v16.57a2.077,2.077,0,0,0,2.071,2.071h16.57a2.077,2.077,0,0,0,2.071-2.071V5.143A2.077,2.077,0,0,0,20.642,3.071ZM19.606,21.713H5.107a1.039,1.039,0,0,1-1.036-1.036V8.25h16.57V20.677A1.039,1.039,0,0,1,19.606,21.713Z" transform="translate(1629.216 796.18)" fill="#526665"/>
    <path id="Path_2138" data-name="Path 2138" d="M.61-4.99V-7.23H1.75v2.24ZM2.43-3.24a2.361,2.361,0,0,1,.2-.97A2.5,2.5,0,0,1,3.175-5a2.49,2.49,0,0,1,.82-.525A2.734,2.734,0,0,1,5.02-5.71a2.6,2.6,0,0,1,1.085.22,2.239,2.239,0,0,1,.825.64,3.006,3.006,0,0,1,.525,1.025A4.7,4.7,0,0,1,7.64-2.45a6.8,6.8,0,0,1-.2,1.715,3.854,3.854,0,0,1-.55,1.25,2.364,2.364,0,0,1-.865.765,2.473,2.473,0,0,1-1.14.26,2.7,2.7,0,0,1-1.24-.29A2.662,2.662,0,0,1,2.69.42l.77-.84a1.7,1.7,0,0,0,.62.59,1.688,1.688,0,0,0,.83.21A1.26,1.26,0,0,0,5.975-.15a2.563,2.563,0,0,0,.415-1.5,1.432,1.432,0,0,1-.59.57,1.869,1.869,0,0,1-.9.21,2.615,2.615,0,0,1-.98-.18,2.373,2.373,0,0,1-.78-.5,2.35,2.35,0,0,1-.52-.755A2.31,2.31,0,0,1,2.43-3.24ZM5.02-4.58a1.224,1.224,0,0,0-.5.105,1.332,1.332,0,0,0-.415.29,1.4,1.4,0,0,0-.285.43,1.294,1.294,0,0,0-.105.515,1.224,1.224,0,0,0,.105.5,1.422,1.422,0,0,0,.28.415,1.233,1.233,0,0,0,.415.28,1.313,1.313,0,0,0,.51.1,1.313,1.313,0,0,0,.51-.1,1.233,1.233,0,0,0,.415-.28,1.422,1.422,0,0,0,.28-.415,1.224,1.224,0,0,0,.1-.5,1.294,1.294,0,0,0-.1-.515A1.341,1.341,0,0,0,5.94-4.18a1.453,1.453,0,0,0-.415-.29A1.176,1.176,0,0,0,5.02-4.58Zm8.63,1.65a3.643,3.643,0,0,1-.195,1.215,2.993,2.993,0,0,1-.54.96,2.437,2.437,0,0,1-.82.63A2.364,2.364,0,0,1,11.07.1a2.354,2.354,0,0,1-1.03-.225,2.451,2.451,0,0,1-.815-.63,2.993,2.993,0,0,1-.54-.96,3.643,3.643,0,0,1-.2-1.215,3.643,3.643,0,0,1,.2-1.215,2.993,2.993,0,0,1,.54-.96,2.511,2.511,0,0,1,.815-.635,2.311,2.311,0,0,1,1.03-.23,2.321,2.321,0,0,1,1.025.23,2.5,2.5,0,0,1,.82.635,2.993,2.993,0,0,1,.54.96A3.643,3.643,0,0,1,13.65-2.93Zm-1.35,0a2.828,2.828,0,0,0-.09-.735,1.857,1.857,0,0,0-.255-.575,1.207,1.207,0,0,0-.39-.37.972.972,0,0,0-.5-.13.991.991,0,0,0-.5.13,1.207,1.207,0,0,0-.39.37,1.857,1.857,0,0,0-.255.575,2.828,2.828,0,0,0-.09.735,2.771,2.771,0,0,0,.09.73,1.863,1.863,0,0,0,.255.57,1.207,1.207,0,0,0,.39.37.991.991,0,0,0,.5.13.972.972,0,0,0,.5-.13,1.207,1.207,0,0,0,.39-.37,1.863,1.863,0,0,0,.255-.57A2.771,2.771,0,0,0,12.3-2.93Z" transform="translate(1634 814)" fill="#526665"/>
  </g>
</svg>
