<svg xmlns="http://www.w3.org/2000/svg" width="268.59" height="177.192" viewBox="0 0 268.59 177.192">
  <g id="Group_404" data-name="Group 404" transform="translate(-789.745 455.752)">
    <g id="Group_401" data-name="Group 401" transform="translate(982.796 -443.585) rotate(17)" opacity="0.9">
      <path id="Path_2058" data-name="Path 2058" d="M7.15.016l.271.025.271.033.1.016.1.016.1.02L8.08.143l.1.02L8.27.188l.1.02L8.46.233l.093.029.093.025L8.74.315l.089.029.089.033L9.01.409,9.1.441l.089.033.085.037.089.037.085.037.085.037.085.041L9.7.7l.085.041.081.045.085.045.081.045.077.045.081.049.081.045.077.049.077.053.077.049.077.053.073.053.073.053.073.057.073.053.073.057.069.057.073.061.085-.037.085-.033.085-.033.085-.033.089-.033.089-.029.085-.029.089-.029.089-.029.093-.025.089-.025.089-.02.093-.025.089-.02.093-.016.093-.02.089-.016.093-.016.093-.012.1-.016.093-.012.093-.008.093-.008.1-.008.093-.008.1,0,.1,0,.093,0h.291l.1,0,.1,0,.1,0,.1.008.1.008.1.008.1.012.1.012.1.012.271.045.263.057L15.6,1.3l.255.074.251.086.247.094.239.1.235.11.231.119.222.127.218.135.21.143.206.151.2.155.19.163.186.172.178.176.17.184L19,3.486l.154.192.146.2.141.208.129.208.121.217.113.221.105.225.1.229.085.233.077.237.069.237.061.245.049.245.036.245.028.253.02.253,0,.253,0,.257-.012.257-.024.257-.036.262-.044.237-.053.237-.061.241-.073.249-.077.245-.089.253-.1.249-.105.253-.113.253-.121.253-.129.253-.133.253-.146.249-.15.249-.158.245-.162.245-.17.241-.174.237-.182.233-.19.225-.19.225-.2.217-.2.208-.206.2-.214.2-.214.188-.222.18-.222.172-.231.163-.231.151-.235.143-.239.131-.239.123-.243.11-.247.1-.247.082-.251.074-.251.057-.255.045-.251.029h0v0l0,0,0,0-.008.008,0,0,0,0v0l0,0-.162.147L13,16.461l-.125.151-.113.159-.093.159-.081.159-.065.163-.057.168-.04.168-.032.168-.02.172-.012.172v.172l0,.176.012.176.02.176.02.18.028.18.028.176.036.184.032.18.036.18.036.18.032.184.032.18.028.184.028.18.02.18.016.18.012.184v.18l0,.176-.012.18-.024.176-.032.18-.044.176-.061.172-.069.172-.085.172-.1.172-.02.033-.024.037-.024.033-.024.033-.024.033-.028.029-.028.033-.024.029-.028.029L12.1,23.4l-.028.029-.028.029-.032.025-.032.029-.032.029-.028.025-.036.025-.032.025-.032.025-.036.025-.032.025-.036.025-.036.025-.032.02-.036.02-.036.025-.036.02-.036.02-.036.02-.04.02-.036.02-.036.016-.036.02-.04.016-.036.02-.036.016-.04.016-.036.016-.036.02-.04.016-.142.061-.133.069-.125.069-.109.074-.1.074-.093.078-.085.078-.073.082-.065.082-.057.086-.049.086-.04.086-.036.09-.024.094-.02.094-.016.094-.008.094v.1l0,.1.008.1.012.1.02.1.02.1.028.1.028.106.032.106.032.106.04.106.036.106.044.106.04.106.044.11.044.106.045.11.044.106.045.11.045.106.044.11.04.106.04.11.024.061L10.64,28l.008.057,0,.057v.057l-.008.057-.012.049-.016.053-.02.049-.024.045-.028.045-.032.041-.032.041-.036.037-.04.037-.044.033-.045.029-.044.025-.049.025-.049.02-.053.016-.053.016-.053.008-.053.008-.053,0H9.856l-.053,0-.053,0L9.7,28.786l-.053-.016-.049-.02-.044-.02L9.512,28.7l-.045-.033-.04-.037-.04-.041-.032-.045-.032-.053-.028-.053-.028-.061L9.2,28.209l-.065-.172-.069-.163-.065-.168-.065-.163-.065-.159-.065-.163-.061-.159-.061-.155-.061-.159L8.578,26.6l-.053-.155-.049-.151-.044-.151-.04-.147-.032-.147L8.331,25.7l-.024-.143-.016-.139-.012-.139,0-.139,0-.135.016-.135.02-.131.028-.127.04-.131.048-.123.061-.123.069-.123L8.642,24l.093-.119.105-.114.117-.11.129-.11.142-.11.158-.106.17-.1.186-.1.2-.1.218-.1.162-.074.146-.078.137-.086.121-.094.109-.094.1-.1.085-.106.077-.11.065-.114.057-.114.044-.123.04-.127.028-.127.02-.131.016-.135.008-.139v-.139l0-.143-.008-.143-.016-.143-.016-.147L11.3,20.31l-.024-.151-.028-.147-.028-.151-.032-.151-.032-.151-.036-.151-.032-.151-.032-.151-.032-.151-.032-.147-.028-.151-.024-.143-.024-.147-.02-.143-.016-.143-.012-.139-.008-.135v-.188l0-.053,0-.049,0-.053,0-.049,0-.053.008-.049.008-.049.012-.049.008-.049.012-.045.012-.049.012-.049.016-.045.012-.045L11,16.886l.016-.049.016-.045.02-.041.02-.045.02-.045.02-.045.02-.041.02-.045.024-.041.024-.041.024-.041.024-.041.024-.041.024-.041.028-.041.028-.041.028-.041.028-.037.028-.041.028-.037.028-.041.032-.037.032-.037.028-.037-.073-.029-.073-.029-.073-.029-.073-.033-.069-.033-.073-.033-.069-.037-.073-.037-.069-.037-.069-.041-.065-.041-.069-.041-.069-.041-.065-.045-.065-.045-.069-.045-.065-.045-.061-.049-.065-.049-.065-.053-.061-.049-.061-.053-.065-.053L9.973,14.9l-.057-.057-.061-.057L9.8,14.728l-.057-.057-.057-.061-.057-.057-.057-.061-.057-.065-.057-.061L9.4,14.3l-.057-.061-.053-.065L9.241,14.1l-.053-.065-.053-.069L9.087,13.9l-.069.045L8.95,14l-.065.045-.069.045-.069.045-.069.045-.069.041-.069.041-.069.041L8.4,14.34l-.069.041-.069.037-.069.037-.073.037-.069.037-.073.033-.069.033-.073.033-.073.033-.069.029-.073.033-.073.029-.073.025-.069.029-.073.025-.073.025-.073.02-.073.02-.077.02-.073.02-.073.02-.073.016-.073.016L6.677,15,6.6,15.01l-.073.012-.073.012-.077.008-.073.008-.077.008,0,0v0h0l0,0v0l0,0,0,0,0,0,0,0,0,0-.162.147-.146.155-.125.155-.109.155-.1.159-.081.163-.065.163-.053.163-.044.168-.028.168-.02.172-.012.172,0,.176,0,.172.012.176.02.18.024.176.024.18.032.18.032.18.036.18.032.18.036.18.032.184.032.18.032.184.024.18.024.18.016.184.008.18,0,.18,0,.176-.016.18-.024.18-.032.176-.045.176L5.5,21.5l-.073.176-.085.168-.1.172-.024.033-.024.037-.024.033-.024.033-.024.033-.028.029-.024.033-.028.029-.028.033-.028.029-.032.029-.028.029-.032.029-.028.025-.032.029L4.8,22.5l-.032.025-.036.029-.032.025-.032.025-.036.02-.032.025-.036.025-.036.02-.036.025-.036.02-.036.02-.036.02-.036.02-.036.02-.036.02-.04.016-.036.02-.036.02-.04.016-.036.016-.036.016-.04.02-.036.016L3.931,23l-.142.065-.133.065-.121.069-.113.074-.1.074-.093.078-.081.078-.077.082L3,23.665l-.057.086-.049.086-.04.086-.032.09-.028.094-.02.094-.012.094-.008.094,0,.1,0,.1.008.1.016.1.016.1.024.1.024.106.028.1.032.106.036.106.036.106.04.106.04.106.04.11.045.106.044.11.044.106.049.11.045.106.044.11.04.106.045.106.04.11.02.061.012.061.012.057v.114l-.008.057-.012.053-.016.049-.02.049-.024.045-.024.045-.032.045-.036.037-.036.037-.04.037-.04.033-.044.029-.049.025-.049.025-.048.02-.053.016-.048.016-.053.012-.053,0-.053,0H2.75l-.053,0-.053,0-.053-.012-.049-.016L2.5,27.69l-.049-.025L2.4,27.637,2.358,27.6l-.04-.037-.036-.041-.036-.045-.032-.053-.028-.053-.024-.061-.065-.168-.065-.168-.065-.168L1.9,26.644l-.069-.163-.065-.159-.061-.163L1.642,26l-.061-.155-.057-.155-.057-.155-.053-.155-.049-.151-.04-.147-.04-.151-.036-.143-.028-.147L1.2,24.495l-.016-.139-.012-.139v-.139l0-.135.012-.131.02-.135.028-.127.04-.127.049-.127.061-.123.069-.123.081-.119.093-.119.105-.114.117-.11.129-.11.142-.11.158-.106.17-.1.186-.1.2-.1.214-.094.162-.078.15-.078.133-.086.121-.094.109-.094.1-.1.089-.106.073-.11.065-.11L4.1,20.89l.049-.123.036-.127.028-.127.024-.131.012-.135.008-.139v-.139l0-.139-.008-.143-.016-.147-.016-.147-.024-.147L4.17,19.1l-.028-.147L4.113,18.8l-.032-.151L4.048,18.5l-.032-.151-.036-.151-.032-.151-.032-.151-.028-.147L3.858,17.6,3.83,17.45,3.806,17.3l-.02-.143-.016-.139-.012-.139,0-.139,0-.135,0-.053v-.049l0-.053,0-.053,0-.049.008-.049.008-.053.008-.049L3.8,16.15,3.81,16.1l.008-.045.012-.049.016-.045.012-.049.016-.045.016-.045.016-.045.016-.045.016-.045.02-.045.02-.045L4,15.557l.02-.045.024-.041.02-.045.024-.041.024-.041.024-.041.024-.041.028-.041.024-.041.028-.041.028-.037.028-.041.028-.041.028-.037.032-.037.028-.041.032-.037.032-.037-.243-.094-.231-.11-.231-.123-.222-.135-.214-.151-.21-.159-.2-.172-.2-.184-.19-.192-.186-.2L2.176,13.1l-.17-.221-.166-.229-.158-.237-.15-.245-.146-.249-.137-.257L1.12,11.4l-.125-.266-.117-.27-.109-.274L.663,10.31.57,10.028.481,9.746.4,9.46.328,9.178.259,8.892.2,8.606.15,8.32.105,8.038.069,7.756.04,7.478.02,7.2,0,6.931l0-.27L0,6.4l.008-.257.02-.253.024-.249.036-.241.049-.257L.2,4.883l.069-.249.077-.245.089-.241.1-.237.105-.229.117-.225.121-.221.133-.217.142-.208.15-.2.158-.2.162-.192.17-.18.182-.18L2.151,1.7l.194-.163.194-.155.206-.147.206-.143L3.171.956,3.389.83,3.616.711,3.842.6,4.077.5l.239-.09L4.558.327,4.8.253,5.055.188,5.31.135,5.565.086,5.824.049,6.087.025,6.349,0l.267,0h.267Zm6.378,2.431-.146.008-.146.012-.146.016-.146.02L12.8,2.53l-.142.029-.142.033-.137.037-.138.037-.138.045-.04.012-.04.012-.045.016-.04.012-.036.016-.04.016-.04.012-.04.016-.04.016-.04.016-.036.016-.04.02-.04.016-.036.016-.04.02-.04.016-.036.02L11.388,3l-.036.02-.036.02-.04.016-.036.02L11.2,3.1l-.036.02-.04.02-.036.02-.036.025-.036.02-.036.02-.036.025-.032.02-.036.025-.036.02-.036.025-.057.041-.061.041-.057.041-.061.041-.057.045-.057.045-.053.045-.057.045-.057.045-.053.049-.053.045-.053.049-.053.049-.048.049-.053.053-.049.049-.049.053L9.807,4.2l-.069.082-.069.082L9.6,4.446l-.065.086-.065.086-.061.09-.057.086-.061.094-.057.09-.053.094-.053.094-.048.094-.049.1-.044.1-.045.1-.04.1-.024.057-.02.057-.02.061-.02.057-.02.057L8.78,6l-.016.061-.02.057-.016.061-.016.061L8.7,6.3l-.012.057-.016.061-.012.061-.012.065-.012.061-.008.061-.008.045-.008.049,0,.045-.008.049,0,.045-.008.049,0,.049,0,.049,0,.049,0,.049,0,.049V7.25l0,.049,0,.049v.1l0,.053v.266l0,.09,0,.09,0,.09,0,.09.008.094,0,.09.008.094L8.6,8.5l.008.094.012.094.012.094.012.094.016.1.016.094.024.155.028.155.032.155.036.155.036.155L8.869,10l.04.155.045.155L9,10.462l.049.155.053.151.053.155.053.151.061.147.057.151.065.147.061.147.02.041.02.041.016.041.02.041.02.041.02.041.016.041.02.041.02.041.02.037.02.041.02.041.024.041.02.037.02.041.02.037.02.041.024.037.02.037.02.041.024.037.02.037.024.037.02.037.024.037.02.037.024.037.024.037.02.037.024.037.024.037.024.033.02.037.024.033.117.163.121.159.121.151.125.143.133.139.134.131.133.123.142.119.142.106.146.1.15.09.154.082.154.074.158.061.162.053.162.041.166.029.489.029.493-.065.493-.143.489-.212.481-.282.473-.343.461-.392.441-.433.417-.474.392-.5.364-.519.332-.539.291-.544.251-.544.21-.539.158-.519.105-.5.053-.478.008-.474-.04-.466-.085-.454L18.741,5.9l-.17-.425-.206-.409-.243-.384-.279-.368-.311-.339-.34-.311L16.82,3.38l-.4-.249-.425-.217-.453-.18-.469-.139L14.579,2.5l-.15-.02-.154-.016-.15-.012-.15-.008-.15,0h-.15ZM5.52,1.5l-.461.123-.445.159-.425.2-.4.233-.38.27-.356.3-.323.327-.3.356-.259.384-.226.409-.186.429-.146.454-.1.47-.057.507-.012.544.024.572.069.588.105.6.142.609.182.6.214.593.251.572.279.544.311.507.344.462.372.409.4.347.425.282.453.2.473.114.166.02.17.008h.17l.17-.016.17-.02.17-.033.17-.045.17-.053.17-.057.17-.069.17-.078.17-.086.166-.094.166-.1.166-.11.166-.114.162-.119-.174-.356-.162-.364-.146-.372-.137-.372-.121-.38-.109-.384-.1-.384-.081-.384-.069-.384-.057-.38-.04-.376-.028-.372L7.11,7.826V7.47l.016-.351.028-.335L7.2,6.457l.057-.3.069-.29.085-.286.1-.278.105-.274.121-.266.134-.257.146-.253.154-.245.166-.233.178-.229L8.7,3.326l.2-.212.206-.2.214-.192.222-.184.231-.176-.117-.082L9.528,2.2l-.121-.074-.125-.069-.125-.069-.129-.065L8.9,1.859,8.764,1.8l-.137-.053-.138-.053-.138-.045L8.21,1.6l-.146-.041-.146-.037-.146-.033-.15-.029-.15-.025-.5-.053-.493,0-.485.037Z" transform="translate(0 0)" fill="#364d4b"/>
      <path id="Path_2059" data-name="Path 2059" d="M1.267,5.282c.979-1.5,1.488-3.535.2-5.018C.863-.435-.334.4.277,1.1A2.735,2.735,0,0,1,.123,4.387C-.375,5.151.766,6.054,1.267,5.282Z" transform="translate(16.355 4.983)" fill="#364d4b" stroke="rgba(0,0,0,0)" stroke-width="1"/>
    </g>
    <g id="music" transform="translate(917.946 -455.752) rotate(19)" opacity="0.9">
      <g id="Group_386" data-name="Group 386" transform="translate(4.73 0)">
        <g id="Group_385" data-name="Group 385">
          <path id="Path_2074" data-name="Path 2074" d="M24.007.126a.66.66,0,0,0-.591-.094L6.106,5.646a.659.659,0,0,0-.456.627V21.114a4.643,4.643,0,0,0-.5-.027,5.263,5.263,0,0,0-2.622.721A5.111,5.111,0,0,0,.267,24.4a3.665,3.665,0,0,0,.2,3.169,3.83,3.83,0,0,0,3.4,1.817h0a5.256,5.256,0,0,0,2.618-.721,4.792,4.792,0,0,0,2.522-3.944q0-.021,0-.043V11.812L20.919,7.95v7.368a4.662,4.662,0,0,0-.5-.027,5.262,5.262,0,0,0-2.622.721c-2.229,1.287-3.154,3.872-2.062,5.764a3.831,3.831,0,0,0,3.4,1.817,5.256,5.256,0,0,0,2.618-.721,4.785,4.785,0,0,0,2.523-3.986V.659A.659.659,0,0,0,24.007.126ZM21.1,21.73a3.938,3.938,0,0,1-1.959.545,2.532,2.532,0,0,1-2.263-1.158c-.728-1.262-.02-3.04,1.58-3.963a3.944,3.944,0,0,1,1.963-.544,3.1,3.1,0,0,1,.958.146.659.659,0,0,0,.862-.627V7.043a.659.659,0,0,0-.862-.627L8.148,10.706a.659.659,0,0,0-.456.627V24.648c0,.009,0,.018,0,.028a3.515,3.515,0,0,1-1.864,2.85,3.937,3.937,0,0,1-1.959.545h0a2.532,2.532,0,0,1-2.263-1.158,2.372,2.372,0,0,1-.1-2.048,3.793,3.793,0,0,1,1.684-1.915,3.944,3.944,0,0,1,1.963-.544,3.1,3.1,0,0,1,.958.146.659.659,0,0,0,.862-.627V6.752L22.961,1.565V18.88A3.515,3.515,0,0,1,21.1,21.73Z" fill="#364d4b"/>
        </g>
      </g>
      <g id="Group_388" data-name="Group 388" transform="translate(25.401 23.342)">
        <g id="Group_387" data-name="Group 387">
          <path id="Path_2075" data-name="Path 2075" d="M8.3,5.112v0l-.005-.021,0-.018L7.059.488l0-.011c0-.012-.008-.025-.012-.037L7.033.412,7.021.383,7,.349,7,.338,6.991.326,6.97.292,6.954.27,6.932.24,6.912.218,6.89.194,6.865.171,6.843.152,6.816.13,6.792.113,6.764.1,6.737.08,6.709.066,6.678.051,6.653.041,6.617.029,6.594.022,6.554.013l-.022,0L6.492,0,6.468,0H6.4L6.368,0l-.035,0-.028,0L6.267.019l-.014,0-.011,0L6.205.037,6.176.048,6.148.061,6.113.078l-.01,0L1.579,2.6,1.567,2.6l-.035.022-.021.015-.029.023-.023.02-.023.022-.024.025-.018.021-.023.029L1.355,2.8l-.02.031-.014.024-.016.031-.012.028-.012.029c0,.01-.007.021-.011.032s-.006.018-.008.027-.006.023-.008.035l-.005.027c0,.012,0,.024,0,.036s0,.019,0,.028,0,.023,0,.034,0,.021,0,.032,0,.02,0,.03,0,.025,0,.037,0,.017,0,.026.005.027.009.04,0,.009,0,.014l.978,3.65a2.614,2.614,0,0,0-1.464.582A1.911,1.911,0,0,0,0,9.033a1.3,1.3,0,0,0,.5,1.031,1.672,1.672,0,0,0,1.049.336,2.589,2.589,0,0,0,1.6-.586,1.912,1.912,0,0,0,.776-1.458,1.361,1.361,0,0,0-.043-.332v0l0-.011L3.87,7.982,2.669,3.5,6.005,1.645,6.658,4.08a2.614,2.614,0,0,0-1.464.582A1.912,1.912,0,0,0,4.417,6.12a1.3,1.3,0,0,0,.5,1.031,1.672,1.672,0,0,0,1.049.336,2.589,2.589,0,0,0,1.6-.586,1.912,1.912,0,0,0,.776-1.458A1.365,1.365,0,0,0,8.3,5.112ZM2.318,8.79a1.287,1.287,0,0,1-.765.292.407.407,0,0,1-.234-.053h0A.658.658,0,0,1,1.607,8.6a1.287,1.287,0,0,1,.765-.292.407.407,0,0,1,.234.053h0A.658.658,0,0,1,2.318,8.79ZM6.735,5.877a1.288,1.288,0,0,1-.765.292.407.407,0,0,1-.234-.053h0a.658.658,0,0,1,.289-.428,1.287,1.287,0,0,1,.765-.292.407.407,0,0,1,.234.053h0A.659.659,0,0,1,6.735,5.877Z" fill="#364d4b"/>
        </g>
      </g>
      <g id="Group_390" data-name="Group 390" transform="translate(0 0)">
        <g id="Group_389" data-name="Group 389" transform="translate(0 0)">
          <path id="Path_2076" data-name="Path 2076" d="M9.551.088a.659.659,0,0,0-.9.241l-3.2,5.536A3.843,3.843,0,0,0,2.84,4.481a3.859,3.859,0,0,0-.4-.021,2.637,2.637,0,0,0-1.991.782,1.767,1.767,0,0,0-.438,1.4A3.332,3.332,0,0,0,3.1,9.127a3.86,3.86,0,0,0,.4.021,2.637,2.637,0,0,0,1.991-.782,1.82,1.82,0,0,0,.2-.275L5.7,8.078,9.792.989A.659.659,0,0,0,9.551.088ZM4.565,7.405l0,.006a.524.524,0,0,1-.059.08,1.545,1.545,0,0,1-1.267.325,2.1,2.1,0,0,1-1.914-1.33.442.442,0,0,1,.114-.369,1.367,1.367,0,0,1,1.006-.339,2.521,2.521,0,0,1,.261.014,2.1,2.1,0,0,1,1.914,1.33A.443.443,0,0,1,4.565,7.405Z" fill="#364d4b"/>
        </g>
      </g>
      <g id="Group_392" data-name="Group 392" transform="translate(21.767 3.957)">
        <g id="Group_391" data-name="Group 391">
          <path id="Path_2077" data-name="Path 2077" d="M3.858.456a.659.659,0,0,0-.83-.424L.456.866A.659.659,0,1,0,.862,2.12l2.572-.834A.659.659,0,0,0,3.858.456Z" fill="#364d4b"/>
        </g>
      </g>
      <g id="Group_394" data-name="Group 394" transform="translate(19.951 5.376)">
        <g id="Group_393" data-name="Group 393">
          <path id="Path_2078" data-name="Path 2078" d="M1.3.455A.659.659,0,0,0,.47.033l-.015,0A.659.659,0,1,0,.863,1.291l.015,0A.659.659,0,0,0,1.3.455Z" fill="#364d4b"/>
        </g>
      </g>
    </g>
    <g id="confetti" transform="translate(875.302 -438.055) rotate(7)" opacity="0.9">
      <g id="Group_384" data-name="Group 384" transform="translate(0 0)">
        <g id="Group_383" data-name="Group 383" transform="translate(0 0)">
          <path id="Path_2060" data-name="Path 2060" d="M22.323,18.192A17.283,17.283,0,0,1,26,16.945a.645.645,0,1,0-.267-1.263,18.762,18.762,0,0,0-4.242,1.476c-.794-.947-1.7-1.937-2.684-2.918-1.042-1.042-2.1-2-3.1-2.832a14.583,14.583,0,0,0,2.107-3.661,19.132,19.132,0,0,0,1.256-7.1.645.645,0,1,0-1.291,0,15.593,15.593,0,0,1-3.08,9.96c-.386-.294-.76-.565-1.117-.806C11.671,8.51,10.532,8.207,9.9,8.821l-.014.013,0,0h0a1.062,1.062,0,0,0-.3.6L.05,32.151A.645.645,0,0,0,.9,33h0l22.715-9.526a1.06,1.06,0,0,0,.553-.262l.032-.029.013-.012,0,0,.013-.014c.614-.637.311-1.776-.979-3.689C22.973,19.058,22.663,18.632,22.323,18.192ZM5.119,28.448a4.342,4.342,0,0,1-.578,1.619L1.851,31.2,4.583,24.68A7.171,7.171,0,0,1,5.119,28.448Zm3.972-2.184A4.135,4.135,0,0,1,7.944,28.64l-1.7.713a8.453,8.453,0,0,0-.984-6.287l1.934-4.612C9.2,22.259,9.351,24.78,9.091,26.264Zm2.3.929L10,27.777a6.516,6.516,0,0,0,.334-1.149c.517-2.637-.327-5.9-2.505-9.693l.7-1.665a10.957,10.957,0,0,1,1.438,2.2.645.645,0,1,0,1.186-.51,12.247,12.247,0,0,0-2.072-3.005l1.067-2.545c.187.343.418.718.7,1.13q.287.425.626.879A12.139,12.139,0,0,1,13.2,22.487,13.107,13.107,0,0,1,11.393,27.193Zm4.973-2.085L13.3,26.393a16.269,16.269,0,0,0,1.162-3.667,14.034,14.034,0,0,0-.123-5.934q.459.484.943.969c.965.965,1.94,1.861,2.873,2.646A6.4,6.4,0,0,1,16.366,25.108Zm2.225-.933a8.719,8.719,0,0,0,.787-2.787c.39.3.767.571,1.128.814.412.278.787.509,1.13.7Zm2.27-3.3a38.243,38.243,0,0,1-4.664-4.03,38.237,38.237,0,0,1-4.03-4.664,7.521,7.521,0,0,1-1.289-2.35,7.525,7.525,0,0,1,2.35,1.289c.2.143.408.295.619.455-.045.047-.09.094-.136.14a.645.645,0,1,0,.913.913q.122-.122.24-.246c.979.809,2.014,1.754,3.029,2.769.873.873,1.693,1.76,2.421,2.614q-.175.1-.35.2a.645.645,0,1,0,.645,1.118c.179-.1.358-.2.538-.3.28.356.541.7.776,1.034a7.52,7.52,0,0,1,1.289,2.35A7.525,7.525,0,0,1,20.861,20.879Z" fill="#364d4b"/>
          <path id="Path_2061" data-name="Path 2061" d="M1.234.381a.648.648,0,1,0,.022.055C1.25.419,1.242.4,1.234.381Z" transform="translate(10.441 18.242)" fill="#364d4b"/>
          <path id="Path_2062" data-name="Path 2062" d="M.189,3.529a.645.645,0,0,0,.913,0A9.186,9.186,0,0,1,6.586,1.289.645.645,0,1,0,6.482,0,10.519,10.519,0,0,0,.189,2.617.645.645,0,0,0,.189,3.529Z" transform="translate(23.913 6.455)" fill="#364d4b"/>
          <path id="Path_2063" data-name="Path 2063" d="M.857.034.8.019A.645.645,0,0,0,.49,1.272l.033.009A.645.645,0,1,0,.857.034Z" transform="translate(31.71 6.547)" fill="#364d4b"/>
          <path id="Path_2064" data-name="Path 2064" d="M.645,2.582h.645v.645a.645.645,0,1,0,1.291,0V2.582h.645a.645.645,0,1,0,0-1.291H2.582V.645a.645.645,0,1,0-1.291,0v.645H.645a.645.645,0,0,0,0,1.291Z" transform="translate(4.099 2.815)" fill="#364d4b"/>
          <path id="Path_2065" data-name="Path 2065" d="M.645,2.582h.645v.645a.645.645,0,1,0,1.291,0V2.582h.645a.645.645,0,0,0,0-1.291H2.582V.645a.645.645,0,1,0-1.291,0v.645H.645a.645.645,0,0,0,0,1.291Z" transform="translate(19.202 9.076)" fill="#364d4b"/>
          <path id="Path_2066" data-name="Path 2066" d="M3.227,1.291H2.582V.645a.645.645,0,1,0-1.291,0v.645H.645a.645.645,0,0,0,0,1.291h.645v.645a.645.645,0,0,0,1.291,0V2.582h.645a.645.645,0,1,0,0-1.291Z" transform="translate(25.591 25.663)" fill="#364d4b"/>
          <path id="Path_2067" data-name="Path 2067" d="M1.936,3.873A1.936,1.936,0,1,0,0,1.936,1.938,1.938,0,0,0,1.936,3.873Zm0-2.582a.645.645,0,1,1-.645.645A.646.646,0,0,1,1.936,1.291Z" transform="translate(23.233 0)" fill="#364d4b"/>
          <path id="Path_2068" data-name="Path 2068" d="M1.936,0A1.936,1.936,0,1,0,3.873,1.936,1.939,1.939,0,0,0,1.936,0Zm0,2.582a.645.645,0,1,1,.645-.645A.646.646,0,0,1,1.936,2.582Z" transform="translate(27.269 11.206)" fill="#364d4b"/>
          <path id="Path_2069" data-name="Path 2069" d="M1.936,3.873A1.936,1.936,0,1,0,0,1.936,1.938,1.938,0,0,0,1.936,3.873Zm0-2.582a.645.645,0,1,1-.645.645A.646.646,0,0,1,1.936,1.291Z" transform="translate(10.876 2.299)" fill="#364d4b"/>
          <path id="Path_2070" data-name="Path 2070" d="M1.291.645a.645.645,0,1,0-.645.645A.647.647,0,0,0,1.291.645Z" transform="translate(27.701 18.334)" fill="#364d4b"/>
          <path id="Path_2071" data-name="Path 2071" d="M.645,1.291A.645.645,0,1,0,0,.645.647.647,0,0,0,.645,1.291Z" transform="translate(20.989 4.845)" fill="#364d4b"/>
          <path id="Path_2072" data-name="Path 2072" d="M.645,0a.645.645,0,1,0,.645.645A.647.647,0,0,0,.645,0Z" transform="translate(29.637 23.175)" fill="#364d4b"/>
          <path id="Path_2073" data-name="Path 2073" d="M.645,1.291A.645.645,0,1,0,0,.645.647.647,0,0,0,.645,1.291Z" transform="translate(8.338 0.646)" fill="#364d4b"/>
        </g>
      </g>
    </g>
    <g id="party-hat" transform="matrix(0.875, 0.485, -0.485, 0.875, 953.571, -427.673)" opacity="0.9">
      <g id="Group_396" data-name="Group 396" transform="translate(0 0)">
        <g id="Group_395" data-name="Group 395" transform="translate(0 0)">
          <path id="Path_2079" data-name="Path 2079" d="M24.947,31.24c0-.018,0-.035,0-.053s0-.015,0-.023,0-.027-.006-.04-.006-.024-.009-.036,0-.018-.007-.026-.01-.031-.016-.046l0-.013,0,0,0,0L13.941,4.215a2.364,2.364,0,1,0-2.934,0L9.661,7.505h0L.052,30.993l0,0,0,0,0,.012c-.006.015-.012.031-.017.047s0,.017-.007.026-.006.024-.009.036,0,.026-.006.04,0,.015,0,.023,0,.035,0,.053,0,.007,0,.01v0c0,.01,0,.019,0,.028.026.888,1.2,1.418,4.023,1.827a62.271,62.271,0,0,0,8.446.507h.005a62.275,62.275,0,0,0,8.448-.507c2.826-.408,4-.939,4.023-1.827,0-.009,0-.019,0-.028v0S24.947,31.244,24.947,31.24ZM12.474,1.313a1.051,1.051,0,1,1-1.051,1.051A1.052,1.052,0,0,1,12.474,1.313Zm-.252,3.4a2.345,2.345,0,0,0,.5,0l3.35,8.189a9.27,9.27,0,0,1-4.192-3.048,5.492,5.492,0,0,1-.939-2.019Zm-3.01,7.357,1-2.443a7.545,7.545,0,0,0,.548.911,10.971,10.971,0,0,0,5.982,3.99l2.5,6.117c-5.386-1.612-7.832-3.786-8.941-5.379A5.231,5.231,0,0,1,9.212,12.071Zm-.906,2.215A7.835,7.835,0,0,0,9.145,15.9,12,12,0,0,0,12.8,19.278a26.217,26.217,0,0,0,7.077,2.911l.689,1.683a18.89,18.89,0,0,1-1.876-.423.657.657,0,0,0-.353,1.265,18.932,18.932,0,0,0,2.806.568L22.4,28.354c-5.381-.617-9.576-2.623-12.481-5.97a13.854,13.854,0,0,1-2.851-5.064Zm-3.53,17.6a11.577,11.577,0,0,1-3.363-.748l1.3-3.183c.124.309.263.622.424.96a.657.657,0,1,0,1.185-.566,12.527,12.527,0,0,1-.846-2.259L4.044,24.7a12.893,12.893,0,0,0,.743,1.877,14.436,14.436,0,0,0,5.1,5.677C8,32.2,6.245,32.07,4.776,31.884Zm15.4,0a63.932,63.932,0,0,1-7.549.416A13.7,13.7,0,0,1,6,26.064a10.5,10.5,0,0,1-1.068-3.519l1.4-3.413a15.9,15.9,0,0,0,2.551,4.055,17.458,17.458,0,0,0,5.368,4.173A23.974,23.974,0,0,0,22.96,29.73l.575,1.406A11.581,11.581,0,0,1,20.172,31.884Z" fill="#364d4b"/>
        </g>
      </g>
      <g id="Group_398" data-name="Group 398" transform="translate(16.052 22.802)">
        <g id="Group_397" data-name="Group 397">
          <path id="Path_2080" data-name="Path 2080" d="M.925.058a.657.657,0,0,0-.542,1.2l.026.011A.657.657,0,0,0,.925.058Z" fill="#364d4b"/>
        </g>
      </g>
      <g id="Group_400" data-name="Group 400" transform="translate(3.997 29.638)">
        <g id="Group_399" data-name="Group 399" transform="translate(0 0)">
          <path id="Path_2081" data-name="Path 2081" d="M1.2.291a.657.657,0,0,0-1.1.718l.018.027A.657.657,0,0,0,1.2.291Z" fill="#364d4b"/>
        </g>
      </g>
    </g>
    <g id="Group_376" data-name="Group 376" transform="translate(901.265 -398.967) rotate(17)">
      <path id="Path_2058-2" data-name="Path 2058" d="M7.15.016l.271.025.271.033.1.016.1.016.1.02L8.08.143l.1.02L8.27.188l.1.02L8.46.233l.093.029.093.025L8.74.315l.089.029.089.033L9.01.409,9.1.441l.089.033.085.037.089.037.085.037.085.037.085.041L9.7.7l.085.041.081.045.085.045.081.045.077.045.081.049.081.045.077.049.077.053.077.049.077.053.073.053.073.053.073.057.073.053.073.057.069.057.073.061.085-.037.085-.033.085-.033.085-.033.089-.033.089-.029.085-.029.089-.029.089-.029.093-.025.089-.025.089-.02.093-.025.089-.02.093-.016.093-.02.089-.016.093-.016.093-.012.1-.016.093-.012.093-.008.093-.008.1-.008.093-.008.1,0,.1,0,.093,0h.291l.1,0,.1,0,.1,0,.1.008.1.008.1.008.1.012.1.012.1.012.271.045.263.057L15.6,1.3l.255.074.251.086.247.094.239.1.235.11.231.119.222.127.218.135.21.143.206.151.2.155.19.163.186.172.178.176.17.184L19,3.486l.154.192.146.2.141.208.129.208.121.217.113.221.105.225.1.229.085.233.077.237.069.237.061.245.049.245.036.245.028.253.02.253,0,.253,0,.257-.012.257-.024.257-.036.262-.044.237-.053.237-.061.241-.073.249-.077.245-.089.253-.1.249-.105.253-.113.253-.121.253-.129.253-.133.253-.146.249-.15.249-.158.245-.162.245-.17.241-.174.237-.182.233-.19.225-.19.225-.2.217-.2.208-.206.2-.214.2-.214.188-.222.18-.222.172-.231.163-.231.151-.235.143-.239.131-.239.123-.243.11-.247.1-.247.082-.251.074-.251.057-.255.045-.251.029h0v0l0,0,0,0-.008.008,0,0,0,0v0l0,0-.162.147L13,16.461l-.125.151-.113.159-.093.159-.081.159-.065.163-.057.168-.04.168-.032.168-.02.172-.012.172v.172l0,.176.012.176.02.176.02.18.028.18.028.176.036.184.032.18.036.18.036.18.032.184.032.18.028.184.028.18.02.18.016.18.012.184v.18l0,.176-.012.18-.024.176-.032.18-.044.176-.061.172-.069.172-.085.172-.1.172-.02.033-.024.037-.024.033-.024.033-.024.033-.028.029-.028.033-.024.029-.028.029L12.1,23.4l-.028.029-.028.029-.032.025-.032.029-.032.029-.028.025-.036.025-.032.025-.032.025-.036.025-.032.025-.036.025-.036.025-.032.02-.036.02-.036.025-.036.02-.036.02-.036.02-.04.02-.036.02-.036.016-.036.02-.04.016-.036.02-.036.016-.04.016-.036.016-.036.02-.04.016-.142.061-.133.069-.125.069-.109.074-.1.074-.093.078-.085.078-.073.082-.065.082-.057.086-.049.086-.04.086-.036.09-.024.094-.02.094-.016.094-.008.094v.1l0,.1.008.1.012.1.02.1.02.1.028.1.028.106.032.106.032.106.04.106.036.106.044.106.04.106.044.11.044.106.045.11.044.106.045.11.045.106.044.11.04.106.04.11.024.061L10.64,28l.008.057,0,.057v.057l-.008.057-.012.049-.016.053-.02.049-.024.045-.028.045-.032.041-.032.041-.036.037-.04.037-.044.033-.045.029-.044.025-.049.025-.049.02-.053.016-.053.016-.053.008-.053.008-.053,0H9.856l-.053,0-.053,0L9.7,28.786l-.053-.016-.049-.02-.044-.02L9.512,28.7l-.045-.033-.04-.037-.04-.041-.032-.045-.032-.053-.028-.053-.028-.061L9.2,28.209l-.065-.172-.069-.163-.065-.168-.065-.163-.065-.159-.065-.163-.061-.159-.061-.155-.061-.159L8.578,26.6l-.053-.155-.049-.151-.044-.151-.04-.147-.032-.147L8.331,25.7l-.024-.143-.016-.139-.012-.139,0-.139,0-.135.016-.135.02-.131.028-.127.04-.131.048-.123.061-.123.069-.123L8.642,24l.093-.119.105-.114.117-.11.129-.11.142-.11.158-.106.17-.1.186-.1.2-.1.218-.1.162-.074.146-.078.137-.086.121-.094.109-.094.1-.1.085-.106.077-.11.065-.114.057-.114.044-.123.04-.127.028-.127.02-.131.016-.135.008-.139v-.139l0-.143-.008-.143-.016-.143-.016-.147L11.3,20.31l-.024-.151-.028-.147-.028-.151-.032-.151-.032-.151-.036-.151-.032-.151-.032-.151-.032-.151-.032-.147-.028-.151-.024-.143-.024-.147-.02-.143-.016-.143-.012-.139-.008-.135v-.188l0-.053,0-.049,0-.053,0-.049,0-.053.008-.049.008-.049.012-.049.008-.049.012-.045.012-.049.012-.049.016-.045.012-.045L11,16.886l.016-.049.016-.045.02-.041.02-.045.02-.045.02-.045.02-.041.02-.045.024-.041.024-.041.024-.041.024-.041.024-.041.024-.041.028-.041.028-.041.028-.041.028-.037.028-.041.028-.037.028-.041.032-.037.032-.037.028-.037-.073-.029-.073-.029-.073-.029-.073-.033-.069-.033-.073-.033-.069-.037-.073-.037-.069-.037-.069-.041-.065-.041-.069-.041-.069-.041-.065-.045-.065-.045-.069-.045-.065-.045-.061-.049-.065-.049-.065-.053-.061-.049-.061-.053-.065-.053L9.973,14.9l-.057-.057-.061-.057L9.8,14.728l-.057-.057-.057-.061-.057-.057-.057-.061-.057-.065-.057-.061L9.4,14.3l-.057-.061-.053-.065L9.241,14.1l-.053-.065-.053-.069L9.087,13.9l-.069.045L8.95,14l-.065.045-.069.045-.069.045-.069.045-.069.041-.069.041-.069.041L8.4,14.34l-.069.041-.069.037-.069.037-.073.037-.069.037-.073.033-.069.033-.073.033-.073.033-.069.029-.073.033-.073.029-.073.025-.069.029-.073.025-.073.025-.073.02-.073.02-.077.02-.073.02-.073.02-.073.016-.073.016L6.677,15,6.6,15.01l-.073.012-.073.012-.077.008-.073.008-.077.008,0,0v0h0l0,0v0l0,0,0,0,0,0,0,0,0,0-.162.147-.146.155-.125.155-.109.155-.1.159-.081.163-.065.163-.053.163-.044.168-.028.168-.02.172-.012.172,0,.176,0,.172.012.176.02.18.024.176.024.18.032.18.032.18.036.18.032.18.036.18.032.184.032.18.032.184.024.18.024.18.016.184.008.18,0,.18,0,.176-.016.18-.024.18-.032.176-.045.176L5.5,21.5l-.073.176-.085.168-.1.172-.024.033-.024.037-.024.033-.024.033-.024.033-.028.029-.024.033-.028.029-.028.033-.028.029-.032.029-.028.029-.032.029-.028.025-.032.029L4.8,22.5l-.032.025-.036.029-.032.025-.032.025-.036.02-.032.025-.036.025-.036.02-.036.025-.036.02-.036.02-.036.02-.036.02-.036.02-.036.02-.04.016-.036.02-.036.02-.04.016-.036.016-.036.016-.04.02-.036.016L3.931,23l-.142.065-.133.065-.121.069-.113.074-.1.074-.093.078-.081.078-.077.082L3,23.665l-.057.086-.049.086-.04.086-.032.09-.028.094-.02.094-.012.094-.008.094,0,.1,0,.1.008.1.016.1.016.1.024.1.024.106.028.1.032.106.036.106.036.106.04.106.04.106.04.11.045.106.044.11.044.106.049.11.045.106.044.11.04.106.045.106.04.11.02.061.012.061.012.057v.114l-.008.057-.012.053-.016.049-.02.049-.024.045-.024.045-.032.045-.036.037-.036.037-.04.037-.04.033-.044.029-.049.025-.049.025-.048.02-.053.016-.048.016-.053.012-.053,0-.053,0H2.75l-.053,0-.053,0-.053-.012-.049-.016L2.5,27.69l-.049-.025L2.4,27.637,2.358,27.6l-.04-.037-.036-.041-.036-.045-.032-.053-.028-.053-.024-.061-.065-.168-.065-.168-.065-.168L1.9,26.644l-.069-.163-.065-.159-.061-.163L1.642,26l-.061-.155-.057-.155-.057-.155-.053-.155-.049-.151-.04-.147-.04-.151-.036-.143-.028-.147L1.2,24.495l-.016-.139-.012-.139v-.139l0-.135.012-.131.02-.135.028-.127.04-.127.049-.127.061-.123.069-.123.081-.119.093-.119.105-.114.117-.11.129-.11.142-.11.158-.106.17-.1.186-.1.2-.1.214-.094.162-.078.15-.078.133-.086.121-.094.109-.094.1-.1.089-.106.073-.11.065-.11L4.1,20.89l.049-.123.036-.127.028-.127.024-.131.012-.135.008-.139v-.139l0-.139-.008-.143-.016-.147-.016-.147-.024-.147L4.17,19.1l-.028-.147L4.113,18.8l-.032-.151L4.048,18.5l-.032-.151-.036-.151-.032-.151-.032-.151-.028-.147L3.858,17.6,3.83,17.45,3.806,17.3l-.02-.143-.016-.139-.012-.139,0-.139,0-.135,0-.053v-.049l0-.053,0-.053,0-.049.008-.049.008-.053.008-.049L3.8,16.15,3.81,16.1l.008-.045.012-.049.016-.045.012-.049.016-.045.016-.045.016-.045.016-.045.016-.045.02-.045.02-.045L4,15.557l.02-.045.024-.041.02-.045.024-.041.024-.041.024-.041.024-.041.028-.041.024-.041.028-.041.028-.037.028-.041.028-.041.028-.037.032-.037.028-.041.032-.037.032-.037-.243-.094-.231-.11-.231-.123-.222-.135-.214-.151-.21-.159-.2-.172-.2-.184-.19-.192-.186-.2L2.176,13.1l-.17-.221-.166-.229-.158-.237-.15-.245-.146-.249-.137-.257L1.12,11.4l-.125-.266-.117-.27-.109-.274L.663,10.31.57,10.028.481,9.746.4,9.46.328,9.178.259,8.892.2,8.606.15,8.32.105,8.038.069,7.756.04,7.478.02,7.2,0,6.931l0-.27L0,6.4l.008-.257.02-.253.024-.249.036-.241.049-.257L.2,4.883l.069-.249.077-.245.089-.241.1-.237.105-.229.117-.225.121-.221.133-.217.142-.208.15-.2.158-.2.162-.192.17-.18.182-.18L2.151,1.7l.194-.163.194-.155.206-.147.206-.143L3.171.956,3.389.83,3.616.711,3.842.6,4.077.5l.239-.09L4.558.327,4.8.253,5.055.188,5.31.135,5.565.086,5.824.049,6.087.025,6.349,0l.267,0h.267Zm6.378,2.431-.146.008-.146.012-.146.016-.146.02L12.8,2.53l-.142.029-.142.033-.137.037-.138.037-.138.045-.04.012-.04.012-.045.016-.04.012-.036.016-.04.016-.04.012-.04.016-.04.016-.04.016-.036.016-.04.02-.04.016-.036.016-.04.02-.04.016-.036.02L11.388,3l-.036.02-.036.02-.04.016-.036.02L11.2,3.1l-.036.02-.04.02-.036.02-.036.025-.036.02-.036.02-.036.025-.032.02-.036.025-.036.02-.036.025-.057.041-.061.041-.057.041-.061.041-.057.045-.057.045-.053.045-.057.045-.057.045-.053.049-.053.045-.053.049-.053.049-.048.049-.053.053-.049.049-.049.053L9.807,4.2l-.069.082-.069.082L9.6,4.446l-.065.086-.065.086-.061.09-.057.086-.061.094-.057.09-.053.094-.053.094-.048.094-.049.1-.044.1-.045.1-.04.1-.024.057-.02.057-.02.061-.02.057-.02.057L8.78,6l-.016.061-.02.057-.016.061-.016.061L8.7,6.3l-.012.057-.016.061-.012.061-.012.065-.012.061-.008.061-.008.045-.008.049,0,.045-.008.049,0,.045-.008.049,0,.049,0,.049,0,.049,0,.049,0,.049V7.25l0,.049,0,.049v.1l0,.053v.266l0,.09,0,.09,0,.09,0,.09.008.094,0,.09.008.094L8.6,8.5l.008.094.012.094.012.094.012.094.016.1.016.094.024.155.028.155.032.155.036.155.036.155L8.869,10l.04.155.045.155L9,10.462l.049.155.053.151.053.155.053.151.061.147.057.151.065.147.061.147.02.041.02.041.016.041.02.041.02.041.02.041.016.041.02.041.02.041.02.037.02.041.02.041.024.041.02.037.02.041.02.037.02.041.024.037.02.037.02.041.024.037.02.037.024.037.02.037.024.037.02.037.024.037.024.037.02.037.024.037.024.037.024.033.02.037.024.033.117.163.121.159.121.151.125.143.133.139.134.131.133.123.142.119.142.106.146.1.15.09.154.082.154.074.158.061.162.053.162.041.166.029.489.029.493-.065.493-.143.489-.212.481-.282.473-.343.461-.392.441-.433.417-.474.392-.5.364-.519.332-.539.291-.544.251-.544.21-.539.158-.519.105-.5.053-.478.008-.474-.04-.466-.085-.454L18.741,5.9l-.17-.425-.206-.409-.243-.384-.279-.368-.311-.339-.34-.311L16.82,3.38l-.4-.249-.425-.217-.453-.18-.469-.139L14.579,2.5l-.15-.02-.154-.016-.15-.012-.15-.008-.15,0h-.15ZM5.52,1.5l-.461.123-.445.159-.425.2-.4.233-.38.27-.356.3-.323.327-.3.356-.259.384-.226.409-.186.429-.146.454-.1.47-.057.507-.012.544.024.572.069.588.105.6.142.609.182.6.214.593.251.572.279.544.311.507.344.462.372.409.4.347.425.282.453.2.473.114.166.02.17.008h.17l.17-.016.17-.02.17-.033.17-.045.17-.053.17-.057.17-.069.17-.078.17-.086.166-.094.166-.1.166-.11.166-.114.162-.119-.174-.356-.162-.364-.146-.372-.137-.372-.121-.38-.109-.384-.1-.384-.081-.384-.069-.384-.057-.38-.04-.376-.028-.372L7.11,7.826V7.47l.016-.351.028-.335L7.2,6.457l.057-.3.069-.29.085-.286.1-.278.105-.274.121-.266.134-.257.146-.253.154-.245.166-.233.178-.229L8.7,3.326l.2-.212.206-.2.214-.192.222-.184.231-.176-.117-.082L9.528,2.2l-.121-.074-.125-.069-.125-.069-.129-.065L8.9,1.859,8.764,1.8l-.137-.053-.138-.053-.138-.045L8.21,1.6l-.146-.041-.146-.037-.146-.033-.15-.029-.15-.025-.5-.053-.493,0-.485.037Z" transform="translate(0 0)" fill="#364d4b"/>
      <path id="Path_2059-2" data-name="Path 2059" d="M1.267,5.282c.979-1.5,1.488-3.535.2-5.018C.863-.435-.334.4.277,1.1A2.735,2.735,0,0,1,.123,4.387C-.375,5.151.766,6.054,1.267,5.282Z" transform="translate(16.355 4.983)" fill="#364d4b" stroke="rgba(0,0,0,0)" stroke-width="1"/>
    </g>
    <g id="music-2" data-name="music" transform="translate(836.415 -411.134) rotate(19)">
      <g id="Group_386-2" data-name="Group 386" transform="translate(4.73 0)">
        <g id="Group_385-2" data-name="Group 385">
          <path id="Path_2074-2" data-name="Path 2074" d="M24.007.126a.66.66,0,0,0-.591-.094L6.106,5.646a.659.659,0,0,0-.456.627V21.114a4.643,4.643,0,0,0-.5-.027,5.263,5.263,0,0,0-2.622.721A5.111,5.111,0,0,0,.267,24.4a3.665,3.665,0,0,0,.2,3.169,3.83,3.83,0,0,0,3.4,1.817h0a5.256,5.256,0,0,0,2.618-.721,4.792,4.792,0,0,0,2.522-3.944q0-.021,0-.043V11.812L20.919,7.95v7.368a4.662,4.662,0,0,0-.5-.027,5.262,5.262,0,0,0-2.622.721c-2.229,1.287-3.154,3.872-2.062,5.764a3.831,3.831,0,0,0,3.4,1.817,5.256,5.256,0,0,0,2.618-.721,4.785,4.785,0,0,0,2.523-3.986V.659A.659.659,0,0,0,24.007.126ZM21.1,21.73a3.938,3.938,0,0,1-1.959.545,2.532,2.532,0,0,1-2.263-1.158c-.728-1.262-.02-3.04,1.58-3.963a3.944,3.944,0,0,1,1.963-.544,3.1,3.1,0,0,1,.958.146.659.659,0,0,0,.862-.627V7.043a.659.659,0,0,0-.862-.627L8.148,10.706a.659.659,0,0,0-.456.627V24.648c0,.009,0,.018,0,.028a3.515,3.515,0,0,1-1.864,2.85,3.937,3.937,0,0,1-1.959.545h0a2.532,2.532,0,0,1-2.263-1.158,2.372,2.372,0,0,1-.1-2.048,3.793,3.793,0,0,1,1.684-1.915,3.944,3.944,0,0,1,1.963-.544,3.1,3.1,0,0,1,.958.146.659.659,0,0,0,.862-.627V6.752L22.961,1.565V18.88A3.515,3.515,0,0,1,21.1,21.73Z" fill="#364d4b"/>
        </g>
      </g>
      <g id="Group_388-2" data-name="Group 388" transform="translate(25.401 23.342)">
        <g id="Group_387-2" data-name="Group 387">
          <path id="Path_2075-2" data-name="Path 2075" d="M8.3,5.112v0l-.005-.021,0-.018L7.059.488l0-.011c0-.012-.008-.025-.012-.037L7.033.412,7.021.383,7,.349,7,.338,6.991.326,6.97.292,6.954.27,6.932.24,6.912.218,6.89.194,6.865.171,6.843.152,6.816.13,6.792.113,6.764.1,6.737.08,6.709.066,6.678.051,6.653.041,6.617.029,6.594.022,6.554.013l-.022,0L6.492,0,6.468,0H6.4L6.368,0l-.035,0-.028,0L6.267.019l-.014,0-.011,0L6.205.037,6.176.048,6.148.061,6.113.078l-.01,0L1.579,2.6,1.567,2.6l-.035.022-.021.015-.029.023-.023.02-.023.022-.024.025-.018.021-.023.029L1.355,2.8l-.02.031-.014.024-.016.031-.012.028-.012.029c0,.01-.007.021-.011.032s-.006.018-.008.027-.006.023-.008.035l-.005.027c0,.012,0,.024,0,.036s0,.019,0,.028,0,.023,0,.034,0,.021,0,.032,0,.02,0,.03,0,.025,0,.037,0,.017,0,.026.005.027.009.04,0,.009,0,.014l.978,3.65a2.614,2.614,0,0,0-1.464.582A1.911,1.911,0,0,0,0,9.033a1.3,1.3,0,0,0,.5,1.031,1.672,1.672,0,0,0,1.049.336,2.589,2.589,0,0,0,1.6-.586,1.912,1.912,0,0,0,.776-1.458,1.361,1.361,0,0,0-.043-.332v0l0-.011L3.87,7.982,2.669,3.5,6.005,1.645,6.658,4.08a2.614,2.614,0,0,0-1.464.582A1.912,1.912,0,0,0,4.417,6.12a1.3,1.3,0,0,0,.5,1.031,1.672,1.672,0,0,0,1.049.336,2.589,2.589,0,0,0,1.6-.586,1.912,1.912,0,0,0,.776-1.458A1.365,1.365,0,0,0,8.3,5.112ZM2.318,8.79a1.287,1.287,0,0,1-.765.292.407.407,0,0,1-.234-.053h0A.658.658,0,0,1,1.607,8.6a1.287,1.287,0,0,1,.765-.292.407.407,0,0,1,.234.053h0A.658.658,0,0,1,2.318,8.79ZM6.735,5.877a1.288,1.288,0,0,1-.765.292.407.407,0,0,1-.234-.053h0a.658.658,0,0,1,.289-.428,1.287,1.287,0,0,1,.765-.292.407.407,0,0,1,.234.053h0A.659.659,0,0,1,6.735,5.877Z" fill="#364d4b"/>
        </g>
      </g>
      <g id="Group_390-2" data-name="Group 390" transform="translate(0 0)">
        <g id="Group_389-2" data-name="Group 389" transform="translate(0 0)">
          <path id="Path_2076-2" data-name="Path 2076" d="M9.551.088a.659.659,0,0,0-.9.241l-3.2,5.536A3.843,3.843,0,0,0,2.84,4.481a3.859,3.859,0,0,0-.4-.021,2.637,2.637,0,0,0-1.991.782,1.767,1.767,0,0,0-.438,1.4A3.332,3.332,0,0,0,3.1,9.127a3.86,3.86,0,0,0,.4.021,2.637,2.637,0,0,0,1.991-.782,1.82,1.82,0,0,0,.2-.275L5.7,8.078,9.792.989A.659.659,0,0,0,9.551.088ZM4.565,7.405l0,.006a.524.524,0,0,1-.059.08,1.545,1.545,0,0,1-1.267.325,2.1,2.1,0,0,1-1.914-1.33.442.442,0,0,1,.114-.369,1.367,1.367,0,0,1,1.006-.339,2.521,2.521,0,0,1,.261.014,2.1,2.1,0,0,1,1.914,1.33A.443.443,0,0,1,4.565,7.405Z" fill="#364d4b"/>
        </g>
      </g>
      <g id="Group_392-2" data-name="Group 392" transform="translate(21.767 3.957)">
        <g id="Group_391-2" data-name="Group 391">
          <path id="Path_2077-2" data-name="Path 2077" d="M3.858.456a.659.659,0,0,0-.83-.424L.456.866A.659.659,0,1,0,.862,2.12l2.572-.834A.659.659,0,0,0,3.858.456Z" fill="#364d4b"/>
        </g>
      </g>
      <g id="Group_394-2" data-name="Group 394" transform="translate(19.951 5.376)">
        <g id="Group_393-2" data-name="Group 393">
          <path id="Path_2078-2" data-name="Path 2078" d="M1.3.455A.659.659,0,0,0,.47.033l-.015,0A.659.659,0,1,0,.863,1.291l.015,0A.659.659,0,0,0,1.3.455Z" fill="#364d4b"/>
        </g>
      </g>
    </g>
    <g id="confetti-2" data-name="confetti" transform="translate(793.772 -393.436) rotate(7)">
      <g id="Group_384-2" data-name="Group 384" transform="translate(0 0)">
        <g id="Group_383-2" data-name="Group 383" transform="translate(0 0)">
          <path id="Path_2060-2" data-name="Path 2060" d="M22.323,18.192A17.283,17.283,0,0,1,26,16.945a.645.645,0,1,0-.267-1.263,18.762,18.762,0,0,0-4.242,1.476c-.794-.947-1.7-1.937-2.684-2.918-1.042-1.042-2.1-2-3.1-2.832a14.583,14.583,0,0,0,2.107-3.661,19.132,19.132,0,0,0,1.256-7.1.645.645,0,1,0-1.291,0,15.593,15.593,0,0,1-3.08,9.96c-.386-.294-.76-.565-1.117-.806C11.671,8.51,10.532,8.207,9.9,8.821l-.014.013,0,0h0a1.062,1.062,0,0,0-.3.6L.05,32.151A.645.645,0,0,0,.9,33h0l22.715-9.526a1.06,1.06,0,0,0,.553-.262l.032-.029.013-.012,0,0,.013-.014c.614-.637.311-1.776-.979-3.689C22.973,19.058,22.663,18.632,22.323,18.192ZM5.119,28.448a4.342,4.342,0,0,1-.578,1.619L1.851,31.2,4.583,24.68A7.171,7.171,0,0,1,5.119,28.448Zm3.972-2.184A4.135,4.135,0,0,1,7.944,28.64l-1.7.713a8.453,8.453,0,0,0-.984-6.287l1.934-4.612C9.2,22.259,9.351,24.78,9.091,26.264Zm2.3.929L10,27.777a6.516,6.516,0,0,0,.334-1.149c.517-2.637-.327-5.9-2.505-9.693l.7-1.665a10.957,10.957,0,0,1,1.438,2.2.645.645,0,1,0,1.186-.51,12.247,12.247,0,0,0-2.072-3.005l1.067-2.545c.187.343.418.718.7,1.13q.287.425.626.879A12.139,12.139,0,0,1,13.2,22.487,13.107,13.107,0,0,1,11.393,27.193Zm4.973-2.085L13.3,26.393a16.269,16.269,0,0,0,1.162-3.667,14.034,14.034,0,0,0-.123-5.934q.459.484.943.969c.965.965,1.94,1.861,2.873,2.646A6.4,6.4,0,0,1,16.366,25.108Zm2.225-.933a8.719,8.719,0,0,0,.787-2.787c.39.3.767.571,1.128.814.412.278.787.509,1.13.7Zm2.27-3.3a38.243,38.243,0,0,1-4.664-4.03,38.237,38.237,0,0,1-4.03-4.664,7.521,7.521,0,0,1-1.289-2.35,7.525,7.525,0,0,1,2.35,1.289c.2.143.408.295.619.455-.045.047-.09.094-.136.14a.645.645,0,1,0,.913.913q.122-.122.24-.246c.979.809,2.014,1.754,3.029,2.769.873.873,1.693,1.76,2.421,2.614q-.175.1-.35.2a.645.645,0,1,0,.645,1.118c.179-.1.358-.2.538-.3.28.356.541.7.776,1.034a7.52,7.52,0,0,1,1.289,2.35A7.525,7.525,0,0,1,20.861,20.879Z" fill="#364d4b"/>
          <path id="Path_2061-2" data-name="Path 2061" d="M1.234.381a.648.648,0,1,0,.022.055C1.25.419,1.242.4,1.234.381Z" transform="translate(10.441 18.242)" fill="#364d4b"/>
          <path id="Path_2062-2" data-name="Path 2062" d="M.189,3.529a.645.645,0,0,0,.913,0A9.186,9.186,0,0,1,6.586,1.289.645.645,0,1,0,6.482,0,10.519,10.519,0,0,0,.189,2.617.645.645,0,0,0,.189,3.529Z" transform="translate(23.913 6.455)" fill="#364d4b"/>
          <path id="Path_2063-2" data-name="Path 2063" d="M.857.034.8.019A.645.645,0,0,0,.49,1.272l.033.009A.645.645,0,1,0,.857.034Z" transform="translate(31.71 6.547)" fill="#364d4b"/>
          <path id="Path_2064-2" data-name="Path 2064" d="M.645,2.582h.645v.645a.645.645,0,1,0,1.291,0V2.582h.645a.645.645,0,1,0,0-1.291H2.582V.645a.645.645,0,1,0-1.291,0v.645H.645a.645.645,0,0,0,0,1.291Z" transform="translate(4.099 2.815)" fill="#364d4b"/>
          <path id="Path_2065-2" data-name="Path 2065" d="M.645,2.582h.645v.645a.645.645,0,1,0,1.291,0V2.582h.645a.645.645,0,0,0,0-1.291H2.582V.645a.645.645,0,1,0-1.291,0v.645H.645a.645.645,0,0,0,0,1.291Z" transform="translate(19.202 9.076)" fill="#364d4b"/>
          <path id="Path_2066-2" data-name="Path 2066" d="M3.227,1.291H2.582V.645a.645.645,0,1,0-1.291,0v.645H.645a.645.645,0,0,0,0,1.291h.645v.645a.645.645,0,0,0,1.291,0V2.582h.645a.645.645,0,1,0,0-1.291Z" transform="translate(25.591 25.663)" fill="#364d4b"/>
          <path id="Path_2067-2" data-name="Path 2067" d="M1.936,3.873A1.936,1.936,0,1,0,0,1.936,1.938,1.938,0,0,0,1.936,3.873Zm0-2.582a.645.645,0,1,1-.645.645A.646.646,0,0,1,1.936,1.291Z" transform="translate(23.233 0)" fill="#364d4b"/>
          <path id="Path_2068-2" data-name="Path 2068" d="M1.936,0A1.936,1.936,0,1,0,3.873,1.936,1.939,1.939,0,0,0,1.936,0Zm0,2.582a.645.645,0,1,1,.645-.645A.646.646,0,0,1,1.936,2.582Z" transform="translate(27.269 11.206)" fill="#364d4b"/>
          <path id="Path_2069-2" data-name="Path 2069" d="M1.936,3.873A1.936,1.936,0,1,0,0,1.936,1.938,1.938,0,0,0,1.936,3.873Zm0-2.582a.645.645,0,1,1-.645.645A.646.646,0,0,1,1.936,1.291Z" transform="translate(10.876 2.299)" fill="#364d4b"/>
          <path id="Path_2070-2" data-name="Path 2070" d="M1.291.645a.645.645,0,1,0-.645.645A.647.647,0,0,0,1.291.645Z" transform="translate(27.701 18.334)" fill="#364d4b"/>
          <path id="Path_2071-2" data-name="Path 2071" d="M.645,1.291A.645.645,0,1,0,0,.645.647.647,0,0,0,.645,1.291Z" transform="translate(20.989 4.845)" fill="#364d4b"/>
          <path id="Path_2072-2" data-name="Path 2072" d="M.645,0a.645.645,0,1,0,.645.645A.647.647,0,0,0,.645,0Z" transform="translate(29.637 23.175)" fill="#364d4b"/>
          <path id="Path_2073-2" data-name="Path 2073" d="M.645,1.291A.645.645,0,1,0,0,.645.647.647,0,0,0,.645,1.291Z" transform="translate(8.338 0.646)" fill="#364d4b"/>
        </g>
      </g>
    </g>
    <g id="Group_403" data-name="Group 403" transform="translate(1038.796 -380.585) rotate(17)" opacity="0.9">
      <path id="Path_2058-3" data-name="Path 2058" d="M7.15.016l.271.025.271.033.1.016.1.016.1.02L8.08.143l.1.02L8.27.188l.1.02L8.46.233l.093.029.093.025L8.74.315l.089.029.089.033L9.01.409,9.1.441l.089.033.085.037.089.037.085.037.085.037.085.041L9.7.7l.085.041.081.045.085.045.081.045.077.045.081.049.081.045.077.049.077.053.077.049.077.053.073.053.073.053.073.057.073.053.073.057.069.057.073.061.085-.037.085-.033.085-.033.085-.033.089-.033.089-.029.085-.029.089-.029.089-.029.093-.025.089-.025.089-.02.093-.025.089-.02.093-.016.093-.02.089-.016.093-.016.093-.012.1-.016.093-.012.093-.008.093-.008.1-.008.093-.008.1,0,.1,0,.093,0h.291l.1,0,.1,0,.1,0,.1.008.1.008.1.008.1.012.1.012.1.012.271.045.263.057L15.6,1.3l.255.074.251.086.247.094.239.1.235.11.231.119.222.127.218.135.21.143.206.151.2.155.19.163.186.172.178.176.17.184L19,3.486l.154.192.146.2.141.208.129.208.121.217.113.221.105.225.1.229.085.233.077.237.069.237.061.245.049.245.036.245.028.253.02.253,0,.253,0,.257-.012.257-.024.257-.036.262-.044.237-.053.237-.061.241-.073.249-.077.245-.089.253-.1.249-.105.253-.113.253-.121.253-.129.253-.133.253-.146.249-.15.249-.158.245-.162.245-.17.241-.174.237-.182.233-.19.225-.19.225-.2.217-.2.208-.206.2-.214.2-.214.188-.222.18-.222.172-.231.163-.231.151-.235.143-.239.131-.239.123-.243.11-.247.1-.247.082-.251.074-.251.057-.255.045-.251.029h0v0l0,0,0,0-.008.008,0,0,0,0v0l0,0-.162.147L13,16.461l-.125.151-.113.159-.093.159-.081.159-.065.163-.057.168-.04.168-.032.168-.02.172-.012.172v.172l0,.176.012.176.02.176.02.18.028.18.028.176.036.184.032.18.036.18.036.18.032.184.032.18.028.184.028.18.02.18.016.18.012.184v.18l0,.176-.012.18-.024.176-.032.18-.044.176-.061.172-.069.172-.085.172-.1.172-.02.033-.024.037-.024.033-.024.033-.024.033-.028.029-.028.033-.024.029-.028.029L12.1,23.4l-.028.029-.028.029-.032.025-.032.029-.032.029-.028.025-.036.025-.032.025-.032.025-.036.025-.032.025-.036.025-.036.025-.032.02-.036.02-.036.025-.036.02-.036.02-.036.02-.04.02-.036.02-.036.016-.036.02-.04.016-.036.02-.036.016-.04.016-.036.016-.036.02-.04.016-.142.061-.133.069-.125.069-.109.074-.1.074-.093.078-.085.078-.073.082-.065.082-.057.086-.049.086-.04.086-.036.09-.024.094-.02.094-.016.094-.008.094v.1l0,.1.008.1.012.1.02.1.02.1.028.1.028.106.032.106.032.106.04.106.036.106.044.106.04.106.044.11.044.106.045.11.044.106.045.11.045.106.044.11.04.106.04.11.024.061L10.64,28l.008.057,0,.057v.057l-.008.057-.012.049-.016.053-.02.049-.024.045-.028.045-.032.041-.032.041-.036.037-.04.037-.044.033-.045.029-.044.025-.049.025-.049.02-.053.016-.053.016-.053.008-.053.008-.053,0H9.856l-.053,0-.053,0L9.7,28.786l-.053-.016-.049-.02-.044-.02L9.512,28.7l-.045-.033-.04-.037-.04-.041-.032-.045-.032-.053-.028-.053-.028-.061L9.2,28.209l-.065-.172-.069-.163-.065-.168-.065-.163-.065-.159-.065-.163-.061-.159-.061-.155-.061-.159L8.578,26.6l-.053-.155-.049-.151-.044-.151-.04-.147-.032-.147L8.331,25.7l-.024-.143-.016-.139-.012-.139,0-.139,0-.135.016-.135.02-.131.028-.127.04-.131.048-.123.061-.123.069-.123L8.642,24l.093-.119.105-.114.117-.11.129-.11.142-.11.158-.106.17-.1.186-.1.2-.1.218-.1.162-.074.146-.078.137-.086.121-.094.109-.094.1-.1.085-.106.077-.11.065-.114.057-.114.044-.123.04-.127.028-.127.02-.131.016-.135.008-.139v-.139l0-.143-.008-.143-.016-.143-.016-.147L11.3,20.31l-.024-.151-.028-.147-.028-.151-.032-.151-.032-.151-.036-.151-.032-.151-.032-.151-.032-.151-.032-.147-.028-.151-.024-.143-.024-.147-.02-.143-.016-.143-.012-.139-.008-.135v-.188l0-.053,0-.049,0-.053,0-.049,0-.053.008-.049.008-.049.012-.049.008-.049.012-.045.012-.049.012-.049.016-.045.012-.045L11,16.886l.016-.049.016-.045.02-.041.02-.045.02-.045.02-.045.02-.041.02-.045.024-.041.024-.041.024-.041.024-.041.024-.041.024-.041.028-.041.028-.041.028-.041.028-.037.028-.041.028-.037.028-.041.032-.037.032-.037.028-.037-.073-.029-.073-.029-.073-.029-.073-.033-.069-.033-.073-.033-.069-.037-.073-.037-.069-.037-.069-.041-.065-.041-.069-.041-.069-.041-.065-.045-.065-.045-.069-.045-.065-.045-.061-.049-.065-.049-.065-.053-.061-.049-.061-.053-.065-.053L9.973,14.9l-.057-.057-.061-.057L9.8,14.728l-.057-.057-.057-.061-.057-.057-.057-.061-.057-.065-.057-.061L9.4,14.3l-.057-.061-.053-.065L9.241,14.1l-.053-.065-.053-.069L9.087,13.9l-.069.045L8.95,14l-.065.045-.069.045-.069.045-.069.045-.069.041-.069.041-.069.041L8.4,14.34l-.069.041-.069.037-.069.037-.073.037-.069.037-.073.033-.069.033-.073.033-.073.033-.069.029-.073.033-.073.029-.073.025-.069.029-.073.025-.073.025-.073.02-.073.02-.077.02-.073.02-.073.02-.073.016-.073.016L6.677,15,6.6,15.01l-.073.012-.073.012-.077.008-.073.008-.077.008,0,0v0h0l0,0v0l0,0,0,0,0,0,0,0,0,0-.162.147-.146.155-.125.155-.109.155-.1.159-.081.163-.065.163-.053.163-.044.168-.028.168-.02.172-.012.172,0,.176,0,.172.012.176.02.18.024.176.024.18.032.18.032.18.036.18.032.18.036.18.032.184.032.18.032.184.024.18.024.18.016.184.008.18,0,.18,0,.176-.016.18-.024.18-.032.176-.045.176L5.5,21.5l-.073.176-.085.168-.1.172-.024.033-.024.037-.024.033-.024.033-.024.033-.028.029-.024.033-.028.029-.028.033-.028.029-.032.029-.028.029-.032.029-.028.025-.032.029L4.8,22.5l-.032.025-.036.029-.032.025-.032.025-.036.02-.032.025-.036.025-.036.02-.036.025-.036.02-.036.02-.036.02-.036.02-.036.02-.036.02-.04.016-.036.02-.036.02-.04.016-.036.016-.036.016-.04.02-.036.016L3.931,23l-.142.065-.133.065-.121.069-.113.074-.1.074-.093.078-.081.078-.077.082L3,23.665l-.057.086-.049.086-.04.086-.032.09-.028.094-.02.094-.012.094-.008.094,0,.1,0,.1.008.1.016.1.016.1.024.1.024.106.028.1.032.106.036.106.036.106.04.106.04.106.04.11.045.106.044.11.044.106.049.11.045.106.044.11.04.106.045.106.04.11.02.061.012.061.012.057v.114l-.008.057-.012.053-.016.049-.02.049-.024.045-.024.045-.032.045-.036.037-.036.037-.04.037-.04.033-.044.029-.049.025-.049.025-.048.02-.053.016-.048.016-.053.012-.053,0-.053,0H2.75l-.053,0-.053,0-.053-.012-.049-.016L2.5,27.69l-.049-.025L2.4,27.637,2.358,27.6l-.04-.037-.036-.041-.036-.045-.032-.053-.028-.053-.024-.061-.065-.168-.065-.168-.065-.168L1.9,26.644l-.069-.163-.065-.159-.061-.163L1.642,26l-.061-.155-.057-.155-.057-.155-.053-.155-.049-.151-.04-.147-.04-.151-.036-.143-.028-.147L1.2,24.495l-.016-.139-.012-.139v-.139l0-.135.012-.131.02-.135.028-.127.04-.127.049-.127.061-.123.069-.123.081-.119.093-.119.105-.114.117-.11.129-.11.142-.11.158-.106.17-.1.186-.1.2-.1.214-.094.162-.078.15-.078.133-.086.121-.094.109-.094.1-.1.089-.106.073-.11.065-.11L4.1,20.89l.049-.123.036-.127.028-.127.024-.131.012-.135.008-.139v-.139l0-.139-.008-.143-.016-.147-.016-.147-.024-.147L4.17,19.1l-.028-.147L4.113,18.8l-.032-.151L4.048,18.5l-.032-.151-.036-.151-.032-.151-.032-.151-.028-.147L3.858,17.6,3.83,17.45,3.806,17.3l-.02-.143-.016-.139-.012-.139,0-.139,0-.135,0-.053v-.049l0-.053,0-.053,0-.049.008-.049.008-.053.008-.049L3.8,16.15,3.81,16.1l.008-.045.012-.049.016-.045.012-.049.016-.045.016-.045.016-.045.016-.045.016-.045.02-.045.02-.045L4,15.557l.02-.045.024-.041.02-.045.024-.041.024-.041.024-.041.024-.041.028-.041.024-.041.028-.041.028-.037.028-.041.028-.041.028-.037.032-.037.028-.041.032-.037.032-.037-.243-.094-.231-.11-.231-.123-.222-.135-.214-.151-.21-.159-.2-.172-.2-.184-.19-.192-.186-.2L2.176,13.1l-.17-.221-.166-.229-.158-.237-.15-.245-.146-.249-.137-.257L1.12,11.4l-.125-.266-.117-.27-.109-.274L.663,10.31.57,10.028.481,9.746.4,9.46.328,9.178.259,8.892.2,8.606.15,8.32.105,8.038.069,7.756.04,7.478.02,7.2,0,6.931l0-.27L0,6.4l.008-.257.02-.253.024-.249.036-.241.049-.257L.2,4.883l.069-.249.077-.245.089-.241.1-.237.105-.229.117-.225.121-.221.133-.217.142-.208.15-.2.158-.2.162-.192.17-.18.182-.18L2.151,1.7l.194-.163.194-.155.206-.147.206-.143L3.171.956,3.389.83,3.616.711,3.842.6,4.077.5l.239-.09L4.558.327,4.8.253,5.055.188,5.31.135,5.565.086,5.824.049,6.087.025,6.349,0l.267,0h.267Zm6.378,2.431-.146.008-.146.012-.146.016-.146.02L12.8,2.53l-.142.029-.142.033-.137.037-.138.037-.138.045-.04.012-.04.012-.045.016-.04.012-.036.016-.04.016-.04.012-.04.016-.04.016-.04.016-.036.016-.04.02-.04.016-.036.016-.04.02-.04.016-.036.02L11.388,3l-.036.02-.036.02-.04.016-.036.02L11.2,3.1l-.036.02-.04.02-.036.02-.036.025-.036.02-.036.02-.036.025-.032.02-.036.025-.036.02-.036.025-.057.041-.061.041-.057.041-.061.041-.057.045-.057.045-.053.045-.057.045-.057.045-.053.049-.053.045-.053.049-.053.049-.048.049-.053.053-.049.049-.049.053L9.807,4.2l-.069.082-.069.082L9.6,4.446l-.065.086-.065.086-.061.09-.057.086-.061.094-.057.09-.053.094-.053.094-.048.094-.049.1-.044.1-.045.1-.04.1-.024.057-.02.057-.02.061-.02.057-.02.057L8.78,6l-.016.061-.02.057-.016.061-.016.061L8.7,6.3l-.012.057-.016.061-.012.061-.012.065-.012.061-.008.061-.008.045-.008.049,0,.045-.008.049,0,.045-.008.049,0,.049,0,.049,0,.049,0,.049,0,.049V7.25l0,.049,0,.049v.1l0,.053v.266l0,.09,0,.09,0,.09,0,.09.008.094,0,.09.008.094L8.6,8.5l.008.094.012.094.012.094.012.094.016.1.016.094.024.155.028.155.032.155.036.155.036.155L8.869,10l.04.155.045.155L9,10.462l.049.155.053.151.053.155.053.151.061.147.057.151.065.147.061.147.02.041.02.041.016.041.02.041.02.041.02.041.016.041.02.041.02.041.02.037.02.041.02.041.024.041.02.037.02.041.02.037.02.041.024.037.02.037.02.041.024.037.02.037.024.037.02.037.024.037.02.037.024.037.024.037.02.037.024.037.024.037.024.033.02.037.024.033.117.163.121.159.121.151.125.143.133.139.134.131.133.123.142.119.142.106.146.1.15.09.154.082.154.074.158.061.162.053.162.041.166.029.489.029.493-.065.493-.143.489-.212.481-.282.473-.343.461-.392.441-.433.417-.474.392-.5.364-.519.332-.539.291-.544.251-.544.21-.539.158-.519.105-.5.053-.478.008-.474-.04-.466-.085-.454L18.741,5.9l-.17-.425-.206-.409-.243-.384-.279-.368-.311-.339-.34-.311L16.82,3.38l-.4-.249-.425-.217-.453-.18-.469-.139L14.579,2.5l-.15-.02-.154-.016-.15-.012-.15-.008-.15,0h-.15ZM5.52,1.5l-.461.123-.445.159-.425.2-.4.233-.38.27-.356.3-.323.327-.3.356-.259.384-.226.409-.186.429-.146.454-.1.47-.057.507-.012.544.024.572.069.588.105.6.142.609.182.6.214.593.251.572.279.544.311.507.344.462.372.409.4.347.425.282.453.2.473.114.166.02.17.008h.17l.17-.016.17-.02.17-.033.17-.045.17-.053.17-.057.17-.069.17-.078.17-.086.166-.094.166-.1.166-.11.166-.114.162-.119-.174-.356-.162-.364-.146-.372-.137-.372-.121-.38-.109-.384-.1-.384-.081-.384-.069-.384-.057-.38-.04-.376-.028-.372L7.11,7.826V7.47l.016-.351.028-.335L7.2,6.457l.057-.3.069-.29.085-.286.1-.278.105-.274.121-.266.134-.257.146-.253.154-.245.166-.233.178-.229L8.7,3.326l.2-.212.206-.2.214-.192.222-.184.231-.176-.117-.082L9.528,2.2l-.121-.074-.125-.069-.125-.069-.129-.065L8.9,1.859,8.764,1.8l-.137-.053-.138-.053-.138-.045L8.21,1.6l-.146-.041-.146-.037-.146-.033-.15-.029-.15-.025-.5-.053-.493,0-.485.037Z" transform="translate(0 0)" fill="#364d4b"/>
      <path id="Path_2059-3" data-name="Path 2059" d="M1.267,5.282c.979-1.5,1.488-3.535.2-5.018C.863-.435-.334.4.277,1.1A2.735,2.735,0,0,1,.123,4.387C-.375,5.151.766,6.054,1.267,5.282Z" transform="translate(16.355 4.983)" fill="#364d4b" stroke="rgba(0,0,0,0)" stroke-width="1"/>
    </g>
    <g id="music-3" data-name="music" transform="translate(973.946 -392.752) rotate(19)" opacity="0.9">
      <g id="Group_386-3" data-name="Group 386" transform="translate(4.73 0)">
        <g id="Group_385-3" data-name="Group 385">
          <path id="Path_2074-3" data-name="Path 2074" d="M24.007.126a.66.66,0,0,0-.591-.094L6.106,5.646a.659.659,0,0,0-.456.627V21.114a4.643,4.643,0,0,0-.5-.027,5.263,5.263,0,0,0-2.622.721A5.111,5.111,0,0,0,.267,24.4a3.665,3.665,0,0,0,.2,3.169,3.83,3.83,0,0,0,3.4,1.817h0a5.256,5.256,0,0,0,2.618-.721,4.792,4.792,0,0,0,2.522-3.944q0-.021,0-.043V11.812L20.919,7.95v7.368a4.662,4.662,0,0,0-.5-.027,5.262,5.262,0,0,0-2.622.721c-2.229,1.287-3.154,3.872-2.062,5.764a3.831,3.831,0,0,0,3.4,1.817,5.256,5.256,0,0,0,2.618-.721,4.785,4.785,0,0,0,2.523-3.986V.659A.659.659,0,0,0,24.007.126ZM21.1,21.73a3.938,3.938,0,0,1-1.959.545,2.532,2.532,0,0,1-2.263-1.158c-.728-1.262-.02-3.04,1.58-3.963a3.944,3.944,0,0,1,1.963-.544,3.1,3.1,0,0,1,.958.146.659.659,0,0,0,.862-.627V7.043a.659.659,0,0,0-.862-.627L8.148,10.706a.659.659,0,0,0-.456.627V24.648c0,.009,0,.018,0,.028a3.515,3.515,0,0,1-1.864,2.85,3.937,3.937,0,0,1-1.959.545h0a2.532,2.532,0,0,1-2.263-1.158,2.372,2.372,0,0,1-.1-2.048,3.793,3.793,0,0,1,1.684-1.915,3.944,3.944,0,0,1,1.963-.544,3.1,3.1,0,0,1,.958.146.659.659,0,0,0,.862-.627V6.752L22.961,1.565V18.88A3.515,3.515,0,0,1,21.1,21.73Z" fill="#364d4b"/>
        </g>
      </g>
      <g id="Group_388-3" data-name="Group 388" transform="translate(25.401 23.342)">
        <g id="Group_387-3" data-name="Group 387">
          <path id="Path_2075-3" data-name="Path 2075" d="M8.3,5.112v0l-.005-.021,0-.018L7.059.488l0-.011c0-.012-.008-.025-.012-.037L7.033.412,7.021.383,7,.349,7,.338,6.991.326,6.97.292,6.954.27,6.932.24,6.912.218,6.89.194,6.865.171,6.843.152,6.816.13,6.792.113,6.764.1,6.737.08,6.709.066,6.678.051,6.653.041,6.617.029,6.594.022,6.554.013l-.022,0L6.492,0,6.468,0H6.4L6.368,0l-.035,0-.028,0L6.267.019l-.014,0-.011,0L6.205.037,6.176.048,6.148.061,6.113.078l-.01,0L1.579,2.6,1.567,2.6l-.035.022-.021.015-.029.023-.023.02-.023.022-.024.025-.018.021-.023.029L1.355,2.8l-.02.031-.014.024-.016.031-.012.028-.012.029c0,.01-.007.021-.011.032s-.006.018-.008.027-.006.023-.008.035l-.005.027c0,.012,0,.024,0,.036s0,.019,0,.028,0,.023,0,.034,0,.021,0,.032,0,.02,0,.03,0,.025,0,.037,0,.017,0,.026.005.027.009.04,0,.009,0,.014l.978,3.65a2.614,2.614,0,0,0-1.464.582A1.911,1.911,0,0,0,0,9.033a1.3,1.3,0,0,0,.5,1.031,1.672,1.672,0,0,0,1.049.336,2.589,2.589,0,0,0,1.6-.586,1.912,1.912,0,0,0,.776-1.458,1.361,1.361,0,0,0-.043-.332v0l0-.011L3.87,7.982,2.669,3.5,6.005,1.645,6.658,4.08a2.614,2.614,0,0,0-1.464.582A1.912,1.912,0,0,0,4.417,6.12a1.3,1.3,0,0,0,.5,1.031,1.672,1.672,0,0,0,1.049.336,2.589,2.589,0,0,0,1.6-.586,1.912,1.912,0,0,0,.776-1.458A1.365,1.365,0,0,0,8.3,5.112ZM2.318,8.79a1.287,1.287,0,0,1-.765.292.407.407,0,0,1-.234-.053h0A.658.658,0,0,1,1.607,8.6a1.287,1.287,0,0,1,.765-.292.407.407,0,0,1,.234.053h0A.658.658,0,0,1,2.318,8.79ZM6.735,5.877a1.288,1.288,0,0,1-.765.292.407.407,0,0,1-.234-.053h0a.658.658,0,0,1,.289-.428,1.287,1.287,0,0,1,.765-.292.407.407,0,0,1,.234.053h0A.659.659,0,0,1,6.735,5.877Z" fill="#364d4b"/>
        </g>
      </g>
      <g id="Group_390-3" data-name="Group 390" transform="translate(0 0)">
        <g id="Group_389-3" data-name="Group 389" transform="translate(0 0)">
          <path id="Path_2076-3" data-name="Path 2076" d="M9.551.088a.659.659,0,0,0-.9.241l-3.2,5.536A3.843,3.843,0,0,0,2.84,4.481a3.859,3.859,0,0,0-.4-.021,2.637,2.637,0,0,0-1.991.782,1.767,1.767,0,0,0-.438,1.4A3.332,3.332,0,0,0,3.1,9.127a3.86,3.86,0,0,0,.4.021,2.637,2.637,0,0,0,1.991-.782,1.82,1.82,0,0,0,.2-.275L5.7,8.078,9.792.989A.659.659,0,0,0,9.551.088ZM4.565,7.405l0,.006a.524.524,0,0,1-.059.08,1.545,1.545,0,0,1-1.267.325,2.1,2.1,0,0,1-1.914-1.33.442.442,0,0,1,.114-.369,1.367,1.367,0,0,1,1.006-.339,2.521,2.521,0,0,1,.261.014,2.1,2.1,0,0,1,1.914,1.33A.443.443,0,0,1,4.565,7.405Z" fill="#364d4b"/>
        </g>
      </g>
      <g id="Group_392-3" data-name="Group 392" transform="translate(21.767 3.957)">
        <g id="Group_391-3" data-name="Group 391">
          <path id="Path_2077-3" data-name="Path 2077" d="M3.858.456a.659.659,0,0,0-.83-.424L.456.866A.659.659,0,1,0,.862,2.12l2.572-.834A.659.659,0,0,0,3.858.456Z" fill="#364d4b"/>
        </g>
      </g>
      <g id="Group_394-3" data-name="Group 394" transform="translate(19.951 5.376)">
        <g id="Group_393-3" data-name="Group 393">
          <path id="Path_2078-3" data-name="Path 2078" d="M1.3.455A.659.659,0,0,0,.47.033l-.015,0A.659.659,0,1,0,.863,1.291l.015,0A.659.659,0,0,0,1.3.455Z" fill="#364d4b"/>
        </g>
      </g>
    </g>
    <g id="confetti-3" data-name="confetti" transform="translate(931.302 -375.055) rotate(7)" opacity="0.9">
      <g id="Group_384-3" data-name="Group 384" transform="translate(0 0)">
        <g id="Group_383-3" data-name="Group 383" transform="translate(0 0)">
          <path id="Path_2060-3" data-name="Path 2060" d="M22.323,18.192A17.283,17.283,0,0,1,26,16.945a.645.645,0,1,0-.267-1.263,18.762,18.762,0,0,0-4.242,1.476c-.794-.947-1.7-1.937-2.684-2.918-1.042-1.042-2.1-2-3.1-2.832a14.583,14.583,0,0,0,2.107-3.661,19.132,19.132,0,0,0,1.256-7.1.645.645,0,1,0-1.291,0,15.593,15.593,0,0,1-3.08,9.96c-.386-.294-.76-.565-1.117-.806C11.671,8.51,10.532,8.207,9.9,8.821l-.014.013,0,0h0a1.062,1.062,0,0,0-.3.6L.05,32.151A.645.645,0,0,0,.9,33h0l22.715-9.526a1.06,1.06,0,0,0,.553-.262l.032-.029.013-.012,0,0,.013-.014c.614-.637.311-1.776-.979-3.689C22.973,19.058,22.663,18.632,22.323,18.192ZM5.119,28.448a4.342,4.342,0,0,1-.578,1.619L1.851,31.2,4.583,24.68A7.171,7.171,0,0,1,5.119,28.448Zm3.972-2.184A4.135,4.135,0,0,1,7.944,28.64l-1.7.713a8.453,8.453,0,0,0-.984-6.287l1.934-4.612C9.2,22.259,9.351,24.78,9.091,26.264Zm2.3.929L10,27.777a6.516,6.516,0,0,0,.334-1.149c.517-2.637-.327-5.9-2.505-9.693l.7-1.665a10.957,10.957,0,0,1,1.438,2.2.645.645,0,1,0,1.186-.51,12.247,12.247,0,0,0-2.072-3.005l1.067-2.545c.187.343.418.718.7,1.13q.287.425.626.879A12.139,12.139,0,0,1,13.2,22.487,13.107,13.107,0,0,1,11.393,27.193Zm4.973-2.085L13.3,26.393a16.269,16.269,0,0,0,1.162-3.667,14.034,14.034,0,0,0-.123-5.934q.459.484.943.969c.965.965,1.94,1.861,2.873,2.646A6.4,6.4,0,0,1,16.366,25.108Zm2.225-.933a8.719,8.719,0,0,0,.787-2.787c.39.3.767.571,1.128.814.412.278.787.509,1.13.7Zm2.27-3.3a38.243,38.243,0,0,1-4.664-4.03,38.237,38.237,0,0,1-4.03-4.664,7.521,7.521,0,0,1-1.289-2.35,7.525,7.525,0,0,1,2.35,1.289c.2.143.408.295.619.455-.045.047-.09.094-.136.14a.645.645,0,1,0,.913.913q.122-.122.24-.246c.979.809,2.014,1.754,3.029,2.769.873.873,1.693,1.76,2.421,2.614q-.175.1-.35.2a.645.645,0,1,0,.645,1.118c.179-.1.358-.2.538-.3.28.356.541.7.776,1.034a7.52,7.52,0,0,1,1.289,2.35A7.525,7.525,0,0,1,20.861,20.879Z" fill="#364d4b"/>
          <path id="Path_2061-3" data-name="Path 2061" d="M1.234.381a.648.648,0,1,0,.022.055C1.25.419,1.242.4,1.234.381Z" transform="translate(10.441 18.242)" fill="#364d4b"/>
          <path id="Path_2062-3" data-name="Path 2062" d="M.189,3.529a.645.645,0,0,0,.913,0A9.186,9.186,0,0,1,6.586,1.289.645.645,0,1,0,6.482,0,10.519,10.519,0,0,0,.189,2.617.645.645,0,0,0,.189,3.529Z" transform="translate(23.913 6.455)" fill="#364d4b"/>
          <path id="Path_2063-3" data-name="Path 2063" d="M.857.034.8.019A.645.645,0,0,0,.49,1.272l.033.009A.645.645,0,1,0,.857.034Z" transform="translate(31.71 6.547)" fill="#364d4b"/>
          <path id="Path_2064-3" data-name="Path 2064" d="M.645,2.582h.645v.645a.645.645,0,1,0,1.291,0V2.582h.645a.645.645,0,1,0,0-1.291H2.582V.645a.645.645,0,1,0-1.291,0v.645H.645a.645.645,0,0,0,0,1.291Z" transform="translate(4.099 2.815)" fill="#364d4b"/>
          <path id="Path_2065-3" data-name="Path 2065" d="M.645,2.582h.645v.645a.645.645,0,1,0,1.291,0V2.582h.645a.645.645,0,0,0,0-1.291H2.582V.645a.645.645,0,1,0-1.291,0v.645H.645a.645.645,0,0,0,0,1.291Z" transform="translate(19.202 9.076)" fill="#364d4b"/>
          <path id="Path_2066-3" data-name="Path 2066" d="M3.227,1.291H2.582V.645a.645.645,0,1,0-1.291,0v.645H.645a.645.645,0,0,0,0,1.291h.645v.645a.645.645,0,0,0,1.291,0V2.582h.645a.645.645,0,1,0,0-1.291Z" transform="translate(25.591 25.663)" fill="#364d4b"/>
          <path id="Path_2067-3" data-name="Path 2067" d="M1.936,3.873A1.936,1.936,0,1,0,0,1.936,1.938,1.938,0,0,0,1.936,3.873Zm0-2.582a.645.645,0,1,1-.645.645A.646.646,0,0,1,1.936,1.291Z" transform="translate(23.233 0)" fill="#364d4b"/>
          <path id="Path_2068-3" data-name="Path 2068" d="M1.936,0A1.936,1.936,0,1,0,3.873,1.936,1.939,1.939,0,0,0,1.936,0Zm0,2.582a.645.645,0,1,1,.645-.645A.646.646,0,0,1,1.936,2.582Z" transform="translate(27.269 11.206)" fill="#364d4b"/>
          <path id="Path_2069-3" data-name="Path 2069" d="M1.936,3.873A1.936,1.936,0,1,0,0,1.936,1.938,1.938,0,0,0,1.936,3.873Zm0-2.582a.645.645,0,1,1-.645.645A.646.646,0,0,1,1.936,1.291Z" transform="translate(10.876 2.299)" fill="#364d4b"/>
          <path id="Path_2070-3" data-name="Path 2070" d="M1.291.645a.645.645,0,1,0-.645.645A.647.647,0,0,0,1.291.645Z" transform="translate(27.701 18.334)" fill="#364d4b"/>
          <path id="Path_2071-3" data-name="Path 2071" d="M.645,1.291A.645.645,0,1,0,0,.645.647.647,0,0,0,.645,1.291Z" transform="translate(20.989 4.845)" fill="#364d4b"/>
          <path id="Path_2072-3" data-name="Path 2072" d="M.645,0a.645.645,0,1,0,.645.645A.647.647,0,0,0,.645,0Z" transform="translate(29.637 23.175)" fill="#364d4b"/>
          <path id="Path_2073-3" data-name="Path 2073" d="M.645,1.291A.645.645,0,1,0,0,.645.647.647,0,0,0,.645,1.291Z" transform="translate(8.338 0.646)" fill="#364d4b"/>
        </g>
      </g>
    </g>
    <g id="party-hat-2" data-name="party-hat" transform="matrix(0.875, 0.485, -0.485, 0.875, 872.041, -383.055)">
      <g id="Group_396-2" data-name="Group 396" transform="translate(0 0)">
        <g id="Group_395-2" data-name="Group 395" transform="translate(0 0)">
          <path id="Path_2079-2" data-name="Path 2079" d="M24.947,31.24c0-.018,0-.035,0-.053s0-.015,0-.023,0-.027-.006-.04-.006-.024-.009-.036,0-.018-.007-.026-.01-.031-.016-.046l0-.013,0,0,0,0L13.941,4.215a2.364,2.364,0,1,0-2.934,0L9.661,7.505h0L.052,30.993l0,0,0,0,0,.012c-.006.015-.012.031-.017.047s0,.017-.007.026-.006.024-.009.036,0,.026-.006.04,0,.015,0,.023,0,.035,0,.053,0,.007,0,.01v0c0,.01,0,.019,0,.028.026.888,1.2,1.418,4.023,1.827a62.271,62.271,0,0,0,8.446.507h.005a62.275,62.275,0,0,0,8.448-.507c2.826-.408,4-.939,4.023-1.827,0-.009,0-.019,0-.028v0S24.947,31.244,24.947,31.24ZM12.474,1.313a1.051,1.051,0,1,1-1.051,1.051A1.052,1.052,0,0,1,12.474,1.313Zm-.252,3.4a2.345,2.345,0,0,0,.5,0l3.35,8.189a9.27,9.27,0,0,1-4.192-3.048,5.492,5.492,0,0,1-.939-2.019Zm-3.01,7.357,1-2.443a7.545,7.545,0,0,0,.548.911,10.971,10.971,0,0,0,5.982,3.99l2.5,6.117c-5.386-1.612-7.832-3.786-8.941-5.379A5.231,5.231,0,0,1,9.212,12.071Zm-.906,2.215A7.835,7.835,0,0,0,9.145,15.9,12,12,0,0,0,12.8,19.278a26.217,26.217,0,0,0,7.077,2.911l.689,1.683a18.89,18.89,0,0,1-1.876-.423.657.657,0,0,0-.353,1.265,18.932,18.932,0,0,0,2.806.568L22.4,28.354c-5.381-.617-9.576-2.623-12.481-5.97a13.854,13.854,0,0,1-2.851-5.064Zm-3.53,17.6a11.577,11.577,0,0,1-3.363-.748l1.3-3.183c.124.309.263.622.424.96a.657.657,0,1,0,1.185-.566,12.527,12.527,0,0,1-.846-2.259L4.044,24.7a12.893,12.893,0,0,0,.743,1.877,14.436,14.436,0,0,0,5.1,5.677C8,32.2,6.245,32.07,4.776,31.884Zm15.4,0a63.932,63.932,0,0,1-7.549.416A13.7,13.7,0,0,1,6,26.064a10.5,10.5,0,0,1-1.068-3.519l1.4-3.413a15.9,15.9,0,0,0,2.551,4.055,17.458,17.458,0,0,0,5.368,4.173A23.974,23.974,0,0,0,22.96,29.73l.575,1.406A11.581,11.581,0,0,1,20.172,31.884Z" fill="#364d4b"/>
        </g>
      </g>
      <g id="Group_398-2" data-name="Group 398" transform="translate(16.052 22.802)">
        <g id="Group_397-2" data-name="Group 397">
          <path id="Path_2080-2" data-name="Path 2080" d="M.925.058a.657.657,0,0,0-.542,1.2l.026.011A.657.657,0,0,0,.925.058Z" fill="#364d4b"/>
        </g>
      </g>
      <g id="Group_400-2" data-name="Group 400" transform="translate(3.997 29.638)">
        <g id="Group_399-2" data-name="Group 399" transform="translate(0 0)">
          <path id="Path_2081-2" data-name="Path 2081" d="M1.2.291a.657.657,0,0,0-1.1.718l.018.027A.657.657,0,0,0,1.2.291Z" fill="#364d4b"/>
        </g>
      </g>
    </g>
    <g id="party-hat-3" data-name="party-hat" transform="matrix(0.875, 0.485, -0.485, 0.875, 1009.571, -364.673)" opacity="0.9">
      <g id="Group_396-3" data-name="Group 396" transform="translate(0 0)">
        <g id="Group_395-3" data-name="Group 395" transform="translate(0 0)">
          <path id="Path_2079-3" data-name="Path 2079" d="M24.947,31.24c0-.018,0-.035,0-.053s0-.015,0-.023,0-.027-.006-.04-.006-.024-.009-.036,0-.018-.007-.026-.01-.031-.016-.046l0-.013,0,0,0,0L13.941,4.215a2.364,2.364,0,1,0-2.934,0L9.661,7.505h0L.052,30.993l0,0,0,0,0,.012c-.006.015-.012.031-.017.047s0,.017-.007.026-.006.024-.009.036,0,.026-.006.04,0,.015,0,.023,0,.035,0,.053,0,.007,0,.01v0c0,.01,0,.019,0,.028.026.888,1.2,1.418,4.023,1.827a62.271,62.271,0,0,0,8.446.507h.005a62.275,62.275,0,0,0,8.448-.507c2.826-.408,4-.939,4.023-1.827,0-.009,0-.019,0-.028v0S24.947,31.244,24.947,31.24ZM12.474,1.313a1.051,1.051,0,1,1-1.051,1.051A1.052,1.052,0,0,1,12.474,1.313Zm-.252,3.4a2.345,2.345,0,0,0,.5,0l3.35,8.189a9.27,9.27,0,0,1-4.192-3.048,5.492,5.492,0,0,1-.939-2.019Zm-3.01,7.357,1-2.443a7.545,7.545,0,0,0,.548.911,10.971,10.971,0,0,0,5.982,3.99l2.5,6.117c-5.386-1.612-7.832-3.786-8.941-5.379A5.231,5.231,0,0,1,9.212,12.071Zm-.906,2.215A7.835,7.835,0,0,0,9.145,15.9,12,12,0,0,0,12.8,19.278a26.217,26.217,0,0,0,7.077,2.911l.689,1.683a18.89,18.89,0,0,1-1.876-.423.657.657,0,0,0-.353,1.265,18.932,18.932,0,0,0,2.806.568L22.4,28.354c-5.381-.617-9.576-2.623-12.481-5.97a13.854,13.854,0,0,1-2.851-5.064Zm-3.53,17.6a11.577,11.577,0,0,1-3.363-.748l1.3-3.183c.124.309.263.622.424.96a.657.657,0,1,0,1.185-.566,12.527,12.527,0,0,1-.846-2.259L4.044,24.7a12.893,12.893,0,0,0,.743,1.877,14.436,14.436,0,0,0,5.1,5.677C8,32.2,6.245,32.07,4.776,31.884Zm15.4,0a63.932,63.932,0,0,1-7.549.416A13.7,13.7,0,0,1,6,26.064a10.5,10.5,0,0,1-1.068-3.519l1.4-3.413a15.9,15.9,0,0,0,2.551,4.055,17.458,17.458,0,0,0,5.368,4.173A23.974,23.974,0,0,0,22.96,29.73l.575,1.406A11.581,11.581,0,0,1,20.172,31.884Z" fill="#364d4b"/>
        </g>
      </g>
      <g id="Group_398-3" data-name="Group 398" transform="translate(16.052 22.802)">
        <g id="Group_397-3" data-name="Group 397">
          <path id="Path_2080-3" data-name="Path 2080" d="M.925.058a.657.657,0,0,0-.542,1.2l.026.011A.657.657,0,0,0,.925.058Z" fill="#364d4b"/>
        </g>
      </g>
      <g id="Group_400-3" data-name="Group 400" transform="translate(3.997 29.638)">
        <g id="Group_399-3" data-name="Group 399" transform="translate(0 0)">
          <path id="Path_2081-3" data-name="Path 2081" d="M1.2.291a.657.657,0,0,0-1.1.718l.018.027A.657.657,0,0,0,1.2.291Z" fill="#364d4b"/>
        </g>
      </g>
    </g>
    <g id="music-4" data-name="music" transform="translate(892.415 -348.134) rotate(19)">
      <g id="Group_386-4" data-name="Group 386" transform="translate(4.73 0)">
        <g id="Group_385-4" data-name="Group 385">
          <path id="Path_2074-4" data-name="Path 2074" d="M24.007.126a.66.66,0,0,0-.591-.094L6.106,5.646a.659.659,0,0,0-.456.627V21.114a4.643,4.643,0,0,0-.5-.027,5.263,5.263,0,0,0-2.622.721A5.111,5.111,0,0,0,.267,24.4a3.665,3.665,0,0,0,.2,3.169,3.83,3.83,0,0,0,3.4,1.817h0a5.256,5.256,0,0,0,2.618-.721,4.792,4.792,0,0,0,2.522-3.944q0-.021,0-.043V11.812L20.919,7.95v7.368a4.662,4.662,0,0,0-.5-.027,5.262,5.262,0,0,0-2.622.721c-2.229,1.287-3.154,3.872-2.062,5.764a3.831,3.831,0,0,0,3.4,1.817,5.256,5.256,0,0,0,2.618-.721,4.785,4.785,0,0,0,2.523-3.986V.659A.659.659,0,0,0,24.007.126ZM21.1,21.73a3.938,3.938,0,0,1-1.959.545,2.532,2.532,0,0,1-2.263-1.158c-.728-1.262-.02-3.04,1.58-3.963a3.944,3.944,0,0,1,1.963-.544,3.1,3.1,0,0,1,.958.146.659.659,0,0,0,.862-.627V7.043a.659.659,0,0,0-.862-.627L8.148,10.706a.659.659,0,0,0-.456.627V24.648c0,.009,0,.018,0,.028a3.515,3.515,0,0,1-1.864,2.85,3.937,3.937,0,0,1-1.959.545h0a2.532,2.532,0,0,1-2.263-1.158,2.372,2.372,0,0,1-.1-2.048,3.793,3.793,0,0,1,1.684-1.915,3.944,3.944,0,0,1,1.963-.544,3.1,3.1,0,0,1,.958.146.659.659,0,0,0,.862-.627V6.752L22.961,1.565V18.88A3.515,3.515,0,0,1,21.1,21.73Z" fill="#364d4b"/>
        </g>
      </g>
      <g id="Group_388-4" data-name="Group 388" transform="translate(25.401 23.342)">
        <g id="Group_387-4" data-name="Group 387">
          <path id="Path_2075-4" data-name="Path 2075" d="M8.3,5.112v0l-.005-.021,0-.018L7.059.488l0-.011c0-.012-.008-.025-.012-.037L7.033.412,7.021.383,7,.349,7,.338,6.991.326,6.97.292,6.954.27,6.932.24,6.912.218,6.89.194,6.865.171,6.843.152,6.816.13,6.792.113,6.764.1,6.737.08,6.709.066,6.678.051,6.653.041,6.617.029,6.594.022,6.554.013l-.022,0L6.492,0,6.468,0H6.4L6.368,0l-.035,0-.028,0L6.267.019l-.014,0-.011,0L6.205.037,6.176.048,6.148.061,6.113.078l-.01,0L1.579,2.6,1.567,2.6l-.035.022-.021.015-.029.023-.023.02-.023.022-.024.025-.018.021-.023.029L1.355,2.8l-.02.031-.014.024-.016.031-.012.028-.012.029c0,.01-.007.021-.011.032s-.006.018-.008.027-.006.023-.008.035l-.005.027c0,.012,0,.024,0,.036s0,.019,0,.028,0,.023,0,.034,0,.021,0,.032,0,.02,0,.03,0,.025,0,.037,0,.017,0,.026.005.027.009.04,0,.009,0,.014l.978,3.65a2.614,2.614,0,0,0-1.464.582A1.911,1.911,0,0,0,0,9.033a1.3,1.3,0,0,0,.5,1.031,1.672,1.672,0,0,0,1.049.336,2.589,2.589,0,0,0,1.6-.586,1.912,1.912,0,0,0,.776-1.458,1.361,1.361,0,0,0-.043-.332v0l0-.011L3.87,7.982,2.669,3.5,6.005,1.645,6.658,4.08a2.614,2.614,0,0,0-1.464.582A1.912,1.912,0,0,0,4.417,6.12a1.3,1.3,0,0,0,.5,1.031,1.672,1.672,0,0,0,1.049.336,2.589,2.589,0,0,0,1.6-.586,1.912,1.912,0,0,0,.776-1.458A1.365,1.365,0,0,0,8.3,5.112ZM2.318,8.79a1.287,1.287,0,0,1-.765.292.407.407,0,0,1-.234-.053h0A.658.658,0,0,1,1.607,8.6a1.287,1.287,0,0,1,.765-.292.407.407,0,0,1,.234.053h0A.658.658,0,0,1,2.318,8.79ZM6.735,5.877a1.288,1.288,0,0,1-.765.292.407.407,0,0,1-.234-.053h0a.658.658,0,0,1,.289-.428,1.287,1.287,0,0,1,.765-.292.407.407,0,0,1,.234.053h0A.659.659,0,0,1,6.735,5.877Z" fill="#364d4b"/>
        </g>
      </g>
      <g id="Group_390-4" data-name="Group 390" transform="translate(0 0)">
        <g id="Group_389-4" data-name="Group 389" transform="translate(0 0)">
          <path id="Path_2076-4" data-name="Path 2076" d="M9.551.088a.659.659,0,0,0-.9.241l-3.2,5.536A3.843,3.843,0,0,0,2.84,4.481a3.859,3.859,0,0,0-.4-.021,2.637,2.637,0,0,0-1.991.782,1.767,1.767,0,0,0-.438,1.4A3.332,3.332,0,0,0,3.1,9.127a3.86,3.86,0,0,0,.4.021,2.637,2.637,0,0,0,1.991-.782,1.82,1.82,0,0,0,.2-.275L5.7,8.078,9.792.989A.659.659,0,0,0,9.551.088ZM4.565,7.405l0,.006a.524.524,0,0,1-.059.08,1.545,1.545,0,0,1-1.267.325,2.1,2.1,0,0,1-1.914-1.33.442.442,0,0,1,.114-.369,1.367,1.367,0,0,1,1.006-.339,2.521,2.521,0,0,1,.261.014,2.1,2.1,0,0,1,1.914,1.33A.443.443,0,0,1,4.565,7.405Z" fill="#364d4b"/>
        </g>
      </g>
      <g id="Group_392-4" data-name="Group 392" transform="translate(21.767 3.957)">
        <g id="Group_391-4" data-name="Group 391">
          <path id="Path_2077-4" data-name="Path 2077" d="M3.858.456a.659.659,0,0,0-.83-.424L.456.866A.659.659,0,1,0,.862,2.12l2.572-.834A.659.659,0,0,0,3.858.456Z" fill="#364d4b"/>
        </g>
      </g>
      <g id="Group_394-4" data-name="Group 394" transform="translate(19.951 5.376)">
        <g id="Group_393-4" data-name="Group 393">
          <path id="Path_2078-4" data-name="Path 2078" d="M1.3.455A.659.659,0,0,0,.47.033l-.015,0A.659.659,0,1,0,.863,1.291l.015,0A.659.659,0,0,0,1.3.455Z" fill="#364d4b"/>
        </g>
      </g>
    </g>
    <g id="Group_402" data-name="Group 402" transform="translate(957.265 -335.967) rotate(17)">
      <path id="Path_2058-4" data-name="Path 2058" d="M7.15.016l.271.025.271.033.1.016.1.016.1.02L8.08.143l.1.02L8.27.188l.1.02L8.46.233l.093.029.093.025L8.74.315l.089.029.089.033L9.01.409,9.1.441l.089.033.085.037.089.037.085.037.085.037.085.041L9.7.7l.085.041.081.045.085.045.081.045.077.045.081.049.081.045.077.049.077.053.077.049.077.053.073.053.073.053.073.057.073.053.073.057.069.057.073.061.085-.037.085-.033.085-.033.085-.033.089-.033.089-.029.085-.029.089-.029.089-.029.093-.025.089-.025.089-.02.093-.025.089-.02.093-.016.093-.02.089-.016.093-.016.093-.012.1-.016.093-.012.093-.008.093-.008.1-.008.093-.008.1,0,.1,0,.093,0h.291l.1,0,.1,0,.1,0,.1.008.1.008.1.008.1.012.1.012.1.012.271.045.263.057L15.6,1.3l.255.074.251.086.247.094.239.1.235.11.231.119.222.127.218.135.21.143.206.151.2.155.19.163.186.172.178.176.17.184L19,3.486l.154.192.146.2.141.208.129.208.121.217.113.221.105.225.1.229.085.233.077.237.069.237.061.245.049.245.036.245.028.253.02.253,0,.253,0,.257-.012.257-.024.257-.036.262-.044.237-.053.237-.061.241-.073.249-.077.245-.089.253-.1.249-.105.253-.113.253-.121.253-.129.253-.133.253-.146.249-.15.249-.158.245-.162.245-.17.241-.174.237-.182.233-.19.225-.19.225-.2.217-.2.208-.206.2-.214.2-.214.188-.222.18-.222.172-.231.163-.231.151-.235.143-.239.131-.239.123-.243.11-.247.1-.247.082-.251.074-.251.057-.255.045-.251.029h0v0l0,0,0,0-.008.008,0,0,0,0v0l0,0-.162.147L13,16.461l-.125.151-.113.159-.093.159-.081.159-.065.163-.057.168-.04.168-.032.168-.02.172-.012.172v.172l0,.176.012.176.02.176.02.18.028.18.028.176.036.184.032.18.036.18.036.18.032.184.032.18.028.184.028.18.02.18.016.18.012.184v.18l0,.176-.012.18-.024.176-.032.18-.044.176-.061.172-.069.172-.085.172-.1.172-.02.033-.024.037-.024.033-.024.033-.024.033-.028.029-.028.033-.024.029-.028.029L12.1,23.4l-.028.029-.028.029-.032.025-.032.029-.032.029-.028.025-.036.025-.032.025-.032.025-.036.025-.032.025-.036.025-.036.025-.032.02-.036.02-.036.025-.036.02-.036.02-.036.02-.04.02-.036.02-.036.016-.036.02-.04.016-.036.02-.036.016-.04.016-.036.016-.036.02-.04.016-.142.061-.133.069-.125.069-.109.074-.1.074-.093.078-.085.078-.073.082-.065.082-.057.086-.049.086-.04.086-.036.09-.024.094-.02.094-.016.094-.008.094v.1l0,.1.008.1.012.1.02.1.02.1.028.1.028.106.032.106.032.106.04.106.036.106.044.106.04.106.044.11.044.106.045.11.044.106.045.11.045.106.044.11.04.106.04.11.024.061L10.64,28l.008.057,0,.057v.057l-.008.057-.012.049-.016.053-.02.049-.024.045-.028.045-.032.041-.032.041-.036.037-.04.037-.044.033-.045.029-.044.025-.049.025-.049.02-.053.016-.053.016-.053.008-.053.008-.053,0H9.856l-.053,0-.053,0L9.7,28.786l-.053-.016-.049-.02-.044-.02L9.512,28.7l-.045-.033-.04-.037-.04-.041-.032-.045-.032-.053-.028-.053-.028-.061L9.2,28.209l-.065-.172-.069-.163-.065-.168-.065-.163-.065-.159-.065-.163-.061-.159-.061-.155-.061-.159L8.578,26.6l-.053-.155-.049-.151-.044-.151-.04-.147-.032-.147L8.331,25.7l-.024-.143-.016-.139-.012-.139,0-.139,0-.135.016-.135.02-.131.028-.127.04-.131.048-.123.061-.123.069-.123L8.642,24l.093-.119.105-.114.117-.11.129-.11.142-.11.158-.106.17-.1.186-.1.2-.1.218-.1.162-.074.146-.078.137-.086.121-.094.109-.094.1-.1.085-.106.077-.11.065-.114.057-.114.044-.123.04-.127.028-.127.02-.131.016-.135.008-.139v-.139l0-.143-.008-.143-.016-.143-.016-.147L11.3,20.31l-.024-.151-.028-.147-.028-.151-.032-.151-.032-.151-.036-.151-.032-.151-.032-.151-.032-.151-.032-.147-.028-.151-.024-.143-.024-.147-.02-.143-.016-.143-.012-.139-.008-.135v-.188l0-.053,0-.049,0-.053,0-.049,0-.053.008-.049.008-.049.012-.049.008-.049.012-.045.012-.049.012-.049.016-.045.012-.045L11,16.886l.016-.049.016-.045.02-.041.02-.045.02-.045.02-.045.02-.041.02-.045.024-.041.024-.041.024-.041.024-.041.024-.041.024-.041.028-.041.028-.041.028-.041.028-.037.028-.041.028-.037.028-.041.032-.037.032-.037.028-.037-.073-.029-.073-.029-.073-.029-.073-.033-.069-.033-.073-.033-.069-.037-.073-.037-.069-.037-.069-.041-.065-.041-.069-.041-.069-.041-.065-.045-.065-.045-.069-.045-.065-.045-.061-.049-.065-.049-.065-.053-.061-.049-.061-.053-.065-.053L9.973,14.9l-.057-.057-.061-.057L9.8,14.728l-.057-.057-.057-.061-.057-.057-.057-.061-.057-.065-.057-.061L9.4,14.3l-.057-.061-.053-.065L9.241,14.1l-.053-.065-.053-.069L9.087,13.9l-.069.045L8.95,14l-.065.045-.069.045-.069.045-.069.045-.069.041-.069.041-.069.041L8.4,14.34l-.069.041-.069.037-.069.037-.073.037-.069.037-.073.033-.069.033-.073.033-.073.033-.069.029-.073.033-.073.029-.073.025-.069.029-.073.025-.073.025-.073.02-.073.02-.077.02-.073.02-.073.02-.073.016-.073.016L6.677,15,6.6,15.01l-.073.012-.073.012-.077.008-.073.008-.077.008,0,0v0h0l0,0v0l0,0,0,0,0,0,0,0,0,0-.162.147-.146.155-.125.155-.109.155-.1.159-.081.163-.065.163-.053.163-.044.168-.028.168-.02.172-.012.172,0,.176,0,.172.012.176.02.18.024.176.024.18.032.18.032.18.036.18.032.18.036.18.032.184.032.18.032.184.024.18.024.18.016.184.008.18,0,.18,0,.176-.016.18-.024.18-.032.176-.045.176L5.5,21.5l-.073.176-.085.168-.1.172-.024.033-.024.037-.024.033-.024.033-.024.033-.028.029-.024.033-.028.029-.028.033-.028.029-.032.029-.028.029-.032.029-.028.025-.032.029L4.8,22.5l-.032.025-.036.029-.032.025-.032.025-.036.02-.032.025-.036.025-.036.02-.036.025-.036.02-.036.02-.036.02-.036.02-.036.02-.036.02-.04.016-.036.02-.036.02-.04.016-.036.016-.036.016-.04.02-.036.016L3.931,23l-.142.065-.133.065-.121.069-.113.074-.1.074-.093.078-.081.078-.077.082L3,23.665l-.057.086-.049.086-.04.086-.032.09-.028.094-.02.094-.012.094-.008.094,0,.1,0,.1.008.1.016.1.016.1.024.1.024.106.028.1.032.106.036.106.036.106.04.106.04.106.04.11.045.106.044.11.044.106.049.11.045.106.044.11.04.106.045.106.04.11.02.061.012.061.012.057v.114l-.008.057-.012.053-.016.049-.02.049-.024.045-.024.045-.032.045-.036.037-.036.037-.04.037-.04.033-.044.029-.049.025-.049.025-.048.02-.053.016-.048.016-.053.012-.053,0-.053,0H2.75l-.053,0-.053,0-.053-.012-.049-.016L2.5,27.69l-.049-.025L2.4,27.637,2.358,27.6l-.04-.037-.036-.041-.036-.045-.032-.053-.028-.053-.024-.061-.065-.168-.065-.168-.065-.168L1.9,26.644l-.069-.163-.065-.159-.061-.163L1.642,26l-.061-.155-.057-.155-.057-.155-.053-.155-.049-.151-.04-.147-.04-.151-.036-.143-.028-.147L1.2,24.495l-.016-.139-.012-.139v-.139l0-.135.012-.131.02-.135.028-.127.04-.127.049-.127.061-.123.069-.123.081-.119.093-.119.105-.114.117-.11.129-.11.142-.11.158-.106.17-.1.186-.1.2-.1.214-.094.162-.078.15-.078.133-.086.121-.094.109-.094.1-.1.089-.106.073-.11.065-.11L4.1,20.89l.049-.123.036-.127.028-.127.024-.131.012-.135.008-.139v-.139l0-.139-.008-.143-.016-.147-.016-.147-.024-.147L4.17,19.1l-.028-.147L4.113,18.8l-.032-.151L4.048,18.5l-.032-.151-.036-.151-.032-.151-.032-.151-.028-.147L3.858,17.6,3.83,17.45,3.806,17.3l-.02-.143-.016-.139-.012-.139,0-.139,0-.135,0-.053v-.049l0-.053,0-.053,0-.049.008-.049.008-.053.008-.049L3.8,16.15,3.81,16.1l.008-.045.012-.049.016-.045.012-.049.016-.045.016-.045.016-.045.016-.045.016-.045.02-.045.02-.045L4,15.557l.02-.045.024-.041.02-.045.024-.041.024-.041.024-.041.024-.041.028-.041.024-.041.028-.041.028-.037.028-.041.028-.041.028-.037.032-.037.028-.041.032-.037.032-.037-.243-.094-.231-.11-.231-.123-.222-.135-.214-.151-.21-.159-.2-.172-.2-.184-.19-.192-.186-.2L2.176,13.1l-.17-.221-.166-.229-.158-.237-.15-.245-.146-.249-.137-.257L1.12,11.4l-.125-.266-.117-.27-.109-.274L.663,10.31.57,10.028.481,9.746.4,9.46.328,9.178.259,8.892.2,8.606.15,8.32.105,8.038.069,7.756.04,7.478.02,7.2,0,6.931l0-.27L0,6.4l.008-.257.02-.253.024-.249.036-.241.049-.257L.2,4.883l.069-.249.077-.245.089-.241.1-.237.105-.229.117-.225.121-.221.133-.217.142-.208.15-.2.158-.2.162-.192.17-.18.182-.18L2.151,1.7l.194-.163.194-.155.206-.147.206-.143L3.171.956,3.389.83,3.616.711,3.842.6,4.077.5l.239-.09L4.558.327,4.8.253,5.055.188,5.31.135,5.565.086,5.824.049,6.087.025,6.349,0l.267,0h.267Zm6.378,2.431-.146.008-.146.012-.146.016-.146.02L12.8,2.53l-.142.029-.142.033-.137.037-.138.037-.138.045-.04.012-.04.012-.045.016-.04.012-.036.016-.04.016-.04.012-.04.016-.04.016-.04.016-.036.016-.04.02-.04.016-.036.016-.04.02-.04.016-.036.02L11.388,3l-.036.02-.036.02-.04.016-.036.02L11.2,3.1l-.036.02-.04.02-.036.02-.036.025-.036.02-.036.02-.036.025-.032.02-.036.025-.036.02-.036.025-.057.041-.061.041-.057.041-.061.041-.057.045-.057.045-.053.045-.057.045-.057.045-.053.049-.053.045-.053.049-.053.049-.048.049-.053.053-.049.049-.049.053L9.807,4.2l-.069.082-.069.082L9.6,4.446l-.065.086-.065.086-.061.09-.057.086-.061.094-.057.09-.053.094-.053.094-.048.094-.049.1-.044.1-.045.1-.04.1-.024.057-.02.057-.02.061-.02.057-.02.057L8.78,6l-.016.061-.02.057-.016.061-.016.061L8.7,6.3l-.012.057-.016.061-.012.061-.012.065-.012.061-.008.061-.008.045-.008.049,0,.045-.008.049,0,.045-.008.049,0,.049,0,.049,0,.049,0,.049,0,.049V7.25l0,.049,0,.049v.1l0,.053v.266l0,.09,0,.09,0,.09,0,.09.008.094,0,.09.008.094L8.6,8.5l.008.094.012.094.012.094.012.094.016.1.016.094.024.155.028.155.032.155.036.155.036.155L8.869,10l.04.155.045.155L9,10.462l.049.155.053.151.053.155.053.151.061.147.057.151.065.147.061.147.02.041.02.041.016.041.02.041.02.041.02.041.016.041.02.041.02.041.02.037.02.041.02.041.024.041.02.037.02.041.02.037.02.041.024.037.02.037.02.041.024.037.02.037.024.037.02.037.024.037.02.037.024.037.024.037.02.037.024.037.024.037.024.033.02.037.024.033.117.163.121.159.121.151.125.143.133.139.134.131.133.123.142.119.142.106.146.1.15.09.154.082.154.074.158.061.162.053.162.041.166.029.489.029.493-.065.493-.143.489-.212.481-.282.473-.343.461-.392.441-.433.417-.474.392-.5.364-.519.332-.539.291-.544.251-.544.21-.539.158-.519.105-.5.053-.478.008-.474-.04-.466-.085-.454L18.741,5.9l-.17-.425-.206-.409-.243-.384-.279-.368-.311-.339-.34-.311L16.82,3.38l-.4-.249-.425-.217-.453-.18-.469-.139L14.579,2.5l-.15-.02-.154-.016-.15-.012-.15-.008-.15,0h-.15ZM5.52,1.5l-.461.123-.445.159-.425.2-.4.233-.38.27-.356.3-.323.327-.3.356-.259.384-.226.409-.186.429-.146.454-.1.47-.057.507-.012.544.024.572.069.588.105.6.142.609.182.6.214.593.251.572.279.544.311.507.344.462.372.409.4.347.425.282.453.2.473.114.166.02.17.008h.17l.17-.016.17-.02.17-.033.17-.045.17-.053.17-.057.17-.069.17-.078.17-.086.166-.094.166-.1.166-.11.166-.114.162-.119-.174-.356-.162-.364-.146-.372-.137-.372-.121-.38-.109-.384-.1-.384-.081-.384-.069-.384-.057-.38-.04-.376-.028-.372L7.11,7.826V7.47l.016-.351.028-.335L7.2,6.457l.057-.3.069-.29.085-.286.1-.278.105-.274.121-.266.134-.257.146-.253.154-.245.166-.233.178-.229L8.7,3.326l.2-.212.206-.2.214-.192.222-.184.231-.176-.117-.082L9.528,2.2l-.121-.074-.125-.069-.125-.069-.129-.065L8.9,1.859,8.764,1.8l-.137-.053-.138-.053-.138-.045L8.21,1.6l-.146-.041-.146-.037-.146-.033-.15-.029-.15-.025-.5-.053-.493,0-.485.037Z" transform="translate(0 0)" fill="#364d4b"/>
      <path id="Path_2059-4" data-name="Path 2059" d="M1.267,5.282c.979-1.5,1.488-3.535.2-5.018C.863-.435-.334.4.277,1.1A2.735,2.735,0,0,1,.123,4.387C-.375,5.151.766,6.054,1.267,5.282Z" transform="translate(16.355 4.983)" fill="#364d4b" stroke="rgba(0,0,0,0)" stroke-width="1"/>
    </g>
    <g id="confetti-4" data-name="confetti" transform="translate(849.772 -330.436) rotate(7)">
      <g id="Group_384-4" data-name="Group 384" transform="translate(0 0)">
        <g id="Group_383-4" data-name="Group 383" transform="translate(0 0)">
          <path id="Path_2060-4" data-name="Path 2060" d="M22.323,18.192A17.283,17.283,0,0,1,26,16.945a.645.645,0,1,0-.267-1.263,18.762,18.762,0,0,0-4.242,1.476c-.794-.947-1.7-1.937-2.684-2.918-1.042-1.042-2.1-2-3.1-2.832a14.583,14.583,0,0,0,2.107-3.661,19.132,19.132,0,0,0,1.256-7.1.645.645,0,1,0-1.291,0,15.593,15.593,0,0,1-3.08,9.96c-.386-.294-.76-.565-1.117-.806C11.671,8.51,10.532,8.207,9.9,8.821l-.014.013,0,0h0a1.062,1.062,0,0,0-.3.6L.05,32.151A.645.645,0,0,0,.9,33h0l22.715-9.526a1.06,1.06,0,0,0,.553-.262l.032-.029.013-.012,0,0,.013-.014c.614-.637.311-1.776-.979-3.689C22.973,19.058,22.663,18.632,22.323,18.192ZM5.119,28.448a4.342,4.342,0,0,1-.578,1.619L1.851,31.2,4.583,24.68A7.171,7.171,0,0,1,5.119,28.448Zm3.972-2.184A4.135,4.135,0,0,1,7.944,28.64l-1.7.713a8.453,8.453,0,0,0-.984-6.287l1.934-4.612C9.2,22.259,9.351,24.78,9.091,26.264Zm2.3.929L10,27.777a6.516,6.516,0,0,0,.334-1.149c.517-2.637-.327-5.9-2.505-9.693l.7-1.665a10.957,10.957,0,0,1,1.438,2.2.645.645,0,1,0,1.186-.51,12.247,12.247,0,0,0-2.072-3.005l1.067-2.545c.187.343.418.718.7,1.13q.287.425.626.879A12.139,12.139,0,0,1,13.2,22.487,13.107,13.107,0,0,1,11.393,27.193Zm4.973-2.085L13.3,26.393a16.269,16.269,0,0,0,1.162-3.667,14.034,14.034,0,0,0-.123-5.934q.459.484.943.969c.965.965,1.94,1.861,2.873,2.646A6.4,6.4,0,0,1,16.366,25.108Zm2.225-.933a8.719,8.719,0,0,0,.787-2.787c.39.3.767.571,1.128.814.412.278.787.509,1.13.7Zm2.27-3.3a38.243,38.243,0,0,1-4.664-4.03,38.237,38.237,0,0,1-4.03-4.664,7.521,7.521,0,0,1-1.289-2.35,7.525,7.525,0,0,1,2.35,1.289c.2.143.408.295.619.455-.045.047-.09.094-.136.14a.645.645,0,1,0,.913.913q.122-.122.24-.246c.979.809,2.014,1.754,3.029,2.769.873.873,1.693,1.76,2.421,2.614q-.175.1-.35.2a.645.645,0,1,0,.645,1.118c.179-.1.358-.2.538-.3.28.356.541.7.776,1.034a7.52,7.52,0,0,1,1.289,2.35A7.525,7.525,0,0,1,20.861,20.879Z" fill="#364d4b"/>
          <path id="Path_2061-4" data-name="Path 2061" d="M1.234.381a.648.648,0,1,0,.022.055C1.25.419,1.242.4,1.234.381Z" transform="translate(10.441 18.242)" fill="#364d4b"/>
          <path id="Path_2062-4" data-name="Path 2062" d="M.189,3.529a.645.645,0,0,0,.913,0A9.186,9.186,0,0,1,6.586,1.289.645.645,0,1,0,6.482,0,10.519,10.519,0,0,0,.189,2.617.645.645,0,0,0,.189,3.529Z" transform="translate(23.913 6.455)" fill="#364d4b"/>
          <path id="Path_2063-4" data-name="Path 2063" d="M.857.034.8.019A.645.645,0,0,0,.49,1.272l.033.009A.645.645,0,1,0,.857.034Z" transform="translate(31.71 6.547)" fill="#364d4b"/>
          <path id="Path_2064-4" data-name="Path 2064" d="M.645,2.582h.645v.645a.645.645,0,1,0,1.291,0V2.582h.645a.645.645,0,1,0,0-1.291H2.582V.645a.645.645,0,1,0-1.291,0v.645H.645a.645.645,0,0,0,0,1.291Z" transform="translate(4.099 2.815)" fill="#364d4b"/>
          <path id="Path_2065-4" data-name="Path 2065" d="M.645,2.582h.645v.645a.645.645,0,1,0,1.291,0V2.582h.645a.645.645,0,0,0,0-1.291H2.582V.645a.645.645,0,1,0-1.291,0v.645H.645a.645.645,0,0,0,0,1.291Z" transform="translate(19.202 9.076)" fill="#364d4b"/>
          <path id="Path_2066-4" data-name="Path 2066" d="M3.227,1.291H2.582V.645a.645.645,0,1,0-1.291,0v.645H.645a.645.645,0,0,0,0,1.291h.645v.645a.645.645,0,0,0,1.291,0V2.582h.645a.645.645,0,1,0,0-1.291Z" transform="translate(25.591 25.663)" fill="#364d4b"/>
          <path id="Path_2067-4" data-name="Path 2067" d="M1.936,3.873A1.936,1.936,0,1,0,0,1.936,1.938,1.938,0,0,0,1.936,3.873Zm0-2.582a.645.645,0,1,1-.645.645A.646.646,0,0,1,1.936,1.291Z" transform="translate(23.233 0)" fill="#364d4b"/>
          <path id="Path_2068-4" data-name="Path 2068" d="M1.936,0A1.936,1.936,0,1,0,3.873,1.936,1.939,1.939,0,0,0,1.936,0Zm0,2.582a.645.645,0,1,1,.645-.645A.646.646,0,0,1,1.936,2.582Z" transform="translate(27.269 11.206)" fill="#364d4b"/>
          <path id="Path_2069-4" data-name="Path 2069" d="M1.936,3.873A1.936,1.936,0,1,0,0,1.936,1.938,1.938,0,0,0,1.936,3.873Zm0-2.582a.645.645,0,1,1-.645.645A.646.646,0,0,1,1.936,1.291Z" transform="translate(10.876 2.299)" fill="#364d4b"/>
          <path id="Path_2070-4" data-name="Path 2070" d="M1.291.645a.645.645,0,1,0-.645.645A.647.647,0,0,0,1.291.645Z" transform="translate(27.701 18.334)" fill="#364d4b"/>
          <path id="Path_2071-4" data-name="Path 2071" d="M.645,1.291A.645.645,0,1,0,0,.645.647.647,0,0,0,.645,1.291Z" transform="translate(20.989 4.845)" fill="#364d4b"/>
          <path id="Path_2072-4" data-name="Path 2072" d="M.645,0a.645.645,0,1,0,.645.645A.647.647,0,0,0,.645,0Z" transform="translate(29.637 23.175)" fill="#364d4b"/>
          <path id="Path_2073-4" data-name="Path 2073" d="M.645,1.291A.645.645,0,1,0,0,.645.647.647,0,0,0,.645,1.291Z" transform="translate(8.338 0.646)" fill="#364d4b"/>
        </g>
      </g>
    </g>
    <g id="party-hat-4" data-name="party-hat" transform="matrix(0.875, 0.485, -0.485, 0.875, 928.041, -320.055)">
      <g id="Group_396-4" data-name="Group 396" transform="translate(0 0)">
        <g id="Group_395-4" data-name="Group 395" transform="translate(0 0)">
          <path id="Path_2079-4" data-name="Path 2079" d="M24.947,31.24c0-.018,0-.035,0-.053s0-.015,0-.023,0-.027-.006-.04-.006-.024-.009-.036,0-.018-.007-.026-.01-.031-.016-.046l0-.013,0,0,0,0L13.941,4.215a2.364,2.364,0,1,0-2.934,0L9.661,7.505h0L.052,30.993l0,0,0,0,0,.012c-.006.015-.012.031-.017.047s0,.017-.007.026-.006.024-.009.036,0,.026-.006.04,0,.015,0,.023,0,.035,0,.053,0,.007,0,.01v0c0,.01,0,.019,0,.028.026.888,1.2,1.418,4.023,1.827a62.271,62.271,0,0,0,8.446.507h.005a62.275,62.275,0,0,0,8.448-.507c2.826-.408,4-.939,4.023-1.827,0-.009,0-.019,0-.028v0S24.947,31.244,24.947,31.24ZM12.474,1.313a1.051,1.051,0,1,1-1.051,1.051A1.052,1.052,0,0,1,12.474,1.313Zm-.252,3.4a2.345,2.345,0,0,0,.5,0l3.35,8.189a9.27,9.27,0,0,1-4.192-3.048,5.492,5.492,0,0,1-.939-2.019Zm-3.01,7.357,1-2.443a7.545,7.545,0,0,0,.548.911,10.971,10.971,0,0,0,5.982,3.99l2.5,6.117c-5.386-1.612-7.832-3.786-8.941-5.379A5.231,5.231,0,0,1,9.212,12.071Zm-.906,2.215A7.835,7.835,0,0,0,9.145,15.9,12,12,0,0,0,12.8,19.278a26.217,26.217,0,0,0,7.077,2.911l.689,1.683a18.89,18.89,0,0,1-1.876-.423.657.657,0,0,0-.353,1.265,18.932,18.932,0,0,0,2.806.568L22.4,28.354c-5.381-.617-9.576-2.623-12.481-5.97a13.854,13.854,0,0,1-2.851-5.064Zm-3.53,17.6a11.577,11.577,0,0,1-3.363-.748l1.3-3.183c.124.309.263.622.424.96a.657.657,0,1,0,1.185-.566,12.527,12.527,0,0,1-.846-2.259L4.044,24.7a12.893,12.893,0,0,0,.743,1.877,14.436,14.436,0,0,0,5.1,5.677C8,32.2,6.245,32.07,4.776,31.884Zm15.4,0a63.932,63.932,0,0,1-7.549.416A13.7,13.7,0,0,1,6,26.064a10.5,10.5,0,0,1-1.068-3.519l1.4-3.413a15.9,15.9,0,0,0,2.551,4.055,17.458,17.458,0,0,0,5.368,4.173A23.974,23.974,0,0,0,22.96,29.73l.575,1.406A11.581,11.581,0,0,1,20.172,31.884Z" fill="#364d4b"/>
        </g>
      </g>
      <g id="Group_398-4" data-name="Group 398" transform="translate(16.052 22.802)">
        <g id="Group_397-4" data-name="Group 397">
          <path id="Path_2080-4" data-name="Path 2080" d="M.925.058a.657.657,0,0,0-.542,1.2l.026.011A.657.657,0,0,0,.925.058Z" fill="#364d4b"/>
        </g>
      </g>
      <g id="Group_400-4" data-name="Group 400" transform="translate(3.997 29.638)">
        <g id="Group_399-4" data-name="Group 399" transform="translate(0 0)">
          <path id="Path_2081-4" data-name="Path 2081" d="M1.2.291a.657.657,0,0,0-1.1.718l.018.027A.657.657,0,0,0,1.2.291Z" fill="#364d4b"/>
        </g>
      </g>
    </g>
  </g>
</svg>
