<svg xmlns="http://www.w3.org/2000/svg" width="23.731" height="29.346" viewBox="0 0 23.731 29.346">
  <g id="delete-button" transform="translate(-46.155)">
    <g id="Group_417" data-name="Group 417" transform="translate(46.155)">
      <path id="Path_2099" data-name="Path 2099" d="M66.534,3.516H61.966a3.971,3.971,0,0,0-7.89,0H49.507a3.356,3.356,0,0,0-3.352,3.353v.172a3.356,3.356,0,0,0,2.119,3.114V25.993a3.357,3.357,0,0,0,3.352,3.353H64.415a3.356,3.356,0,0,0,3.352-3.353V10.155a3.356,3.356,0,0,0,2.119-3.114V6.869A3.357,3.357,0,0,0,66.534,3.516ZM58.02,1.59a2.386,2.386,0,0,1,2.338,1.926H55.682A2.386,2.386,0,0,1,58.02,1.59Zm8.157,24.4a1.765,1.765,0,0,1-1.762,1.763H51.626a1.765,1.765,0,0,1-1.762-1.763v-15.6H66.177ZM68.3,7.041A1.765,1.765,0,0,1,66.533,8.8H49.507a1.765,1.765,0,0,1-1.762-1.763V6.869a1.765,1.765,0,0,1,1.762-1.763H66.534A1.765,1.765,0,0,1,68.3,6.869v.172Z" transform="translate(-46.155)" fill="#364d4c"/>
      <path id="Path_2100" data-name="Path 2100" d="M158.87,260.112a.8.8,0,0,0,.795-.795v-8.951a.795.795,0,1,0-1.59,0v8.951A.8.8,0,0,0,158.87,260.112Z" transform="translate(-151.267 -234.39)" fill="#364d4c"/>
      <path id="Path_2101" data-name="Path 2101" d="M228.94,260.112a.8.8,0,0,0,.8-.795v-8.951a.8.8,0,1,0-1.59,0v8.951A.8.8,0,0,0,228.94,260.112Z" transform="translate(-217.075 -234.39)" fill="#364d4c"/>
      <path id="Path_2102" data-name="Path 2102" d="M299.009,260.112a.8.8,0,0,0,.795-.795v-8.951a.795.795,0,1,0-1.59,0v8.951A.8.8,0,0,0,299.009,260.112Z" transform="translate(-282.881 -234.39)" fill="#364d4c"/>
    </g>
  </g>
</svg>
