<svg width="22.182" height="22.142999999999997" xmlns="http://www.w3.org/2000/svg">

 <g>
  <title>background</title>
  <rect fill="none" id="canvas_background" height="402" width="582" y="-1" x="-1"/>
 </g>
 <g>
  <title>Layer 1</title>
  <g id="svg_1">
   <g id="svg_2">
    <g id="svg_3">
     <path id="svg_4" fill="#2c2c2c" d="m20.735,4.301l-1.614,0a2.569,2.569 0 0 0 0.394,-1.116a2.872,2.872 0 0 0 -4.784,-2.433l-2.039,1.845a2.167,2.167 0 0 0 -3.2,0l-2.046,-1.845a2.872,2.872 0 0 0 -4.783,2.434a2.569,2.569 0 0 0 0.394,1.115l-1.61,0a1.447,1.447 0 0 0 -1.447,1.451l0,2.17a0.723,0.723 0 0 0 0.723,0.723l20.736,0a0.723,0.723 0 0 0 0.723,-0.723l0,-2.17a1.447,1.447 0 0 0 -1.447,-1.451zm-11.814,-0.241l0,0.241l-3.4,0a1.424,1.424 0 0 1 -0.6,-2.716a1.392,1.392 0 0 1 1.558,0.236l2.443,2.218c-0.001,0.007 -0.001,0.013 -0.001,0.021zm9.158,-1.067a1.465,1.465 0 0 1 -1.487,1.308l-3.331,0l0,-0.241c0,-0.009 0,-0.017 0,-0.026l2.408,-2.182a1.447,1.447 0 0 1 1.368,-0.35a1.407,1.407 0 0 1 1.042,1.491z"/>
    </g>
   </g>
   <g id="svg_5">
    <path id="svg_6" fill="#2c2c2c" d="m1.447001,10.088l0,10.609a1.447,1.447 0 0 0 1.447,1.447l6.751,0l0,-12.056l-8.198,0z"/>
   </g>
   <g id="svg_7">
    <path id="svg_8" fill="#2c2c2c" d="m12.538009,10.088l0,12.055l6.751,0a1.447,1.447 0 0 0 1.447,-1.447l0,-10.608l-8.198,0z"/>
   </g>
  </g>
 </g>
</svg>