<svg xmlns="http://www.w3.org/2000/svg" width="261.905" height="71.971" viewBox="0 0 261.905 71.971">
  <g id="Group_415" data-name="Group 415" transform="translate(24.6 336)">
    <g id="Group_351" data-name="Group 351" transform="translate(-21 -377)">
      <g id="BirthdayTrack_v1" data-name="BirthdayTrack v1" transform="translate(2 38)">
        <g id="Group_345" data-name="Group 345" transform="translate(-7 0)">
          <g id="Group_340" data-name="Group 340" transform="translate(20.735 33.984)">
            <path id="Path_2050" data-name="Path 2050" d="M41.58,64.7H273.811v40.987H41.58Z" transform="translate(-41.58 -64.7)" fill="#2ee6dd"/>
          </g>
          <g id="auXPe3jiC" transform="translate(0 14.671)">
            <path id="Path_2097" data-name="Path 2097" d="M19.67-13.755A8.309,8.309,0,0,1,21.735-8.26a8.273,8.273,0,0,1-2.4,5.862A7.638,7.638,0,0,1,13.685-.035H4.48q-2.45,0-2.87-1.33a5.852,5.852,0,0,1-.21-1.82V-22.61a10.1,10.1,0,0,1,.053-1.225,2.822,2.822,0,0,1,.332-.91q.49-.945,2.73-.945h8.82a7.2,7.2,0,0,1,5.39,2.24A7.446,7.446,0,0,1,21-17.99,7.29,7.29,0,0,1,19.67-13.755ZM15.54-8.61a3.73,3.73,0,0,0-.193-1.33,1.235,1.235,0,0,0-.648-.7,5.453,5.453,0,0,0-1.96-.28,3.049,3.049,0,0,1-1.89-.49,2.479,2.479,0,0,1-.63-2.013,2.438,2.438,0,0,1,.648-2.012,3.636,3.636,0,0,1,2.152-.49q1.4,0,1.68-.735a5.322,5.322,0,0,0,.1-1.26,1.315,1.315,0,0,0-.578-1.225A3.407,3.407,0,0,0,12.5-19.5H7.6V-6.23h5.74Q15.54-6.23,15.54-8.61Zm8.47-6.755a10.168,10.168,0,0,1,.052-1.207,3.244,3.244,0,0,1,.3-.927q.49-.91,2.73-.91a3.7,3.7,0,0,1,2.38.595,1.929,1.929,0,0,1,.63,1.5q.035.35.035,1.015v12.25a10.168,10.168,0,0,1-.052,1.207,2.8,2.8,0,0,1-.333.928Q29.3,0,27.055,0q-2.2,0-2.695-.945a3.271,3.271,0,0,1-.3-.91A10.1,10.1,0,0,1,24.01-3.08Zm5.758-6.493a1.483,1.483,0,0,1-.928.718,6.042,6.042,0,0,1-1.767.21,6.042,6.042,0,0,1-1.768-.21,1.468,1.468,0,0,1-.927-.735,3,3,0,0,1-.315-.928,10.168,10.168,0,0,1-.052-1.208,10.168,10.168,0,0,1,.052-1.208,2.859,2.859,0,0,1,.3-.892q.49-.945,2.73-.945,2.2,0,2.66.945a2.8,2.8,0,0,1,.333.928,10.168,10.168,0,0,1,.052,1.207,10.168,10.168,0,0,1-.052,1.208A2.825,2.825,0,0,1,29.768-21.858Zm15.7,3.623a2.363,2.363,0,0,1,1.1.718,2.469,2.469,0,0,1,.438,1.627,5.536,5.536,0,0,1-.665,2.45,2.085,2.085,0,0,1-1.925,1.33,2.735,2.735,0,0,1-1.208-.28,3.513,3.513,0,0,0-1.522-.28,2.76,2.76,0,0,0-1.768.665A2.006,2.006,0,0,0,39.1-10.4v7.35a10.168,10.168,0,0,1-.053,1.207,2.8,2.8,0,0,1-.333.928Q38.185,0,35.98,0a3.86,3.86,0,0,1-2.415-.6,2.1,2.1,0,0,1-.63-1.505V-15.4a10.168,10.168,0,0,1,.052-1.208,2.859,2.859,0,0,1,.3-.892q.49-.945,2.73-.945,2.1,0,2.625.805a2.014,2.014,0,0,1,.385,1.155,5.842,5.842,0,0,1,.507-.6,6.485,6.485,0,0,1,1.417-.945,4.091,4.091,0,0,1,1.907-.595,9.168,9.168,0,0,1,1.382.087A8.419,8.419,0,0,1,45.465-18.235ZM59.64-12.25l-2.275-.14v4.83a2.415,2.415,0,0,0,.3,1.365,1.288,1.288,0,0,0,1.12.42,11.353,11.353,0,0,1,1.26.052,2.486,2.486,0,0,1,.928.332q.8.455.8,2.345,0,2.205-.98,2.7a3.244,3.244,0,0,1-.927.3A9.766,9.766,0,0,1,58.695,0a8.2,8.2,0,0,1-5.53-1.645q-1.89-1.645-1.89-5.565v-5.18a9.214,9.214,0,0,1-1.435.1,1.609,1.609,0,0,1-1.278-.6,3.151,3.151,0,0,1-.507-2.03,8.81,8.81,0,0,1,.175-2.083,1.872,1.872,0,0,1,.49-.927,2.148,2.148,0,0,1,1.4-.455l1.155.14v-3.6a9.7,9.7,0,0,1,.053-1.19,2.205,2.205,0,0,1,.333-.84q.455-.875,2.695-.875,2.38,0,2.835,1.3a6.543,6.543,0,0,1,.175,1.785v3.43q1.54-.14,2.328-.14a9.966,9.966,0,0,1,1.19.053,2.8,2.8,0,0,1,.927.333q.91.455.91,2.695,0,2.205-.945,2.695a3.244,3.244,0,0,1-.927.3A10.167,10.167,0,0,1,59.64-12.25Zm15.225-6.125a7.422,7.422,0,0,1,5.827,2.66A9.538,9.538,0,0,1,83.02-9.2v6.16a10.169,10.169,0,0,1-.052,1.207,2.8,2.8,0,0,1-.332.928Q82.18,0,79.94,0,77.8,0,77.28-.91a2.793,2.793,0,0,1-.332-.945,11.066,11.066,0,0,1-.053-1.26V-9.24a3.028,3.028,0,0,0-.805-2.24,2.774,2.774,0,0,0-2.048-.805,3.411,3.411,0,0,0-2.187.753,2.682,2.682,0,0,0-1.085,1.7v6.79a10.169,10.169,0,0,1-.052,1.207,2.8,2.8,0,0,1-.332.928Q69.93,0,67.69,0q-2.205,0-2.7-.945a3.27,3.27,0,0,1-.3-.91,10.1,10.1,0,0,1-.053-1.225V-24.01a10.167,10.167,0,0,1,.053-1.208,2.859,2.859,0,0,1,.3-.892q.49-.945,2.73-.945,2.205,0,2.66.945a2.8,2.8,0,0,1,.332.928,10.169,10.169,0,0,1,.052,1.207v7.735A5.178,5.178,0,0,1,74.865-18.375Zm23.327-7.752a1.483,1.483,0,0,1,.927-.718,6.042,6.042,0,0,1,1.768-.21,6.042,6.042,0,0,1,1.768.21,1.468,1.468,0,0,1,.927.735,3,3,0,0,1,.315.928,10.169,10.169,0,0,1,.052,1.207v20.9a10.169,10.169,0,0,1-.052,1.207,2.489,2.489,0,0,1-.332.893q-.525.945-2.958.945T97.895-1.75A5.154,5.154,0,0,1,93.8-.07a7.765,7.765,0,0,1-5.74-2.748,9.045,9.045,0,0,1-2.59-6.4,9.073,9.073,0,0,1,2.607-6.423A7.767,7.767,0,0,1,93.8-18.41a4.914,4.914,0,0,1,4.025,1.75v-7.35a10.167,10.167,0,0,1,.053-1.208A2.825,2.825,0,0,1,98.192-26.128ZM92.5-7.105a2.948,2.948,0,0,0,2.205.945,2.784,2.784,0,0,0,2.152-.945,3.033,3.033,0,0,0,.858-2.083,3.232,3.232,0,0,0-.823-2.117,2.751,2.751,0,0,0-2.223-.98,2.825,2.825,0,0,0-2.24.963A3.15,3.15,0,0,0,91.6-9.2,2.963,2.963,0,0,0,92.5-7.105Zm26.215-9.38q.21-1.96,2.765-1.96a7.248,7.248,0,0,1,2.03.21,1.468,1.468,0,0,1,.927.735,3,3,0,0,1,.315.927,10.169,10.169,0,0,1,.052,1.207v12.25a10.169,10.169,0,0,1-.052,1.207,3.244,3.244,0,0,1-.3.928q-.49.91-2.4.91a4.722,4.722,0,0,1-2.555-.473,1.89,1.89,0,0,1-.753-1.383A4.9,4.9,0,0,1,114.432-.07a7.635,7.635,0,0,1-5.617-2.765,9.106,9.106,0,0,1-2.59-6.423,9.013,9.013,0,0,1,2.607-6.4,7.786,7.786,0,0,1,5.723-2.747,5.453,5.453,0,0,1,2.17.42,4.818,4.818,0,0,1,1.365.787A4.865,4.865,0,0,1,118.72-16.485ZM112.35-9.2a2.9,2.9,0,0,0,.91,2.082,2.975,2.975,0,0,0,2.2.927,2.784,2.784,0,0,0,2.153-.945,3.033,3.033,0,0,0,.857-2.082,3.232,3.232,0,0,0-.823-2.118,2.731,2.731,0,0,0-2.2-.98,2.835,2.835,0,0,0-2.24.98A3.179,3.179,0,0,0,112.35-9.2Zm31.71-9.03q2.065.91,2.065,2.2a2.625,2.625,0,0,1-.28,1.19,5.772,5.772,0,0,0-.28.6l-9.17,20.51q-.28.665-.472,1.015a2.153,2.153,0,0,1-.613.665,1.7,1.7,0,0,1-1.05.315,5.275,5.275,0,0,1-1.855-.525q-2.065-.91-2.065-2.17,0-.84,3.36-8.015l-6.965-11.725a3.915,3.915,0,0,1-.7-1.715q0-1.12,1.89-2.24a4.1,4.1,0,0,1,1.855-.7,1.921,1.921,0,0,1,1.085.28,2.1,2.1,0,0,1,.613.577q.193.3,1.925,3.255T136.71-9.2q.175-.56,1.89-4.323t1.838-4.008a3.558,3.558,0,0,1,.4-.595,1.516,1.516,0,0,1,1.277-.595A4.987,4.987,0,0,1,144.06-18.235Zm.84-7.455h19.46a3.872,3.872,0,0,1,1.645.262,1.327,1.327,0,0,1,.7.823,5.058,5.058,0,0,1,.175,1.47,4.876,4.876,0,0,1-.175,1.452,1.2,1.2,0,0,1-.6.752,4.077,4.077,0,0,1-1.785.315H157.64V-3.01a9.7,9.7,0,0,1-.053,1.19,2.841,2.841,0,0,1-.315.892,1.483,1.483,0,0,1-.928.718,5.967,5.967,0,0,1-1.75.21,5.785,5.785,0,0,1-1.732-.21,1.478,1.478,0,0,1-.91-.718,2.824,2.824,0,0,1-.315-.91,10.167,10.167,0,0,1-.053-1.207v-17.57h-6.72a3.872,3.872,0,0,1-1.645-.262,1.327,1.327,0,0,1-.7-.823,5.058,5.058,0,0,1-.175-1.47,4.876,4.876,0,0,1,.175-1.452,1.2,1.2,0,0,1,.6-.752A4.077,4.077,0,0,1,144.9-25.69Zm32.235,7.455a2.363,2.363,0,0,1,1.1.718,2.469,2.469,0,0,1,.438,1.627,5.535,5.535,0,0,1-.665,2.45,2.085,2.085,0,0,1-1.925,1.33,2.735,2.735,0,0,1-1.208-.28,3.513,3.513,0,0,0-1.523-.28,2.76,2.76,0,0,0-1.767.665,2.006,2.006,0,0,0-.823,1.61v7.35a10.171,10.171,0,0,1-.052,1.207,2.8,2.8,0,0,1-.333.928q-.525.91-2.73.91a3.86,3.86,0,0,1-2.415-.6A2.1,2.1,0,0,1,164.6-2.1V-15.4a10.167,10.167,0,0,1,.053-1.208,2.859,2.859,0,0,1,.3-.892q.49-.945,2.73-.945,2.1,0,2.625.805a2.014,2.014,0,0,1,.385,1.155,5.841,5.841,0,0,1,.507-.6,6.485,6.485,0,0,1,1.418-.945,4.091,4.091,0,0,1,1.907-.595,9.168,9.168,0,0,1,1.383.087A8.419,8.419,0,0,1,177.135-18.235Zm14.385,1.75q.21-1.96,2.765-1.96a7.248,7.248,0,0,1,2.03.21,1.468,1.468,0,0,1,.927.735,3,3,0,0,1,.315.927,10.173,10.173,0,0,1,.053,1.207v12.25a10.167,10.167,0,0,1-.053,1.207,3.243,3.243,0,0,1-.3.928q-.49.91-2.4.91a4.722,4.722,0,0,1-2.555-.473,1.89,1.89,0,0,1-.753-1.383A4.9,4.9,0,0,1,187.232-.07a7.635,7.635,0,0,1-5.618-2.765,9.106,9.106,0,0,1-2.59-6.423,9.013,9.013,0,0,1,2.607-6.4,7.786,7.786,0,0,1,5.723-2.747,5.453,5.453,0,0,1,2.17.42,4.818,4.818,0,0,1,1.365.787A4.864,4.864,0,0,1,191.52-16.485ZM185.15-9.2a2.9,2.9,0,0,0,.91,2.082,2.975,2.975,0,0,0,2.205.927,2.784,2.784,0,0,0,2.152-.945,3.033,3.033,0,0,0,.857-2.082,3.232,3.232,0,0,0-.822-2.118,2.732,2.732,0,0,0-2.205-.98,2.835,2.835,0,0,0-2.24.98A3.179,3.179,0,0,0,185.15-9.2Zm15.26-6.16a10.167,10.167,0,0,1,.053-1.207,3.244,3.244,0,0,1,.3-.927q.49-.91,2.73-.91a3.7,3.7,0,0,1,2.38.595,1.929,1.929,0,0,1,.63,1.5q.035.35.035,1.015v12.25a10.171,10.171,0,0,1-.052,1.207,2.8,2.8,0,0,1-.333.928q-.455.91-2.695.91-2.205,0-2.7-.945a3.271,3.271,0,0,1-.3-.91,10.1,10.1,0,0,1-.053-1.225Zm5.758-6.493a1.483,1.483,0,0,1-.928.718,6.042,6.042,0,0,1-1.768.21,6.042,6.042,0,0,1-1.767-.21,1.468,1.468,0,0,1-.928-.735,3,3,0,0,1-.315-.928,10.167,10.167,0,0,1-.053-1.208,10.167,10.167,0,0,1,.053-1.208,2.859,2.859,0,0,1,.3-.892q.49-.945,2.73-.945,2.205,0,2.66.945a2.8,2.8,0,0,1,.333.928,10.171,10.171,0,0,1,.052,1.207,10.171,10.171,0,0,1-.052,1.208A2.825,2.825,0,0,1,206.167-21.858Zm3.167-2.187a10.167,10.167,0,0,1,.053-1.207,3.244,3.244,0,0,1,.3-.927q.49-.945,2.73-.945,2.135,0,2.66.945a2.793,2.793,0,0,1,.333.945,10.651,10.651,0,0,1,.052,1.225V-7.805a3.662,3.662,0,0,0,.21,1.592q.21.333.928.332a5.6,5.6,0,0,1,.962.053,1.751,1.751,0,0,1,.6.3q.7.455.7,2.485,0,2.205-.7,2.7-.91.63-4.34.21-2.7-.35-3.5-1.785a11.488,11.488,0,0,1-.98-5.46Z" transform="translate(0 34)" fill="#364d4c"/>
          </g>
          <g id="Group_347" data-name="Group 347" transform="translate(219.415 3)">
            <g id="Group_342" data-name="Group 342" transform="translate(35.13 8.396)">
              <path id="Path_2051" data-name="Path 2051" d="M491.634,31.144c1.666-2.52,2.534-5.956.344-8.455-1.033-1.177-3.071.227-2.031,1.411,1.411,1.611.826,3.9-.262,5.536C488.838,30.924,490.78,32.445,491.634,31.144Z" transform="translate(-489.476 -22.245)" fill="#364d4c"/>
              <g id="Group_341" data-name="Group 341">
                <path id="Path_2052" data-name="Path 2052" d="M491.634,31.144c1.666-2.52,2.534-5.956.344-8.455-1.033-1.177-3.071.227-2.031,1.411,1.411,1.611.826,3.9-.262,5.536C488.838,30.924,490.78,32.445,491.634,31.144Z" transform="translate(-489.476 -22.245)" fill="rgba(0,0,0,0)" stroke="rgba(0,0,0,0)" stroke-width="1"/>
              </g>
            </g>
            <g id="Group_344" data-name="Group 344" transform="translate(0)">
              <path id="Path_2053" data-name="Path 2053" d="M463.853,10.078l.461.041.461.055.172.028.165.028.165.034.158.028.165.034.158.041.165.034.158.041.158.048.158.041.158.048.151.048.151.055.158.055.151.055.151.055.145.062.152.062.145.062.145.062.145.069.145.069.145.069.138.076.145.076.138.076.131.076.138.083.138.076.131.083.131.09.131.083.131.09.124.09.124.09.124.1.124.09.124.1.117.1.124.1.145-.062.145-.055.145-.055.145-.055.152-.055.151-.048.145-.048.151-.048.151-.048.158-.041.151-.041.152-.034.158-.041.152-.034.158-.028.158-.034.151-.028.158-.028.158-.021.165-.028.158-.021.158-.014.158-.014.165-.014.158-.014.165-.007.165-.007.158-.007h.5l.165.007.165.007.165.007.165.014.165.014.165.014.165.021.172.021.165.021.461.076.448.1.448.11.434.124.427.145.42.158.406.172.4.186.392.2.379.213.372.227.358.241.351.255.337.262.324.275.317.289.3.3.289.31.275.324.262.324.248.337.241.351.22.351.207.365.193.372.179.379.165.386.145.392.131.4.117.4.1.413.083.413.062.413.048.427.034.427.007.427-.007.434-.021.434-.041.434-.062.441-.076.4-.089.4-.1.406-.124.42-.131.413-.151.427-.165.42-.179.427-.193.427-.207.427-.22.427-.227.427-.248.42-.255.42-.268.413-.275.413-.289.406-.3.4-.31.392-.324.379-.324.379-.337.365-.344.351-.351.344-.365.33-.365.317-.379.3-.379.289-.392.275-.392.255-.4.241-.406.22-.406.207-.413.186-.42.165-.42.138-.427.124-.427.1-.434.076-.427.048h-.007v.007l-.007.007-.007.007-.014.014-.007.007-.007.007v.007l-.007.007-.275.248-.248.262-.214.255-.193.269-.158.269-.138.269-.11.275-.1.282-.069.282-.055.282-.034.289-.021.289v.289l.007.3.021.3.034.3.034.3.048.3.048.3.062.31.055.3.062.3.062.3.055.31.055.3.048.31.048.3.034.3.027.3.021.31v.3l-.007.3-.021.3-.041.3-.055.3-.076.3-.1.289-.117.289-.145.289-.172.289-.034.055-.041.062-.041.055-.041.055-.041.055-.048.048-.048.055-.041.048-.048.048-.055.055-.048.048-.048.048-.055.041-.055.048-.055.048-.048.041-.062.041-.055.041-.055.041-.062.041-.055.041-.062.041-.062.041-.055.034-.062.034-.062.041-.062.034-.062.034-.062.034-.069.034-.062.034-.062.028-.062.034-.069.028-.062.034-.062.028-.069.028-.062.028-.062.034-.069.028-.241.1-.227.117-.213.117-.186.124-.172.124-.158.131-.145.131-.124.138-.11.138-.1.145L468.72,52l-.069.145-.062.151-.041.158-.034.158-.028.158-.014.158V53.1l.007.165.014.165.021.172.034.172.034.172.048.172.048.179.055.179.055.179.069.179.062.179.076.179.069.179.076.186.076.179.076.186.076.179.076.186.076.179.076.186.069.179.069.186.041.1.021.1.014.1.007.1v.1l-.014.1-.021.083-.028.09-.034.083-.041.076-.048.076-.055.069-.055.069-.062.062-.069.062-.076.055-.076.048-.076.041-.083.041-.083.034-.09.028-.089.028-.09.014-.089.014-.089.007h-.09l-.089-.007-.09-.007-.083-.021-.09-.028-.083-.034-.076-.034-.076-.048-.076-.055-.069-.062-.069-.069-.055-.076-.055-.09-.048-.09-.048-.1-.1-.282-.11-.289-.117-.275-.11-.282-.11-.275-.11-.269-.11-.275-.1-.269-.1-.262-.1-.269-.089-.255-.09-.262-.083-.255-.076-.255-.069-.248-.055-.248-.048-.241-.041-.241-.028-.234-.021-.234-.007-.234.007-.227.028-.227.034-.22.048-.213.069-.22.083-.207.1-.207.117-.207.138-.2.158-.2.179-.193.2-.186.22-.186.241-.186.269-.179.289-.172.317-.172.337-.165.372-.165.275-.124.248-.131.234-.145.207-.158.186-.158.165-.172.145-.179.131-.186.11-.193.1-.193.076-.207.069-.213.048-.213.034-.22.027-.227.014-.234v-.234l-.007-.241-.014-.241-.027-.241-.028-.248-.041-.248-.041-.255-.048-.248-.048-.255-.055-.255L470.676,43l-.062-.255-.055-.255-.055-.255-.055-.255-.055-.248-.048-.255-.041-.241-.041-.248-.034-.241-.028-.241-.021-.234-.014-.227v-.317l.007-.09.007-.083.007-.09.007-.083.007-.09.014-.083.014-.083.021-.083.014-.083.021-.076.021-.083.021-.083.028-.076.021-.076.028-.076.028-.083.028-.076.034-.069.034-.076.034-.076.034-.076.034-.069.034-.076.041-.069.041-.069.041-.069.041-.069.041-.069.041-.069.048-.069.048-.069.048-.069.048-.062.048-.069.048-.062.048-.069.055-.062.055-.062.048-.062-.124-.048-.124-.048-.124-.048-.124-.055-.117-.055-.124-.055-.117-.062-.124-.062-.117-.062-.117-.069-.11-.069-.117-.069-.117-.069-.11-.076-.11-.076-.117-.076-.11-.076-.1-.083-.11-.083-.11-.09-.1-.083-.1-.09-.11-.09-.1-.09-.1-.1-.1-.1-.1-.1-.1-.1-.1-.1-.1-.1-.1-.1-.1-.11-.1-.1-.09-.11-.1-.1-.089-.11-.09-.117-.09-.11-.089-.117-.083-.11-.117.076-.117.083-.11.076-.117.076-.117.076-.117.076-.117.069-.117.069-.117.069-.117.069-.117.069-.117.062-.117.062-.124.062-.117.062-.124.055-.117.055-.124.055-.124.055-.117.048-.124.055-.124.048-.124.041-.117.048-.124.041-.124.041-.124.034-.124.034-.131.034-.124.034-.124.034-.124.028-.124.028-.131.021-.124.021-.124.021-.124.021-.131.014-.124.014-.131.014-.007.007v.007h-.007l-.007.007v.007l-.007.007-.007.007-.007.007-.007.007-.007.007-.275.248-.248.262-.213.262-.186.262-.165.269-.138.275-.11.275-.089.275-.076.282-.048.282-.034.289-.021.289-.007.3.007.289.021.3.034.3.041.3.041.3.055.3.055.3.062.3.055.3.062.3.055.31.055.3.055.31.041.3.041.3.028.31.014.3.007.3-.007.3-.028.3-.041.3-.055.3-.076.3-.1.289-.124.3-.145.282-.165.289-.041.055-.041.062-.041.055-.041.055-.041.055-.048.048-.041.055-.048.048-.048.055-.048.048-.055.048-.048.048-.055.048-.048.041-.055.048-.055.041L459.8,48l-.062.048-.055.041-.055.041-.062.034-.055.041-.062.041-.062.034-.062.041-.062.034-.062.034-.062.034-.062.034-.062.034-.062.034-.069.028-.062.034-.062.034-.069.028-.062.028-.062.028-.069.034-.062.028-.069.028-.241.11-.227.11-.207.117-.193.124-.172.124-.158.131-.138.131-.131.138-.11.138-.1.145-.083.145-.069.145-.055.151-.048.158-.034.158-.021.158-.014.158-.007.165.007.165.014.172.028.165.028.172.041.172.041.179.048.172.055.179.062.179.062.179.069.179.069.179.069.186.076.179.076.186.076.179.083.186.076.179.076.186.069.179.076.179.069.186.034.1.021.1.021.1v.193l-.014.1-.021.09-.028.083-.034.083-.041.076-.041.076-.055.076-.062.062-.062.062-.069.062-.069.055-.076.048-.083.041-.083.041-.083.034-.089.028-.083.028-.09.021-.089.007-.09.007h-.089l-.09-.007-.089-.007-.089-.021-.083-.028-.083-.028-.083-.041-.076-.048-.076-.055-.069-.062-.062-.069-.062-.076-.055-.09-.048-.09-.041-.1-.11-.282-.11-.282-.11-.282-.11-.282-.117-.275-.11-.269-.1-.275-.11-.269-.1-.262-.1-.262-.1-.262-.09-.262-.083-.255-.069-.248-.069-.255-.062-.241-.048-.248-.041-.241-.028-.234-.021-.234v-.234l.007-.227.021-.22.034-.227.048-.213.069-.213.083-.213.1-.207.117-.207.138-.2.158-.2.179-.193.2-.186.22-.186.241-.186.268-.179.289-.172.317-.172.344-.165.365-.158.275-.131.255-.131.227-.145.207-.158.186-.158.165-.172.151-.179.124-.186.11-.186.1-.2.083-.207.062-.213.048-.213.041-.22.021-.227.014-.234V43.7l-.007-.234-.014-.241-.028-.248-.028-.248-.041-.248-.041-.255-.048-.248-.048-.255-.055-.255-.055-.255-.055-.255-.062-.255-.055-.255-.055-.255-.048-.248-.048-.248-.048-.248-.041-.248-.034-.241-.028-.234-.021-.234-.007-.234-.007-.227.007-.09v-.083l.007-.09.007-.09.007-.083.014-.083.014-.09.014-.083.014-.083.021-.083.014-.076.021-.083.028-.076.021-.083.028-.076.027-.076.028-.076.028-.076.028-.076.034-.076.034-.076.034-.069.034-.076.041-.069.034-.076.041-.069.041-.069.041-.069.041-.069.048-.069.041-.069.048-.069.048-.062.048-.069.048-.069.048-.062.055-.062.048-.069.055-.062.055-.062-.413-.158L458.5,34.7l-.392-.207-.379-.227-.365-.255-.358-.269-.344-.289-.337-.31L456,32.819l-.317-.344-.3-.358-.289-.372-.282-.386-.269-.4-.255-.413-.248-.42-.234-.434-.22-.441-.213-.448-.2-.454-.186-.461-.179-.468-.158-.475-.151-.475-.138-.482-.124-.475-.117-.482-.1-.482-.09-.482-.076-.475-.062-.475-.048-.468-.034-.468-.027-.454-.007-.454.007-.448.014-.434.034-.427.041-.42.062-.406.083-.434.1-.427.117-.42.131-.413.152-.406.165-.4.179-.386.2-.379.207-.372.227-.365.241-.351.255-.337.268-.33.275-.324.289-.3.31-.3.31-.282.331-.275.33-.262.351-.248.351-.241.372-.22.372-.213.385-.2.386-.179.4-.172.406-.151.413-.145.42-.124.427-.11.434-.09.434-.083.441-.062.448-.041.448-.034.454-.007h.454Zm10.858,4.1-.248.014-.248.021-.248.028-.248.034-.248.041-.241.048-.241.055-.234.062-.234.062-.234.076-.069.021-.069.021-.076.028L472,14.7l-.062.028-.069.028-.069.021-.069.028-.069.028-.069.028-.062.028-.069.034-.069.028-.062.028-.069.034-.069.028-.062.034-.069.028-.062.034-.062.034-.069.028-.062.034-.062.034-.062.034-.069.034-.062.034-.062.041-.062.034-.062.034-.062.041-.055.034-.062.041-.062.034-.062.041-.1.069-.1.069-.1.069-.1.069-.1.076-.1.076-.089.076-.1.076-.1.076-.09.083-.089.076-.09.083-.09.083-.083.083-.089.09-.083.083L468.5,17l-.124.131-.117.138-.117.138-.117.138-.11.145-.11.145-.1.151-.1.145-.1.158-.1.151-.09.158-.09.158-.083.158-.083.165-.076.165-.076.165-.069.165-.041.1-.034.1-.034.1-.034.1-.034.1-.035.1-.027.1-.034.1-.028.1-.028.1-.028.1-.021.1-.028.1-.021.1-.021.11-.021.1-.014.1-.014.076-.014.083-.007.076-.014.083-.007.076-.014.083-.007.083-.007.083-.007.083-.007.083-.007.083v.09l-.007.083-.007.083V22.6l-.007.09v.448l.007.151.007.151.007.151.007.151.014.158.007.151.014.158.021.158.014.158.021.158.021.158.021.158.028.165.027.158.041.262.048.262.055.262.062.262.062.262.062.262.069.262.076.262.076.255.083.262.089.255.09.262.09.255.1.248.1.255.11.248.1.248.034.069.034.069.028.069.034.069.034.069.034.069.027.069.034.069.034.069.034.062.034.069.034.069.041.069.034.062.034.069.034.062.034.069.041.062.034.062.034.069.041.062.034.062.041.062.034.062.041.062.034.062.041.062.041.062.034.062.041.062.041.062.041.055.034.062L469,31.9l.2.275.207.269.207.255.213.241.227.234.227.22.227.207.241.2.241.179.248.165.255.151.262.138.262.124.269.1.275.09.275.069.282.048.833.048.84-.11.84-.241.833-.358.819-.475.806-.578.785-.661.75-.73.709-.8L481,30.12l.62-.874.565-.909.5-.916.427-.916.358-.909.268-.874.179-.84.09-.806.014-.8-.069-.785-.145-.764-.213-.744-.289-.716-.351-.689-.413-.647-.475-.62-.53-.571-.578-.523-.633-.475-.682-.42-.723-.365-.771-.3-.8-.234-.84-.158-.255-.034-.262-.028-.255-.021-.255-.014-.255-.007h-.255Zm-13.632-1.6-.785.207-.757.269-.723.33-.689.392-.647.454-.606.5-.551.551-.5.6-.441.647-.386.689-.317.723-.248.764-.172.792-.1.854-.021.916.041.964.117.991.179,1.019.241,1.026.31,1.019.365,1,.427.964.475.916.53.854.585.778.633.689.675.585.723.475.771.344.806.193.282.034.289.014h.289l.289-.028.289-.034.289-.055.289-.076.289-.09.289-.1.289-.117.289-.131.289-.145.282-.158.282-.172.282-.186.282-.193.275-.2-.3-.6-.275-.613-.248-.627-.234-.627-.207-.64-.186-.647-.165-.647-.138-.647-.117-.647-.1-.64-.069-.633-.048-.627-.021-.62v-.6l.028-.592.048-.565.076-.551.1-.5.117-.489.145-.482.165-.468.179-.461.206-.448.227-.434.248-.427.262-.413.282-.392.3-.386.317-.372.337-.358.351-.344.365-.324.379-.31.392-.3-.2-.138-.207-.131-.207-.124-.213-.117-.214-.117-.22-.11-.22-.1-.227-.1-.234-.09-.234-.09-.234-.076-.241-.076-.248-.069-.248-.062-.248-.055-.255-.048-.255-.041-.854-.09-.84-.007-.826.062Z" transform="translate(-442.573 -10.05)" fill="#364d4c"/>
              <g id="Group_343" data-name="Group 343" transform="translate(0 9.107)">
                <path id="Path_2054" data-name="Path 2054" d="M463.853,10.078l.461.041.461.055.172.028.165.028.165.034.158.028.165.034.158.041.165.034.158.041.158.048.158.041.158.048.151.048.151.055.158.055.151.055.151.055.145.062.152.062.145.062.145.062.145.069.145.069.145.069.138.076.145.076.138.076.131.076.138.083.138.076.131.083.131.09.131.083.131.09.124.09.124.09.124.1.124.09.124.1.117.1.124.1.145-.062.145-.055.145-.055.145-.055.152-.055.151-.048.145-.048.151-.048.151-.048.158-.041.151-.041.152-.034.158-.041.152-.034.158-.028.158-.034.151-.028.158-.028.158-.021.165-.028.158-.021.158-.014.158-.014.165-.014.158-.014.165-.007.165-.007.158-.007h.5l.165.007.165.007.165.007.165.014.165.014.165.014.165.021.172.021.165.021.461.076.448.1.448.11.434.124.427.145.42.158.406.172.4.186.392.2.379.213.372.227.358.241.351.255.337.262.324.275.317.289.3.3.289.31.275.324.262.324.248.337.241.351.22.351.207.365.193.372.179.379.165.386.145.392.131.4.117.4.1.413.083.413.062.413.048.427.034.427.007.427-.007.434-.021.434-.041.434-.062.441-.076.4-.089.4-.1.406-.124.42-.131.413-.151.427-.165.42-.179.427-.193.427-.207.427-.22.427-.227.427-.248.42-.255.42-.268.413-.275.413-.289.406-.3.4-.31.392-.324.379-.324.379-.337.365-.344.351-.351.344-.365.33-.365.317-.379.3-.379.289-.392.275-.392.255-.4.241-.406.22-.406.207-.413.186-.42.165-.42.138-.427.124-.427.1-.434.076-.427.048h-.007v.007l-.007.007-.007.007-.014.014-.007.007-.007.007v.007l-.007.007-.275.248-.248.262-.214.255-.193.269-.158.269-.138.269-.11.275-.1.282-.069.282-.055.282-.034.289-.021.289v.289l.007.3.021.3.034.3.034.3.048.3.048.3.062.31.055.3.062.3.062.3.055.31.055.3.048.31.048.3.034.3.027.3.021.31v.3l-.007.3-.021.3-.041.3-.055.3-.076.3-.1.289-.117.289-.145.289-.172.289-.034.055-.041.062-.041.055-.041.055-.041.055-.048.048-.048.055-.041.048-.048.048-.055.055-.048.048-.048.048-.055.041-.055.048-.055.048-.048.041-.062.041-.055.041-.055.041-.062.041-.055.041-.062.041-.062.041-.055.034-.062.034-.062.041-.062.034-.062.034-.062.034-.069.034-.062.034-.062.028-.062.034-.069.028-.062.034-.062.028-.069.028-.062.028-.062.034-.069.028-.241.1-.227.117-.213.117-.186.124-.172.124-.158.131-.145.131-.124.138-.11.138-.1.145L468.72,52l-.069.145-.062.151-.041.158-.034.158-.028.158-.014.158V53.1l.007.165.014.165.021.172.034.172.034.172.048.172.048.179.055.179.055.179.069.179.062.179.076.179.069.179.076.186.076.179.076.186.076.179.076.186.076.179.076.186.069.179.069.186.041.1.021.1.014.1.007.1v.1l-.014.1-.021.083-.028.09-.034.083-.041.076-.048.076-.055.069-.055.069-.062.062-.069.062-.076.055-.076.048-.076.041-.083.041-.083.034-.09.028-.089.028-.09.014-.089.014-.089.007h-.09l-.089-.007-.09-.007-.083-.021-.09-.028-.083-.034-.076-.034-.076-.048-.076-.055-.069-.062-.069-.069-.055-.076-.055-.09-.048-.09-.048-.1-.1-.282-.11-.289-.117-.275-.11-.282-.11-.275-.11-.269-.11-.275-.1-.269-.1-.262-.1-.269-.089-.255-.09-.262-.083-.255-.076-.255-.069-.248-.055-.248-.048-.241-.041-.241-.028-.234-.021-.234-.007-.234.007-.227.028-.227.034-.22.048-.213.069-.22.083-.207.1-.207.117-.207.138-.2.158-.2.179-.193.2-.186.22-.186.241-.186.269-.179.289-.172.317-.172.337-.165.372-.165.275-.124.248-.131.234-.145.207-.158.186-.158.165-.172.145-.179.131-.186.11-.193.1-.193.076-.207.069-.213.048-.213.034-.22.027-.227.014-.234v-.234l-.007-.241-.014-.241-.027-.241-.028-.248-.041-.248-.041-.255-.048-.248-.048-.255-.055-.255L470.676,43l-.062-.255-.055-.255-.055-.255-.055-.255-.055-.248-.048-.255-.041-.241-.041-.248-.034-.241-.028-.241-.021-.234-.014-.227v-.317l.007-.09.007-.083.007-.09.007-.083.007-.09.014-.083.014-.083.021-.083.014-.083.021-.076.021-.083.021-.083.028-.076.021-.076.028-.076.028-.083.028-.076.034-.069.034-.076.034-.076.034-.076.034-.069.034-.076.041-.069.041-.069.041-.069.041-.069.041-.069.041-.069.048-.069.048-.069.048-.069.048-.062.048-.069.048-.062.048-.069.055-.062.055-.062.048-.062-.124-.048-.124-.048-.124-.048-.124-.055-.117-.055-.124-.055-.117-.062-.124-.062-.117-.062-.117-.069-.11-.069-.117-.069-.117-.069-.11-.076-.11-.076-.117-.076-.11-.076-.1-.083-.11-.083-.11-.09-.1-.083-.1-.09-.11-.09-.1-.09-.1-.1-.1-.1-.1-.1-.1-.1-.1-.1-.1-.1-.1-.1-.1-.11-.1-.1-.09-.11-.1-.1-.089-.11-.09-.117-.09-.11-.089-.117-.083-.11-.117.076-.117.083-.11.076-.117.076-.117.076-.117.076-.117.069-.117.069-.117.069-.117.069-.117.069-.117.062-.117.062-.124.062-.117.062-.124.055-.117.055-.124.055-.124.055-.117.048-.124.055-.124.048-.124.041-.117.048-.124.041-.124.041-.124.034-.124.034-.131.034-.124.034-.124.034-.124.028-.124.028-.131.021-.124.021-.124.021-.124.021-.131.014-.124.014-.131.014-.007.007v.007h-.007l-.007.007v.007l-.007.007-.007.007-.007.007-.007.007-.007.007-.275.248-.248.262-.213.262-.186.262-.165.269-.138.275-.11.275-.089.275-.076.282-.048.282-.034.289-.021.289-.007.3.007.289.021.3.034.3.041.3.041.3.055.3.055.3.062.3.055.3.062.3.055.31.055.3.055.31.041.3.041.3.028.31.014.3.007.3-.007.3-.028.3-.041.3-.055.3-.076.3-.1.289-.124.3-.145.282-.165.289-.041.055-.041.062-.041.055-.041.055-.041.055-.048.048-.041.055-.048.048-.048.055-.048.048-.055.048-.048.048-.055.048-.048.041-.055.048-.055.041L459.8,48l-.062.048-.055.041-.055.041-.062.034-.055.041-.062.041-.062.034-.062.041-.062.034-.062.034-.062.034-.062.034-.062.034-.062.034-.069.028-.062.034-.062.034-.069.028-.062.028-.062.028-.069.034-.062.028-.069.028-.241.11-.227.11-.207.117-.193.124-.172.124-.158.131-.138.131-.131.138-.11.138-.1.145-.083.145-.069.145-.055.151-.048.158-.034.158-.021.158-.014.158-.007.165.007.165.014.172.028.165.028.172.041.172.041.179.048.172.055.179.062.179.062.179.069.179.069.179.069.186.076.179.076.186.076.179.083.186.076.179.076.186.069.179.076.179.069.186.034.1.021.1.021.1v.193l-.014.1-.021.09-.028.083-.034.083-.041.076-.041.076-.055.076-.062.062-.062.062-.069.062-.069.055-.076.048-.083.041-.083.041-.083.034-.089.028-.083.028-.09.021-.089.007-.09.007h-.089l-.09-.007-.089-.007-.089-.021-.083-.028-.083-.028-.083-.041-.076-.048-.076-.055-.069-.062-.062-.069-.062-.076-.055-.09-.048-.09-.041-.1-.11-.282-.11-.282-.11-.282-.11-.282-.117-.275-.11-.269-.1-.275-.11-.269-.1-.262-.1-.262-.1-.262-.09-.262-.083-.255-.069-.248-.069-.255-.062-.241-.048-.248-.041-.241-.028-.234-.021-.234v-.234l.007-.227.021-.22.034-.227.048-.213.069-.213.083-.213.1-.207.117-.207.138-.2.158-.2.179-.193.2-.186.22-.186.241-.186.268-.179.289-.172.317-.172.344-.165.365-.158.275-.131.255-.131.227-.145.207-.158.186-.158.165-.172.151-.179.124-.186.11-.186.1-.2.083-.207.062-.213.048-.213.041-.22.021-.227.014-.234V43.7l-.007-.234-.014-.241-.028-.248-.028-.248-.041-.248-.041-.255-.048-.248-.048-.255-.055-.255-.055-.255-.055-.255-.062-.255-.055-.255-.055-.255-.048-.248-.048-.248-.048-.248-.041-.248-.034-.241-.028-.234-.021-.234-.007-.234-.007-.227.007-.09v-.083l.007-.09.007-.09.007-.083.014-.083.014-.09.014-.083.014-.083.021-.083.014-.076.021-.083.028-.076.021-.083.028-.076.027-.076.028-.076.028-.076.028-.076.034-.076.034-.076.034-.069.034-.076.041-.069.034-.076.041-.069.041-.069.041-.069.041-.069.048-.069.041-.069.048-.069.048-.062.048-.069.048-.069.048-.062.055-.062.048-.069.055-.062.055-.062-.413-.158L458.5,34.7l-.392-.207-.379-.227-.365-.255-.358-.269-.344-.289-.337-.31L456,32.819l-.317-.344-.3-.358-.289-.372-.282-.386-.269-.4-.255-.413-.248-.42-.234-.434-.22-.441-.213-.448-.2-.454-.186-.461-.179-.468-.158-.475-.151-.475-.138-.482-.124-.475-.117-.482-.1-.482-.09-.482-.076-.475-.062-.475-.048-.468-.034-.468-.027-.454-.007-.454.007-.448.014-.434.034-.427.041-.42.062-.406.083-.434.1-.427.117-.42.131-.413.152-.406.165-.4.179-.386.2-.379.207-.372.227-.365.241-.351.255-.337.268-.33.275-.324.289-.3.31-.3.31-.282.331-.275.33-.262.351-.248.351-.241.372-.22.372-.213.385-.2.386-.179.4-.172.406-.151.413-.145.42-.124.427-.11.434-.09.434-.083.441-.062.448-.041.448-.034.454-.007h.454Zm10.858,4.1-.248.014-.248.021-.248.028-.248.034-.248.041-.241.048-.241.055-.234.062-.234.062-.234.076-.069.021-.069.021-.076.028L472,14.7l-.062.028-.069.028-.069.021-.069.028-.069.028-.069.028-.062.028-.069.034-.069.028-.062.028-.069.034-.069.028-.062.034-.069.028-.062.034-.062.034-.069.028-.062.034-.062.034-.062.034-.069.034-.062.034-.062.041-.062.034-.062.034-.062.041-.055.034-.062.041-.062.034-.062.041-.1.069-.1.069-.1.069-.1.069-.1.076-.1.076-.089.076-.1.076-.1.076-.09.083-.089.076-.09.083-.09.083-.083.083-.089.09-.083.083L468.5,17l-.124.131-.117.138-.117.138-.117.138-.11.145-.11.145-.1.151-.1.145-.1.158-.1.151-.09.158-.09.158-.083.158-.083.165-.076.165-.076.165-.069.165-.041.1-.034.1-.034.1-.034.1-.034.1-.035.1-.027.1-.034.1-.028.1-.028.1-.028.1-.021.1-.028.1-.021.1-.021.11-.021.1-.014.1-.014.076-.014.083-.007.076-.014.083-.007.076-.014.083-.007.083-.007.083-.007.083-.007.083-.007.083v.09l-.007.083-.007.083V22.6l-.007.09v.448l.007.151.007.151.007.151.007.151.014.158.007.151.014.158.021.158.014.158.021.158.021.158.021.158.028.165.027.158.041.262.048.262.055.262.062.262.062.262.062.262.069.262.076.262.076.255.083.262.089.255.09.262.09.255.1.248.1.255.11.248.1.248.034.069.034.069.028.069.034.069.034.069.034.069.027.069.034.069.034.069.034.062.034.069.034.069.041.069.034.062.034.069.034.062.034.069.041.062.034.062.034.069.041.062.034.062.041.062.034.062.041.062.034.062.041.062.041.062.034.062.041.062.041.062.041.055.034.062L469,31.9l.2.275.207.269.207.255.213.241.227.234.227.22.227.207.241.2.241.179.248.165.255.151.262.138.262.124.269.1.275.09.275.069.282.048.833.048.84-.11.84-.241.833-.358.819-.475.806-.578.785-.661.75-.73.709-.8L481,30.12l.62-.874.565-.909.5-.916.427-.916.358-.909.268-.874.179-.84.09-.806.014-.8-.069-.785-.145-.764-.213-.744-.289-.716-.351-.689-.413-.647-.475-.62-.53-.571-.578-.523-.633-.475-.682-.42-.723-.365-.771-.3-.8-.234-.84-.158-.255-.034-.262-.028-.255-.021-.255-.014-.255-.007h-.255Zm-13.632-1.6-.785.207-.757.269-.723.33-.689.392-.647.454-.606.5-.551.551-.5.6-.441.647-.386.689-.317.723-.248.764-.172.792-.1.854-.021.916.041.964.117.991.179,1.019.241,1.026.31,1.019.365,1,.427.964.475.916.53.854.585.778.633.689.675.585.723.475.771.344.806.193.282.034.289.014h.289l.289-.028.289-.034.289-.055.289-.076.289-.09.289-.1.289-.117.289-.131.289-.145.282-.158.282-.172.282-.186.282-.193.275-.2-.3-.6-.275-.613-.248-.627-.234-.627-.207-.64-.186-.647-.165-.647-.138-.647-.117-.647-.1-.64-.069-.633-.048-.627-.021-.62v-.6l.028-.592.048-.565.076-.551.1-.5.117-.489.145-.482.165-.468.179-.461.206-.448.227-.434.248-.427.262-.413.282-.392.3-.386.317-.372.337-.358.351-.344.365-.324.379-.31.392-.3-.2-.138-.207-.131-.207-.124-.213-.117-.214-.117-.22-.11-.22-.1-.227-.1-.234-.09-.234-.09-.234-.076-.241-.076-.248-.069-.248-.062-.248-.055-.255-.048-.255-.041-.854-.09-.84-.007-.826.062Z" transform="translate(-451.68 -10.05)" fill="rgba(0,0,0,0)" stroke="rgba(0,0,0,0)" stroke-width="1"/>
              </g>
            </g>
          </g>
        </g>
      </g>
    </g>
  </g>
</svg>
