<svg xmlns="http://www.w3.org/2000/svg" width="157.924" height="135.648" viewBox="0 0 157.924 135.648">
  <g id="Group_444" data-name="Group 444" transform="translate(-104.587 -247.255)">
    <path id="Path_2144" data-name="Path 2144" d="M155.228,60.887c-20.375-19.087-47.461-29.6-76.265-29.6S23.074,41.8,2.7,60.9a8.249,8.249,0,0,0,0,12.2,9.51,9.51,0,0,0,6.509,2.527A9.531,9.531,0,0,0,15.721,73.1C32.612,57.265,55.075,49.473,78.959,49.473S125.31,57.265,142.2,73.09a9.657,9.657,0,0,0,13.027,0A8.253,8.253,0,0,0,155.228,60.887ZM78.885,65.8A79.49,79.49,0,0,0,22.526,88.974a9.5,9.5,0,0,0,0,13.506,9.656,9.656,0,0,0,13.6,0c11.419-11.335,26.607-18.2,42.754-18.2s31.335,6.869,42.749,18.2a9.668,9.668,0,0,0,13.6,0,9.5,9.5,0,0,0,0-13.506A79.5,79.5,0,0,0,78.885,65.8Zm.084,34.528a44.136,44.136,0,0,0-31.873,13.6,9.511,9.511,0,0,0,0,13.166,8.852,8.852,0,0,0,12.765,0,26.749,26.749,0,0,1,19.107-8.463,26.793,26.793,0,0,1,19.107,8.453,8.847,8.847,0,0,0,12.771,0,9.518,9.518,0,0,0,0-13.156A44.15,44.15,0,0,0,78.968,100.329Z" transform="translate(104.586 215.966)" fill="#ffe8d9"/>
    <path id="Path_2145" data-name="Path 2145" d="M18.618.266C10.665.266,0-1.875,0,6.035c0,7.925,10.658,5.314,18.618,5.314s19.955,2.6,19.955-5.314S26.579.266,18.618.266Z" transform="translate(201.817 356.255) rotate(137)" fill="#ffe8d9"/>
    <path id="Path_2146" data-name="Path 2146" d="M18.618.266C10.665.266,0-1.875,0,6.035c0,7.925,10.658,5.314,18.618,5.314s19.955,2.6,19.955-5.314S26.579.266,18.618.266Z" transform="translate(174.221 347.312) rotate(45)" fill="#ffe8d9"/>
  </g>
</svg>
