<svg xmlns="http://www.w3.org/2000/svg" width="50" height="50" viewBox="0 0 50 50">
  <g id="Group_4" data-name="Group 4" transform="translate(-177 -60)">
    <g id="Ellipse_3" data-name="Ellipse 3" transform="translate(177 60)" fill="none" stroke="#364d4c" stroke-width="5">
      <circle cx="25" cy="25" r="25" stroke="none"/>
      <circle cx="25" cy="25" r="22.5" fill="none"/>
    </g>
    <path id="Path_2" data-name="Path 2" d="M-.04-27.419a2.9,2.9,0,0,1,2.125.9,2.9,2.9,0,0,1,.9,2.125A2.366,2.366,0,0,1,2.1-22.542a3.088,3.088,0,0,1-2.085.762,2.874,2.874,0,0,1-2.072-.842,2.711,2.711,0,0,1-.869-2.018,2.611,2.611,0,0,1,.869-1.951A2.835,2.835,0,0,1-.04-27.419ZM2.148-4.109A2.236,2.236,0,0,0,2.632-2.39a2.567,2.567,0,0,0,1.289.524,3.059,3.059,0,0,1,1.141.339,1,1,0,0,1,.336.9q0,.9-1.561.9A18.627,18.627,0,0,1,1.817.107,18.582,18.582,0,0,0-.175-.054,11.986,11.986,0,0,0-2.059.161,11.946,11.946,0,0,1-3.917.376,1.655,1.655,0,0,1-4.981.022,1.126,1.126,0,0,1-5.425-.9a.866.866,0,0,1,.242-.612,2.423,2.423,0,0,1,1.235-.419,2.161,2.161,0,0,0,1.383-.643,4.337,4.337,0,0,0,.389-2.332v-9.06A1.876,1.876,0,0,0-2.659-15.5a3.418,3.418,0,0,0-1.423-.563,2.053,2.053,0,0,1-1.168-.487,1.175,1.175,0,0,1-.228-.734.982.982,0,0,1,.391-.8,1.442,1.442,0,0,1,.93-.313,6.129,6.129,0,0,1,1.307.2,6.079,6.079,0,0,0,1.253.2,10.028,10.028,0,0,0,1.4-.148,10.029,10.029,0,0,1,1.4-.148q1,0,1,1.665,0,.269-.027.712t-.027.6Z" transform="translate(202 97)" fill="#364d4c"/>
  </g>
</svg>
