<svg xmlns="http://www.w3.org/2000/svg" xmlns:xlink="http://www.w3.org/1999/xlink" xmlns:fi="http://pattern.flaticon.com/" x="0" y="0" width="700" height="350" viewBox="0 0 700 350"><rect x="0px" y="0px" width="100%" height="100%" opacity="1" fill="#ffefc7"/><defs><g transform="matrix(0.023206144428284285 0.18854990622646894 -0.18854990622646894 0.023206144428284285 123.83759817840786 167.01559343510846)" id="L1_0"><path d="m420.066406 337.824219-111.023437-268.042969c-52.132813 21.570312-100.984375 53.519531-143.363281 95.898438-42.378907 42.378906-74.328126 91.226562-95.894532 143.359374l157.070313 65.0625v66.660157c0 16.664062 13.507812 30.175781 30.175781 30.175781 16.664062 0 30.175781-13.511719 30.175781-30.175781v-28.039063c0-6.488281 6.59375-10.890625 12.585938-8.410156l23.265625 9.636719c6.921875 2.867187 11.4375 9.625 11.4375 17.121093v43.253907c0 16.664062 13.511718 30.175781 30.175781 30.175781 16.667969 0 30.179687-13.511719 30.179687-30.175781v-51.84375c0-4.15625 2.003907-8.015625 5.296876-10.554688 21-16.191406 31.910156-45.15625 19.917968-74.101562zm0 0" fill="#f7ef87"/><path d="m198.707031 135.785156c-11.382812 9.308594-22.40625 19.273438-33.027343 29.894532-42.378907 42.378906-74.328126 91.226562-95.894532 143.359374l157.070313 65.0625v66.660157c0 16.664062 13.507812 30.175781 30.175781 30.175781 16.664062 0 30.175781-13.511719 30.175781-30.175781v-28.039063c0-3.335937 1.75-6.113281 4.261719-7.695312-51.230469-48.257813-87.144531-173.875-92.761719-269.242188zm0 0" fill="#efd176"/><path d="m31.214844 317.960938 21.179687 8.773437c19.148438 7.929687 41.046875-.867187 49.566407-19.757813 19.8125-43.925781 47.757812-85.074218 83.851562-121.167968 36.089844-36.089844 77.238281-64.035156 121.164062-83.847656 18.894532-8.523438 27.691407-30.421876 19.757813-49.570313l-8.769531-21.175781c-8.207032-19.816406-31.164063-29.167969-50.738282-20.398438-55.011718 24.648438-106.550781 59.53125-151.710937 104.695313-45.164063 45.164062-80.050781 96.703125-104.695313 151.714843-8.769531 19.574219.582032 42.527344 20.394532 50.734376zm0 0" fill="#e1b89a"/><path d="m115.511719 115.511719c-45.160157 45.164062-80.046875 96.703125-104.691407 151.714843-8.769531 19.574219.582032 42.527344 20.394532 50.734376l21.179687 8.773437c19.148438 7.929687 41.042969-.867187 49.566407-19.757813 13.1875-29.230468 29.992187-57.21875 50.382812-83.316406-32.511719-17.027344-45.628906-69.375-36.167969-108.800781-.222656.21875-.441406.433594-.664062.652344zm0 0" fill="#d2996f"/><path d="m332.644531 262.917969c13.253907-13.253907 30.445313-20.152344 47.808594-20.734375l39.613281 95.640625c4.628906 11.171875 5.839844 22.347656 4.378906 32.792969-27.75 20.128906-66.789062 17.699218-91.800781-7.316407-27.71875-27.722656-27.71875-72.664062 0-100.382812zm0 0" fill="#eda1ab"/><path d="m247.210938 382.53125-113.488282-47.007812c1.027344-17.394532 8.410156-34.488282 22.183594-47.476563 27.128906-25.582031 70.058594-25.621094 97.230469-.085937 25.132812 23.621093 29.117187 60.871093 11.972656 88.824218-3.714844 6.0625-11.332031 8.46875-17.898437 5.746094zm0 0" fill="#eda1ab"/><path d="m222.773438 271.199219c-23.015626-6.039063-48.542969-.429688-66.867188 16.847656-13.773438 12.988281-21.160156 30.082031-22.183594 47.476563l113.488282 47.007812c6.566406 2.722656 14.183593.316406 17.898437-5.742188.539063-.882812 1.058594-1.773437 1.558594-2.671874-17.578125-27.585938-32.492188-63.949219-43.894531-102.917969zm0 0" fill="#e26e7e"/><path d="m134.828125 202.578125c-8.714844-8.710937-24.644531-6.90625-35.582031 4.035156-10.941406 10.9375-12.746094 26.871094-4.035156 35.582031 8.710937 8.710938 24.640624 6.90625 35.582031-4.035156 10.941406-10.9375 12.746093-26.871094 4.035156-35.582031zm0 0" fill="#ffffff"/><path d="m202.582031 134.828125c8.710938 8.710937 24.644531 6.90625 35.582031-4.035156 10.941407-10.9375 12.746094-26.871094 4.035157-35.582031-8.710938-8.710938-24.644531-6.90625-35.582031 4.035156-10.941407 10.9375-12.746094 26.871094-4.035157 35.582031zm0 0" fill="#ffffff"/><path d="m248.746094 179.957031c-1.472656 7.566407-2.414063 16.304688-2.414063 26.46875 0 10.164063.941407 18.902344 2.414063 26.46875 2.933594 15.082031 19.28125 23.371094 33.199218 16.863281 6.609376-3.09375 9.949219-10.550781 7.871094-17.542968-.65625-2.210938-1.242187-4.582032-1.734375-7.152344l20.597657 3.855469c10.082031 1.890625 19.402343-5.847657 19.402343-16.105469v-12.773438c0-10.261718-9.320312-17.996093-19.402343-16.109374l-20.597657 3.859374c.492188-2.570312 1.082031-4.945312 1.734375-7.152343 2.078125-6.996094-1.261718-14.453125-7.871094-17.542969-13.917968-6.507812-30.265624 1.78125-33.199218 16.863281zm0 0" fill="#d2996f"/><path d="m307.859375 212.554688h-40.222656c-4.140625 0-7.5-3.359376-7.5-7.5 0-4.140626 3.359375-7.5 7.5-7.5h40.222656c4.144531 0 7.5 3.359374 7.5 7.5 0 4.140624-3.355469 7.5-7.5 7.5zm0 0" fill="#e1b89a"/><path d="m270.820312 236.421875c-3.3125 0-6.34375-2.210937-7.238281-5.566406-3.445312-12.882813-3.445312-20.65625-3.445312-25.800781 0-5.144532 0-12.917969 3.445312-25.800782 1.066407-4.003906 5.179688-6.378906 9.179688-5.308594 4.003906 1.066407 6.378906 5.179688 5.3125 9.179688-2.933594 10.980469-2.933594 17.308594-2.933594 21.929688 0 4.621093 0 10.945312 2.933594 21.929687 1.066406 4-1.308594 8.113281-5.3125 9.179687-.648438.175782-1.296875.257813-1.941407.257813zm0 0" fill="#e1b89a"/><g fill="#e26e7e"><path d="m387.925781 346.671875c0 4.152344-3.367187 7.519531-7.519531 7.519531s-7.519531-3.367187-7.519531-7.519531 3.367187-7.515625 7.519531-7.515625 7.519531 3.363281 7.519531 7.515625zm0 0"/><path d="m368.441406 290.957031c0 4.152344-3.363281 7.519531-7.515625 7.519531-4.152343 0-7.519531-3.367187-7.519531-7.519531 0-4.152343 3.367188-7.515625 7.519531-7.515625 4.152344 0 7.515625 3.363282 7.515625 7.515625zm0 0"/><path d="m252.015625 319.691406c0 4.152344-3.363281 7.519532-7.515625 7.519532s-7.519531-3.367188-7.519531-7.519532c0-4.148437 3.367187-7.515625 7.519531-7.515625s7.515625 3.367188 7.515625 7.515625zm0 0"/></g><path d="m213.121094 339.164062c0 4.152344-3.367188 7.515626-7.519532 7.515626-4.148437 0-7.515624-3.363282-7.515624-7.515626 0-4.152343 3.367187-7.519531 7.515624-7.519531 4.152344 0 7.519532 3.367188 7.519532 7.519531zm0 0" fill="#eda1ab"/><path d="m192.996094 301.386719c0 4.152343-3.363282 7.519531-7.515625 7.519531-4.152344 0-7.519531-3.367188-7.519531-7.519531 0-4.152344 3.367187-7.515625 7.519531-7.515625 4.152343 0 7.515625 3.363281 7.515625 7.515625zm0 0" fill="#eda1ab"/><path d="m189.804688 116.132812c1.464843 1.464844 3.382812 2.195313 5.304687 2.195313 1.917969 0 3.835937-.730469 5.300781-2.195313 2.929688-2.929687 2.929688-7.679687 0-10.605468l-6.996094-6.996094c-2.925781-2.929688-7.675781-2.929688-10.605468 0-2.925782 2.929688-2.925782 7.679688 0 10.605469zm137.148437 115.058594c5.484375-4.550781 8.628906-11.25 8.628906-18.378906v-12.773438c0-7.128906-3.144531-13.828124-8.628906-18.382812-5.484375-4.550781-12.648437-6.410156-19.65625-5.097656l-9.4375 1.769531c.820313-9.167969-4.085937-17.984375-12.738281-22.027344-8.75-4.09375-18.703125-3.925781-27.316406.453125-8.59375 4.375-14.582032 12.308594-16.421876 21.769532-1.691406 8.710937-2.550781 18.097656-2.550781 27.902343 0 9.804688.859375 19.191407 2.554688 27.902344 1.839843 9.460937 7.824219 17.394531 16.417969 21.769531 4.464843 2.269532 9.289062 3.40625 14.117187 3.40625 4.488281 0 8.984375-.980468 13.199219-2.953125 8.652344-4.046875 13.558594-12.863281 12.738281-22.027343l9.4375 1.769531c7.003906 1.308593 14.167969-.546875 19.65625-5.101563zm-37.492187-13.503906c-2.441407-.457031-4.949219.324219-6.699219 2.082031-1.746094 1.761719-2.515625 4.269531-2.046875 6.707031.519531 2.695313 1.164062 5.34375 1.914062 7.871094 1.027344 3.464844-.59375 7.085938-3.859375 8.613282-4.535156 2.121093-9.699219 2.035156-14.160156-.234376-4.449219-2.261718-7.550781-6.371093-8.5-11.265624-1.511719-7.765626-2.277344-16.191407-2.277344-25.035157 0-8.847656.765625-17.269531 2.277344-25.039062.953125-4.894531 4.050781-9 8.5-11.265625 4.460937-2.269532 9.621094-2.359375 14.160156-.234375 3.265625 1.527343 4.886719 5.148437 3.859375 8.617187-.753906 2.527344-1.394531 5.175782-1.914062 7.867188-.46875 2.4375.300781 4.949218 2.046875 6.707031 1.75 1.757813 4.257812 2.539063 6.699219 2.082031l20.597656-3.859375c2.605468-.488281 5.273437.203125 7.3125 1.898438 2.042968 1.691406 3.210937 4.183593 3.210937 6.835937v12.777344c0 2.652344-1.167969 5.144531-3.210937 6.835938-2.039063 1.695312-4.707032 2.386718-7.3125 1.898437zm-190.929688-34.878906c-2.929688 2.929687-2.929688 7.679687 0 10.605468l6.996094 6.996094c1.464844 1.464844 3.382812 2.195313 5.300781 2.195313 1.921875 0 3.839844-.730469 5.304687-2.195313 2.929688-2.929687 2.929688-7.679687 0-10.605468l-6.996093-6.996094c-2.925781-2.929688-7.675781-2.929688-10.605469 0zm44.152344-25.902344c-4.128906-.289062-7.710938 2.835938-7.996094 6.96875s2.835938 7.710938 6.96875 7.996094c.648438.042968 1.300781.066406 1.949219.066406 7.496093 0 14.707031-2.964844 20.039062-8.292969 5.789063-5.792969 8.789063-13.808593 8.226563-21.988281-.285156-4.132812-3.875-7.242188-7.996094-6.96875-4.132812.285156-7.25 3.863281-6.96875 7.996094.265625 3.855468-1.144531 7.628906-3.867188 10.351562-2.726562 2.726563-6.492187 4.132813-10.355468 3.871094zm284.3125 178.046875-99.382813-239.929687c9.75-12.5625 12.574219-29.75 6.050781-45.5l-8.769531-21.175782c-4.789062-11.5625-13.828125-20.472656-25.453125-25.09375-11.503906-4.574218-24.035156-4.316406-35.28125.71875-22.953125 10.285156-45.339844 22.367188-66.53125 35.910156-3.488281 2.226563-4.511718 6.867188-2.28125 10.355469 2.230469 3.492188 6.871094 4.511719 10.359375 2.28125 20.570313-13.144531 42.300781-24.875 64.585938-34.855469 7.515625-3.371093 15.898437-3.535156 23.605469-.472656 7.828124 3.113282 13.914062 9.113282 17.136718 16.894532l8.769532 21.175781c4.773437 11.523437 2.089843 24.195312-5.945313 32.757812-.226563.207031-.4375.425781-.636719.652344-2.609375 2.625-5.738281 4.832031-9.332031 6.453125-45.9375 20.722656-87.449219 49.449219-123.382813 85.382812-35.933593 35.933594-64.660156 77.445313-85.382812 123.382813-1.617188 3.589844-3.824219 6.710937-6.441406 9.320313-.234375.203124-.457032.421874-.667969.65625-8.5625 8.03125-21.230469 10.714843-32.753906 5.9375l-21.175781-8.769532c-7.78125-3.222656-13.78125-9.308594-16.894532-17.136718-3.0625-7.703126-2.894531-16.089844.472656-23.605469 24.945313-55.683594 59.652344-105.976563 103.152344-149.476563 17.398438-17.398437 36.15625-33.609375 55.753906-48.1875 3.324219-2.472656 4.015626-7.167968 1.542969-10.492187-2.472656-3.324219-7.171875-4.015625-10.496093-1.542969-20.179688 15.011719-39.492188 31.703125-57.40625 49.617188-44.796876 44.796874-80.539063 96.59375-106.238282 153.953124-5.035156 11.246094-5.292968 23.773438-.71875 35.277344 4.625 11.625 13.535156 20.664063 25.09375 25.453125l21.175782 8.769531c5.773437 2.394532 11.734374 3.527344 17.59375 3.527344 10.132812 0 19.941406-3.402344 27.902343-9.578125l124.335938 51.5v61.648438c0 20.773437 16.898437 37.675781 37.675781 37.675781 20.773438 0 37.675781-16.898438 37.675781-37.675781v-28.039063c0-.707031.386719-1.113281.710938-1.332031.328125-.214844.851562-.417969 1.503906-.148437l23.265625 9.636718c4.136719 1.714844 6.808594 5.714844 6.808594 10.191406v43.253907c0 20.773437 16.902344 37.675781 37.675781 37.675781 10.863281 0 21.199219-4.6875 28.359375-12.867188 2.726562-3.117187 2.414062-7.855468-.703125-10.585937-3.117187-2.726563-7.855469-2.414063-10.585937.707031-4.308594 4.921875-10.53125 7.75-17.070313 7.75-12.503906 0-22.675781-10.175781-22.675781-22.679687v-43.253907c0-10.566406-6.308594-20.003906-16.070313-24.046874l-23.265625-9.636719c-5.132812-2.128907-10.957031-1.554688-15.574218 1.53125-4.621094 3.089843-7.378907 8.25-7.378907 13.804687v28.039063c0 12.503906-10.171875 22.675781-22.675781 22.675781s-22.679688-10.171875-22.679688-22.675781v-55.433594l9.988282 4.136719c2.785156 1.152344 5.675781 1.707031 8.519531 1.707031 7.433594 0 14.542969-3.777344 18.644531-10.460937 19.335938-31.527344 13.769532-72.832032-13.234375-98.210938-30.164062-28.347656-77.386719-28.304688-107.507812.09375-12.109375 11.414062-20.144531 26.148438-23.234375 42.25l-21.820313-9.035156c1.144531-1.816406 2.179688-3.730469 3.089844-5.746094 19.972656-44.28125 47.667969-84.296875 82.316406-118.945312 34.644531-34.644532 74.664063-62.339844 118.945313-82.316407 2.015625-.90625 3.929687-1.945312 5.742187-3.089843l53.871094 130.050781c-15.976563 2.699219-30.730469 10.253906-42.332031 21.859375-14.824219 14.820312-22.988282 34.527344-22.988282 55.492187 0 20.964844 8.164063 40.671875 22.988282 55.496094 13.285156 13.285156 30.90625 21.371094 49.621094 22.761719 1.949218.148437 3.898437.21875 5.84375.21875 9.992187 0 19.847656-1.914063 29.042968-5.566406-3.992187 8.085937-9.769531 14.945312-16.28125 19.96875-5.222656 4.027343-8.21875 10.039062-8.21875 16.496093v38.476563c0 4.140625 3.355469 7.5 7.5 7.5 4.140625 0 7.5-3.359375 7.5-7.5v-38.476563c0-1.769531.867188-3.453125 2.378906-4.617187 15.054688-11.609375 24.347657-27.875 26.972657-45.351563.148437-.566406.222656-1.148437.234375-1.734375 1.472656-11.796875-.070313-24.085937-4.9375-35.832031zm-265.945313-41.449219c24.363281-22.96875 62.554688-23.003906 86.949219-.078125 21.847656 20.535157 26.355469 53.941407 10.71875 79.441407-1.761719 2.871093-5.476562 4.046874-8.640625 2.734374l-20.355469-8.429687-87.972656-36.441406c2.015625-14.207031 8.746094-27.277344 19.300781-37.226563zm256.28125 72.890625c-11.566406 7.5-25.378906 11.050781-39.253906 10.015625-15.132813-1.128906-29.382813-7.667968-40.128906-18.414062-11.992188-11.988282-18.59375-27.929688-18.59375-44.886719s6.605469-32.898437 18.59375-44.890625c10.207031-10.203125 23.421875-16.535156 37.652343-18.152344l37.539063 90.628906c3.679687 8.890626 4.855469 17.578126 4.191406 25.699219zm0 0"/></g><g transform="matrix(0.14314823525593434 0.09161487250299424 -0.09161487250299424 0.14314823525593434 77.91120271228863 -22.076126985739194)" id="L1_1"><path d="m216.5625 14.328125c17.847656-15.105469 45.308594-3.730469 47.246094 19.570313.316406 3.824218 3.355468 6.859374 7.179687 7.179687 23.300781 1.9375 34.671875 29.394531 19.566407 47.242187-2.480469 2.929688-2.480469 7.222657 0 10.152344 15.105468 17.847656 3.734374 45.308594-19.566407 47.246094-3.824219.316406-6.863281 3.355469-7.179687 7.179688-1.9375 23.300781-29.394532 34.675781-47.246094 19.566406-2.929688-2.476563-7.222656-2.476563-10.152344 0-17.847656 15.109375-45.304687 3.734375-47.242187-19.566406-.320313-3.824219-3.355469-6.863282-7.179688-7.179688-23.300781-1.9375-34.675781-29.394531-19.570312-47.246094 2.480469-2.929687 2.480469-7.222656 0-10.152344-15.105469-17.847656-3.734375-45.304687 19.570312-47.242187 3.824219-.320313 6.859375-3.355469 7.179688-7.179687 1.9375-23.300782 29.394531-34.675782 47.242187-19.570313 2.929688 2.480469 7.222656 2.480469 10.152344 0zm0 0" fill="#f5685d"/><path d="m132.417969 98.476562c-15.105469 17.847657-3.730469 45.304688 19.570312 47.242188 3.824219.320312 6.863281 3.355469 7.179688 7.179688 1.9375 23.300781 29.394531 34.675781 47.246093 19.570312 2.929688-2.480469 7.222657-2.480469 10.152344 0 15.988282 13.53125 39.679688 5.800781 45.832032-12.710938-50.195313-2.171874-62.960938-43.097656-56.996094-64.890624 1.03125-3.777344-.710938-7.726563-4.234375-9.433594-21.222657-10.296875-35.429688-47.648438-22.753907-76.320313-10.082031 3.507813-18.222656 12.480469-19.246093 24.785157-.320313 3.824218-3.355469 6.863281-7.179688 7.179687-23.300781 1.9375-34.675781 29.394531-19.570312 47.246094 2.480469 2.925781 2.480469 7.21875 0 10.152343zm0 0" fill="#e26e7e"/><path d="m193.394531 165.328125-140.722656 287.65625c-8.304687 16.976563 2.109375 37.152344 20.753906 40.21875 91.429688 15.035156 184.695313 15.035156 276.121094 0 18.648437-3.066406 29.0625-23.246094 20.757813-40.21875l-140.722657-287.65625c-7.367187-15.054687-28.824219-15.054687-36.1875 0zm0 0" fill="#a3defe"/><path d="m178.433594 195.910156-125.761719 257.074219c-8.300781 16.976563 2.109375 37.152344 20.753906 40.21875 47.058594 7.738281 94.601563 11.480469 142.132813 11.253906-59.917969-53.007812-61.597656-210.949219-37.125-308.546875zm0 0" fill="#7acefa"/><path d="m69.539062 418.511719-16.867187 34.472656c-8.300781 16.976563 2.109375 37.152344 20.753906 40.21875 91.429688 15.035156 184.695313 15.035156 276.121094 0 18.648437-3.066406 29.0625-23.246094 20.757813-40.21875l-16.867188-34.472656c-42.835938 8.734375-92.972656 15.96875-141.949219 15.96875-48.972656 0-99.117187-7.234375-141.949219-15.96875zm0 0" fill="#f7ef87"/><path d="m168.1875 396.183594c0-11.136719-11.335938-20.164063-25.320312-20.164063-13.984376 0-25.320313 9.027344-25.320313 20.164063 0 11.136718 11.335937 20.164062 25.320313 20.164062 13.984374 0 25.320312-9.027344 25.320312-20.164062zm0 0" fill="#ffffff"/><path d="m305.429688 396.183594c0-11.136719-11.335938-20.164063-25.320313-20.164063s-25.320313 9.027344-25.320313 20.164063c0 11.136718 11.335938 20.164062 25.320313 20.164062s25.320313-9.027344 25.320313-20.164062zm0 0" fill="#ffffff"/><path d="m231.902344 380.691406c0-12.617187-9.140625-13.804687-20.414063-13.804687-11.277343 0-20.414062 1.1875-20.414062 13.804687 0 12.613282 9.140625 22.84375 20.414062 22.84375 11.273438 0 20.414063-10.226562 20.414063-22.84375zm0 0" fill="#4e5660"/><path d="m282 272.480469-52.417969-107.152344c-7.367187-15.054687-28.824219-15.054687-36.1875 0l-77.398437 158.210937c46.089844.519532 105.707031-7.214843 166.003906-51.058593zm0 0" fill="#f7ef87"/><g fill="#efd176"><path d="m178.433594 195.910156-62.4375 127.628906c14.652344.164063 30.671875-.511718 47.640625-2.910156.273437-44.253906 5.742187-88.613281 14.796875-124.71875zm0 0"/><path d="m176.613281 433.328125c-37.433593-2.367187-74.382812-8.148437-107.078125-14.816406l-16.863281 34.472656c-8.300781 16.976563 2.109375 37.152344 20.753906 40.21875 47.058594 7.738281 94.601563 11.480469 142.132813 11.253906-17.886719-15.824219-30.582032-41-38.945313-71.128906zm0 0"/><path d="m253.210938 255.980469c0 4.011719-3.253907 7.261719-7.261719 7.261719-4.011719 0-7.265625-3.25-7.265625-7.261719s3.253906-7.261719 7.265625-7.261719c4.007812 0 7.261719 3.25 7.261719 7.261719zm0 0"/><path d="m218.75 203.171875c0 4.011719-3.25 7.261719-7.261719 7.261719s-7.261719-3.25-7.261719-7.261719 3.25-7.261719 7.261719-7.261719 7.261719 3.25 7.261719 7.261719zm0 0"/><path d="m185.699219 272.796875c0 4.011719-3.253907 7.265625-7.265625 7.265625-4.011719 0-7.261719-3.253906-7.261719-7.265625s3.25-7.261719 7.261719-7.261719c4.011718 0 7.265625 3.25 7.265625 7.261719zm0 0"/></g><path d="m123.261719 457.71875c0 4.011719-3.253907 7.265625-7.265625 7.265625-4.011719 0-7.261719-3.253906-7.261719-7.265625s3.25-7.261719 7.261719-7.261719c4.011718 0 7.265625 3.25 7.265625 7.261719zm0 0" fill="#f7ef87"/><path d="m185.699219 479.074219c0 4.011719-3.253907 7.261719-7.265625 7.261719-4.011719 0-7.261719-3.25-7.261719-7.261719s3.25-7.261719 7.261719-7.261719c4.011718 0 7.265625 3.25 7.265625 7.261719zm0 0" fill="#f7ef87"/><path d="m253.210938 457.71875c0 4.011719-3.253907 7.265625-7.261719 7.265625-4.011719 0-7.265625-3.253906-7.265625-7.265625s3.253906-7.261719 7.265625-7.261719c4.007812 0 7.261719 3.25 7.261719 7.261719zm0 0" fill="#efd176"/><path d="m319.953125 471.8125c0 4.011719-3.25 7.261719-7.261719 7.261719-4.011718 0-7.261718-3.25-7.261718-7.261719s3.25-7.261719 7.261718-7.261719c4.011719 0 7.261719 3.25 7.261719 7.261719zm0 0" fill="#efd176"/><path d="m81.480469 245.152344-9.84375 20.703125c-2.496094 5.257812-9.492188 6.363281-13.492188 2.136719l-15.757812-16.644532c-1.308594-1.382812-3.054688-2.273437-4.941407-2.519531l-22.730468-2.964844c-5.769532-.75-8.988282-7.0625-6.203125-12.171875l10.964843-20.128906c.910157-1.671875 1.214844-3.609375.867188-5.480469l-4.207031-22.535156c-1.070313-5.71875 3.941406-10.726563 9.660156-9.660156l22.53125 4.207031c1.875.351562 3.808594.042969 5.480469-.867188l20.132812-10.964843c5.109375-2.78125 11.417969.433593 12.171875 6.203125l2.960938 22.730468c.246093 1.890626 1.136719 3.636719 2.519531 4.945313l16.648438 15.753906c4.226562 4 3.117187 10.996094-2.136719 13.496094l-20.703125 9.839844c-1.71875.816406-3.105469 2.203125-3.921875 3.921875zm0 0" fill="#6fce91"/><path d="m50.539062 180.203125c-.734374.058594-1.476562.027344-2.210937-.109375l-22.53125-4.207031c-5.71875-1.066407-10.730469 3.941406-9.660156 9.660156l4.207031 22.535156c.351562 1.871094.042969 3.804688-.867188 5.480469l-10.964843 20.128906c-2.78125 5.109375.433593 11.421875 6.203125 12.171875l22.730468 2.960938c1.886719.246093 3.632813 1.136719 4.941407 2.519531l15.757812 16.648438c4 4.226562 10.996094 3.117187 13.496094-2.136719l8.179687-17.210938c-21.8125-11.707031-30.742187-44.257812-29.28125-68.441406zm0 0" fill="#3cb767"/><path d="m377.386719 290.964844 9.839843-20.703125c2.5-5.253907 9.496094-6.363281 13.496094-2.136719l15.753906 16.648438c1.3125 1.382812 3.058594 2.273437 4.945313 2.519531l22.730469 2.960937c5.769531.753906 8.984375 7.0625 6.203125 12.171875l-10.964844 20.132813c-.910156 1.671875-1.21875 3.605468-.867187 5.480468l4.207031 22.53125c1.066406 5.722657-3.941407 10.730469-9.660157 9.660157l-22.535156-4.207031c-1.871094-.347657-3.808594-.042969-5.480468.871093l-20.128907 10.960938c-5.109375 2.785156-11.421875-.429688-12.171875-6.203125l-2.964844-22.726563c-.246093-1.890625-1.132812-3.636719-2.515624-4.945312l-16.648438-15.757813c-4.226562-4-3.121094-10.996094 2.136719-13.492187l20.703125-9.84375c1.71875-.816407 3.105468-2.199219 3.921875-3.921875zm0 0" fill="#b49cdc"/><path d="m410.539062 356.027344 22.53125 4.207031c2.71875.507813 5.265626-.367187 7.085938-2.027344-39.316406-10.089843-54.46875-55.308593-54.542969-84.542969l-8.226562 17.300782c-.816407 1.722656-2.203125 3.105468-3.925781 3.925781l-20.703126 9.839844c-5.253906 2.5-6.359374 9.492187-2.136718 13.492187l16.648437 15.757813c1.386719 1.308593 2.273438 3.058593 2.519531 4.945312l2.960938 22.730469c.753906 5.769531 7.066406 8.984375 12.175781 6.203125l20.128907-10.964844c1.671874-.910156 3.609374-1.21875 5.484374-.867187zm0 0" fill="#908cd6"/><path d="m64.15625 278.082031c.820312 0 1.648438-.0625 2.472656-.195312 5.140625-.8125 9.546875-4.109375 11.785156-8.8125l9.839844-20.703125c.078125-.160156.207032-.292969.371094-.367188l20.699219-9.84375c4.703125-2.234375 8-6.640625 8.8125-11.78125.8125-5.144531-.957031-10.351562-4.738281-13.933594l-16.648438-15.753906c-.128906-.125-.214844-.289062-.238281-.46875l-2.960938-22.730468c-.671875-5.164063-3.84375-9.65625-8.484375-12.019532-4.640625-2.363281-10.140625-2.289062-14.714844.203125l-20.128906 10.960938c-.15625.085937-.339844.117187-.515625.082031l-22.535156-4.207031c-5.117187-.953125-10.371094.671875-14.054687 4.355469-3.683594 3.683593-5.308594 8.9375-4.355469 14.054687l4.207031 22.535156c.035156.175781.003906.359375-.082031.515625l-10.964844 20.128906c-2.488281 4.574219-2.5625 10.074219-.199219 14.714844 2.363282 4.640625 6.855469 7.8125 12.019532 8.484375l22.730468 2.960938c.179688.023437.34375.109375.46875.238281l15.753906 16.648438c3.007813 3.175781 7.160157 4.933593 11.460938 4.933593zm-25.742188-36.691406-22.730468-2.964844c-.113282-.015625-.410156-.050781-.597656-.417969-.1875-.367187-.042969-.628906.011718-.730468l10.964844-20.128906c1.730469-3.179688 2.316406-6.890626 1.652344-10.445313l-4.207032-22.535156c-.019531-.109375-.074218-.402344.214844-.695313.191406-.191406.386719-.234375.527344-.234375.074219 0 .132812.011719.167969.019531l22.535156 4.207032c3.554687.664062 7.265625.074218 10.445313-1.65625l20.128906-10.960938c.097656-.054687.359375-.199218.730468-.011718.367188.1875.40625.484374.417969.59375l2.960938 22.730468c.46875 3.589844 2.171875 6.9375 4.800781 9.421875l16.648438 15.757813c.082031.078125.300781.285156.234374.6875-.0625.410156-.335937.539062-.433593.585937l-20.703125 9.839844c-3.269532 1.554687-5.925782 4.210937-7.476563 7.476563v.003906l-9.84375 20.703125c-.046875.101562-.175781.371093-.582031.433593-.410156.066407-.613281-.152343-.691406-.234374l-15.753906-16.644532c-2.488282-2.628906-5.835938-4.335937-9.421876-4.800781zm237.460938 138.484375c4.144531 0 7.5-3.359375 7.5-7.5v-10.867188c0-4.140624-3.355469-7.5-7.5-7.5-4.140625 0-7.5 3.359376-7.5 7.5v10.867188c0 4.140625 3.359375 7.5 7.5 7.5zm97.929688 90.042969c-3.792969-1.675781-8.21875.035156-9.894532 3.820312-2.84375 6.417969-8.667968 10.925781-15.578125 12.0625-90.804687 14.933594-182.886719 14.933594-273.6875 0-6.523437-1.070312-12.003906-5.058593-15.035156-10.929687-3.03125-5.875-3.105469-12.652344-.199219-18.589844l14.328125-29.289062c50.25 9.9375 96.574219 14.988281 137.75 14.988281 41.171875 0 87.496094-5.050781 137.75-14.988281l9.21875 18.84375c1.820313 3.722656 6.3125 5.261718 10.03125 3.441406 3.722657-1.820313 5.261719-6.308594 3.441407-10.03125l-124.535157-254.570313c13.171875-4.652343 22.667969-16.503906 23.890625-31.15625.011719-.175781.148438-.3125.324219-.328125 13.589844-1.128906 25.277344-9.660156 30.496094-22.261718 5.21875-12.597657 2.988281-26.890626-5.824219-37.300782-.113281-.132812-.113281-.328125 0-.464844 8.8125-10.40625 11.042969-24.703124 5.824219-37.300781-5.21875-12.601562-16.90625-21.128906-30.496094-22.261719-.175781-.015624-.3125-.152343-.328125-.328124-1.128906-13.589844-9.660156-25.273438-22.257812-30.492188-12.601563-5.21875-26.894532-2.988281-37.304688 5.824219-.132812.113281-.328125.113281-.460938-.003907-10.414062-8.808593-24.707031-11.039062-37.304687-5.820312-12.601563 5.21875-21.128906 16.902344-22.261719 30.496094-.015625.175781-.152344.3125-.328125.324218-9.207031.769532-17.644531 4.894532-23.753906 11.621094-2.789063 3.066406-2.558594 7.808594.503906 10.59375 3.066407 2.789063 7.8125 2.558594 10.597657-.503906 2.511718-2.765625 6.960937-6.183594 13.898437-6.761719 7.503906-.621093 13.40625-6.523437 14.03125-14.03125.671875-8.089843 5.550781-14.773437 13.050781-17.878906s15.675782-1.832031 21.875 3.414063c5.746094 4.867187 14.089844 4.867187 19.839844 0 6.195312-5.242188 14.375-6.519532 21.875-3.414063s12.378906 9.792969 13.050781 17.878906c.625 7.507813 6.523438 13.410157 14.03125 14.03125 8.089844.675781 14.773438 5.554688 17.882813 13.054688 3.105468 7.5 1.828125 15.675781-3.414063 21.871093-4.867187 5.75-4.867187 14.09375 0 19.84375 5.242188 6.195313 6.519531 14.375 3.410157 21.875-3.105469 7.5-9.789063 12.378907-17.878907 13.050782-7.507812.625-13.40625 6.527344-14.03125 14.03125-.847656 10.167968-7.90625 16.597656-15.628906 18.730468l-4.386719-8.972656c-4.675781-9.558594-14.191406-15.496094-24.832031-15.496094s-20.152344 5.9375-24.828125 15.496094l-4.390625 8.972656c-7.722656-2.132812-14.78125-8.5625-15.628906-18.730468-.625-7.503906-6.523438-13.40625-14.03125-14.03125-8.089844-.671875-14.773438-5.550782-17.878907-13.050782-3.105468-7.5-1.832031-15.675781 3.414063-21.875 4.867187-5.75 4.867187-14.09375 0-19.84375-.976563-1.152343-1.824219-2.382812-2.527344-3.660156-1.992187-3.628906-6.546875-4.960937-10.179687-2.96875-3.632813 1.992188-4.960938 6.550782-2.96875 10.183594 1.179687 2.15625 2.605468 4.222656 4.226562 6.136719.113282.132812.113282.328125-.003906.460937-8.808594 10.410156-11.039062 24.707032-5.820312 37.304688 5.21875 12.601562 16.902343 21.128906 30.496093 22.261718.171875.015626.3125.152344.324219.328126 1.21875 14.648437 10.714844 26.503906 23.890625 31.15625l-129.644531 265.011718c-5.007813 10.242188-4.882813 21.925782.34375 32.058594 5.230468 10.132812 14.683594 17.003906 25.933594 18.851562 46.207031 7.601563 92.742187 11.398438 139.277343 11.398438 46.53125 0 93.066407-3.796875 139.277344-11.398438 11.921875-1.957031 21.960937-9.730468 26.855469-20.785156 1.679687-3.789062-.03125-8.222656-3.816406-9.898437zm-180.449219-287.441407c.007812-.015624.015625-.035156.023437-.050781l6.753906-13.800781c2.167969-4.4375 6.414063-7.085938 11.355469-7.085938 4.941407 0 9.1875 2.648438 11.355469 7.085938l6.753906 13.804688c.003906.011718.011719.023437.019532.039062l42.84375 87.578125c-42.515626 29.464844-89.917969 44.546875-144.402344 45.910156zm-72.683594 148.578126c59.949219-.128907 111.921875-15.671876 158.449219-47.390626l63.296875 129.390626c-47.785157 9.242187-91.792969 13.925781-130.929688 13.925781s-83.144531-4.683594-130.933593-13.925781zm336.269531-25.039063c2.492188-4.574219 2.566406-10.074219.203125-14.714844-2.363281-4.636719-6.859375-7.808593-12.023437-8.480469l-22.730469-2.964843c-.175781-.023438-.339844-.105469-.464844-.234375l-15.757812-16.648438c-3.578125-3.78125-8.789063-5.554687-13.929688-4.742187-5.140625.816406-9.546875 4.109375-11.78125 8.8125l-9.84375 20.703125c-.074219.164062-.207031.292968-.367187.371094l-20.703125 9.839843c-4.703125 2.234375-8 6.640625-8.8125 11.785157-.8125 5.140624.957031 10.351562 4.738281 13.929687l16.648438 15.757813c.128906.121093.214843.289062.238281.464843l2.960937 22.730469c.671875 5.164062 3.847656 9.660156 8.484375 12.023438 2.253907 1.148437 4.710938 1.722656 7.164063 1.722656 2.601562 0 5.199218-.644532 7.546875-1.925782l20.132812-10.964843c.15625-.085938.339844-.113281.515625-.082031l22.53125 4.207031c5.121094.957031 10.375-.671875 14.058594-4.351563 3.679688-3.683594 5.308594-8.9375 4.351562-14.054687l-4.207031-22.535157c-.03125-.175781-.003906-.359374.082031-.515624zm-13.171875-7.175781-10.964843 20.128906c-1.730469 3.179688-2.316407 6.890625-1.652344 10.445312l4.207031 22.535157c.019531.109375.074219.402343-.21875.695312-.289063.292969-.582031.234375-.695313.214844l-22.53125-4.207031c-3.558593-.664063-7.269531-.074219-10.445312 1.65625l-20.128906 10.960937c-.101563.058594-.359375.199219-.730469.011719-.367187-.1875-.40625-.484375-.417969-.597656l-2.964844-22.726563c-.464843-3.589843-2.171874-6.9375-4.800781-9.421875l-16.648437-15.757812c-.082032-.078125-.296875-.28125-.234375-.691406.066406-.40625.335937-.535157.4375-.582032l20.703125-9.839844c3.265625-1.554687 5.921875-4.210937 7.476562-7.476562l9.839844-20.703125c.046875-.101563.175781-.371094.585938-.4375.050781-.007813.097656-.011719.140624-.011719.316407 0 .480469.175782.546876.246094l15.757812 16.648438c2.484375 2.628906 5.832031 4.332031 9.421875 4.800781l22.730469 2.960937c.109375.015625.40625.054688.59375.421875.1875.367188.046875.628907-.007813.726563zm-296.671875 55.167968c-4.140625 0-7.5 3.355469-7.5 7.5v10.867188c0 4.140625 3.359375 7.5 7.5 7.5 4.144532 0 7.5-3.359375 7.5-7.5v-10.867188c0-4.144531-3.355468-7.5-7.5-7.5zm92.304688 26.683594c0-21.300781-19.5625-21.300781-27.914063-21.300781-8.355469 0-27.914062 0-27.914062 21.300781 0 16.730469 12.519531 30.34375 27.914062 30.34375 15.390625 0 27.914063-13.613281 27.914063-30.34375zm-40.828125 0c0-4.328125 0-6.300781 12.914062-6.300781 12.914063 0 12.914063 1.972656 12.914063 6.300781 0 8.460938-5.792969 15.34375-12.914063 15.34375-7.121093 0-12.914062-6.882812-12.914062-15.34375zm0 0"/></g><g transform="matrix(0.20100538432598114 0 0 0.20100538432598114 214.81410374259553 -17.569299303693242)" id="L1_3"><path d="m335.210938 375.105469-198.316407-198.316407c-11.648437-11.648437-31.484375-6.964843-36.691406 8.660157l-90.980469 272.9375c-9.144531 27.433593 16.957032 53.535156 44.394532 44.390625l272.933593-90.976563c15.628907-5.210937 20.308594-25.046875 8.660157-36.695312zm0 0" fill="#b49cdc"/><path d="m119.574219 170.363281c-8.410157.652344-16.351563 6.023438-19.371094 15.085938l-90.980469 272.9375c-9.144531 27.433593 16.957032 53.535156 44.394532 44.390625l134.550781-44.851563c-85.566407-62.617187-94.625-218.476562-68.59375-287.5625zm0 0" fill="#908cd6"/><path d="m335.210938 375.105469-198.316407-198.316407c-11.648437-11.648437-31.484375-6.964843-36.691406 8.660157l-15.519531 46.554687c51.335937 17.546875 66.535156 68.503906 96.671875 98.640625s81.09375 45.335938 98.640625 96.671875l46.554687-15.519531c15.628907-5.207031 20.308594-25.042969 8.660157-36.691406zm0 0" fill="#f7ef87"/><path d="m119.574219 170.363281c-8.410157.652344-16.351563 6.023438-19.371094 15.085938l-15.519531 46.554687c8.292968 2.832032 15.628906 6.550782 22.25 10.898438 1.019531-28.21875 5.515625-53.628906 12.640625-72.539063zm0 0" fill="#efd176"/><path d="m426.414062 146.113281c0 24.792969-20.097656 44.890625-44.890624 44.890625-24.792969 0-44.890626-20.097656-44.890626-44.890625s20.097657-44.890625 44.890626-44.890625c24.792968 0 44.890624 20.097656 44.890624 44.890625zm0 0" fill="#8eafe2"/><path d="m239.992188 33.875 10.25-21.558594c2.601562-5.472656 9.886718-6.628906 14.050781-2.226562l16.410156 17.339844c1.363281 1.441406 3.183594 2.367187 5.148437 2.621093l23.671876 3.085938c6.011718.78125 9.359374 7.355469 6.460937 12.675781l-11.417969 20.964844c-.949218 1.742187-1.269531 3.757812-.90625 5.710937l4.382813 23.464844c1.113281 5.957031-4.105469 11.175781-10.0625 10.0625l-23.464844-4.382813c-1.953125-.363281-3.96875-.042968-5.710937.90625l-20.964844 11.417969c-5.320313 2.898438-11.894532-.453125-12.675782-6.460937l-3.085937-23.671875c-.253906-1.964844-1.183594-3.785157-2.621094-5.148438l-17.339843-16.410156c-4.402344-4.164063-3.246094-11.453125 2.226562-14.054687l21.558594-10.246094c1.792968-.855469 3.238281-2.296875 4.089844-4.089844zm0 0" fill="#eda1ab"/><path d="m268.808594 102.539062c1.742187-.953124 3.757812-1.269531 5.707031-.90625l23.46875 4.382813c3.683594.6875 7.078125-1.050781 8.875-3.878906-44.925781-14.160157-58.421875-58.421875-55.941406-90.980469-.25.363281-.480469.742188-.675781 1.160156l-10.25 21.558594c-.851563 1.792969-2.296876 3.234375-4.085938 4.085938l-21.5625 10.25c-5.472656 2.601562-6.625 9.886718-2.222656 14.050781l17.335937 16.414062c1.441407 1.363281 2.367188 3.179688 2.625 5.148438l3.082031 23.671875c.785157 6.007812 7.355469 9.355468 12.679688 6.457031zm0 0" fill="#e26e7e"/><path d="m417.425781 291.515625 20.25 9.628906c5.140625 2.441407 6.226563 9.285157 2.09375 13.199219l-16.285156 15.410156c-1.355469 1.28125-2.222656 2.992188-2.464844 4.839844l-2.898437 22.230469c-.734375 5.644531-6.910156 8.792969-11.90625 6.066406l-19.691406-10.722656c-1.636719-.890625-3.53125-1.191407-5.359376-.847657l-22.042968 4.113282c-5.59375 1.046875-10.496094-3.855469-9.449219-9.449219l4.113281-22.042969c.34375-1.832031.042969-3.722656-.847656-5.359375l-10.726562-19.691406c-2.71875-4.996094.425781-11.171875 6.070312-11.90625l22.230469-2.898437c1.847656-.238282 3.558593-1.109376 4.839843-2.464844l15.410157-16.285156c3.914062-4.132813 10.757812-3.050782 13.199219 2.09375l9.628906 20.25c.800781 1.683593 2.15625 3.039062 3.835937 3.835937zm0 0" fill="#6fce91"/><path d="m386.523438 352.167969 19.691406 10.726562c4.445312 2.421875 9.8125.195313 11.464844-4.296875-22.164063-7.886718-43.253907-48.570312-41.453126-77.898437l-.875.921875c-1.28125 1.355468-2.988281 2.226562-4.835937 2.464844l-22.234375 2.898437c-5.644531.734375-8.789062 6.910156-6.066406 11.90625l10.726562 19.691406c.890625 1.636719 1.1875 3.53125.847656 5.363281l-4.117187 22.039063c-1.042969 5.59375 3.855469 10.496094 9.449219 9.449219l22.042968-4.113282c1.828126-.34375 3.722657-.042968 5.359376.847657zm0 0" fill="#3cb767"/><path d="m62.441406 449.558594c-12.789062-12.789063-26.964844-22.402344-40.800781-28.421875l-12.417969 37.25c-9.144531 27.433593 16.957032 53.535156 44.394532 44.390625l37.246093-12.417969c-6.019531-13.835937-15.628906-28.011719-28.421875-40.800781zm0 0" fill="#efd176"/><path d="m419.53125 169.984375c-52.703125-.011719-62.875-41.84375-57.546875-64.292969-15.003906 7.265625-25.351563 22.632813-25.351563 40.421875 0 24.789063 20.097657 44.890625 44.890626 44.890625 16.015624 0 30.0625-8.394531 38.007812-21.019531zm0 0" fill="#6a96d7"/><path d="m98.558594 353.550781c7.699218-7.699219 6.105468-21.78125-3.566406-31.453125-9.667969-9.667968-23.753907-11.265625-31.453126-3.566406-7.699218 7.703125-6.105468 21.785156 3.566407 31.453125 9.667969 9.671875 23.75 11.269531 31.453125 3.566406zm0 0" fill="#ffffff"/><path d="m158.445312 413.449219c-7.703124 7.699219-6.105468 21.78125 3.5625 31.453125 9.671876 9.667968 23.753907 11.265625 31.453126 3.5625 7.703124-7.699219 6.105468-21.78125-3.5625-31.453125-9.671876-9.667969-23.753907-11.265625-31.453126-3.5625zm0 0" fill="#ffffff"/><path d="m153.332031 386.902344c8.722657-8.722656 3.222657-15.863282-4.574219-23.660156-7.796874-7.796876-14.9375-13.296876-23.660156-4.574219-8.726562 8.726562-9.476562 22.117187-1.679687 29.914062s21.191406 7.046875 29.914062-1.679687zm0 0" fill="#4e5660"/><path d="m248.570312 175.367188c-1.121093 9.296874-7.925781 37.941406-8.84375 40.695312-1.367187 3.847656.644532 8.074219 4.496094 9.445312.816406.289063 1.652344.425782 2.472656.425782 3.042969 0 5.890626-1.890625 6.96875-4.921875 1.289063-3.636719 8.347657-33.597657 9.589844-43.867188.488282-4.054687-2.402344-7.738281-6.453125-8.230469-4.046875-.484374-7.738281 2.402344-8.230469 6.453126zm-69.898437 1.269531c.808594.28125 1.632813.414062 2.441406.414062 3.054688 0 5.914063-1.90625 6.980469-4.953125 5.617188-16.054687 7.769531-43.28125 4.792969-60.695312-.6875-4.027344-4.5-6.730469-8.53125-6.042969-4.027344.683594-6.730469 4.507813-6.042969 8.53125 2.527344 14.816406.578125 39.734375-4.175781 53.324219-1.347657 3.851562.679687 8.070312 4.535156 9.421875zm45.703125-92.59375c.203125.195312.335938.457031.375.738281l3.082031 23.671875c.683594 5.242187 3.90625 9.804687 8.613281 12.203125 2.289063 1.164062 4.78125 1.746094 7.273438 1.746094 2.636719 0 5.273438-.652344 7.660156-1.953125l20.96875-11.421875c.246094-.132813.535156-.179688.8125-.125l23.464844 4.378906c5.191406.96875 10.53125-.679688 14.269531-4.417969s5.390625-9.074219 4.417969-14.265625l-4.378906-23.46875c-.054688-.277344-.007813-.566406.128906-.816406l11.417969-20.960938c2.527343-4.644531 2.605469-10.226562.203125-14.933593-2.398438-4.710938-6.960938-7.929688-12.199219-8.613281l-23.675781-3.085938c-.277344-.035156-.539063-.167969-.734375-.371094l-16.410157-17.339844c-3.632812-3.839843-8.914062-5.636718-14.140624-4.8125-5.21875.828126-9.691407 4.171876-11.960938 8.945313l-10.25 21.558594v.003906c-.121094.253906-.328125.460937-.582031.582031l-21.5625 10.25c-4.773438 2.269532-8.113281 6.738282-8.941407 11.960938-.828124 5.21875.972657 10.503906 4.808594 14.136718zm-7.542969-28.234375c.066407-.425782.296875-.734375.6875-.921875l21.558594-10.246094c3.320313-1.578125 6.015625-4.273437 7.589844-7.589844l10.25-21.5625c.183593-.386719.492187-.617187.917969-.6875.421874-.066406.792968.058594 1.085937.371094l16.414063 17.339844c2.523437 2.667969 5.921874 4.398437 9.5625 4.871093l23.671874 3.085938c.425782.054688.742188.277344.9375.660156.195313.382813.1875.769532-.015624 1.148438l-11.417969 20.964844c-1.757813 3.222656-2.355469 6.988281-1.679688 10.601562l4.378907 23.46875c.082031.421875-.035157.789062-.339844 1.09375-.300782.304688-.671875.417969-1.09375.339844l-23.46875-4.378906c-3.613282-.675782-7.375-.082032-10.601563 1.675781l-20.964843 11.421875c-.378907.203125-.765626.207031-1.148438.015625-.382812-.195313-.605469-.511719-.660156-.9375l-3.085938-23.671875c-.472656-3.644532-2.203125-7.039063-4.871094-9.566406l-17.339843-16.410157c-.308594-.296875-.433594-.660156-.367188-1.085937zm164.839844 142.527344c8.449219 0 16.941406-2.023438 24.664063-6.191407 3.597656-1.9375 4.9375-6.421875 2.996093-10.015625-1.9375-3.59375-6.421875-4.9375-10.015625-2.996094-14.457031 7.796876-32.679687 5.125-44.308594-6.507812-14.617187-14.617188-14.617187-38.40625 0-53.027344 14.621094-14.617187 38.410157-14.617187 53.027344 0 9.984375 9.984375 13.503906 24.546875 9.1875 38.003906-1.246094 3.890626.894532 8.054688 4.785156 9.300782 3.886719 1.246094 8.050782-.894532 9.296876-4.78125 6.019531-18.757813 1.109374-39.058594-12.8125-52.976563-20.382813-20.386719-53.554688-20.386719-73.941407 0-20.382812 20.386719-20.382812 53.554688.003907 73.9375 10.003906 10.003907 23.503906 15.257813 37.117187 15.253907zm-106.683594 56.855468c-3.515625 2.078125-4.683593 6.609375-2.605469 10.125 1.378907 2.335938 3.84375 3.632813 6.375 3.632813 1.277344 0 2.574219-.328125 3.753907-1.027344 14.027343-8.289063 40.582031-16.636719 64.335937-16.636719h.382813c4.070312 0 7.378906-3.292968 7.394531-7.367187.015625-4.082031-3.285156-7.40625-7.367188-7.421875-27.746093-.085938-56.917968 9.621094-72.269531 18.695312zm-143.425781-167.15625c1.445312 1.445313 3.335938 2.167969 5.230469 2.167969 1.890625 0 3.78125-.722656 5.226562-2.167969l4.9375-4.9375 4.9375 4.9375c1.445313 1.445313 3.335938 2.167969 5.230469 2.167969 1.890625 0 3.785156-.722656 5.230469-2.167969 2.886719-2.886718 2.886719-7.566406 0-10.453125l-4.941407-4.941406 4.941407-4.9375c2.886719-2.886719 2.886719-7.570313 0-10.457031-2.890625-2.886719-7.570313-2.886719-10.457031 0l-4.9375 4.9375-4.941407-4.9375c-2.886719-2.886719-7.566406-2.886719-10.457031 0-2.886719 2.886718-2.886719 7.570312 0 10.457031l4.941406 4.9375-4.941406 4.941406c-2.886719 2.886719-2.886719 7.566407 0 10.453125zm327.007812 125.453125c-16.359374 1.222657-31.363281 3.777344-44.601562 7.585938-3.925781 1.128906-6.191406 5.226562-5.0625 9.148437.933594 3.242188 3.890625 5.351563 7.101562 5.351563.675782 0 1.367188-.09375 2.046876-.289063 12.265624-3.53125 26.269531-5.902344 41.621093-7.050781 4.070313-.304687 7.125-3.851563 6.820313-7.925781-.304688-4.070313-3.84375-7.117188-7.925782-6.820313zm-263.847656 203.300781 7.515625-7.515624c2.886719-2.886719 2.886719-7.566407-.003906-10.457032-2.882813-2.886718-7.566406-2.886718-10.453125 0l-7.515625 7.515625c-2.890625 2.890625-2.890625 7.570313 0 10.457031 1.441406 1.445313 3.335937 2.167969 5.226563 2.167969 1.894531 0 3.785156-.722656 5.230468-2.167969zm246.128906-122.324218-20.25-9.625c0-.003906 0-.003906 0-.003906-.148437-.066407-.265624-.1875-.335937-.332032l-9.625-20.25c-2.195313-4.617187-6.519531-7.851562-11.570313-8.652344-5.046874-.800781-10.164062.941407-13.675781 4.652344l-15.410156 16.285156c-.113281.117188-.265625.195313-.425781.214844l-22.234375 2.898438c-5.070313.660156-9.484375 3.773437-11.804688 8.332031-2.320312 4.554687-2.246093 9.953125.199219 14.441406l10.726562 19.695313c.074219.140625.101563.304687.070313.464844l-4.113281 22.039062c-.9375 5.027344.660156 10.1875 4.273437 13.800781 3.617188 3.617188 8.773438 5.214844 13.800781 4.277344l22.042969-4.117187c.160157-.027344.324219-.003907.464844.074218l19.691406 10.726563c2.308594 1.257812 4.859375 1.886719 7.414063 1.886719 2.410156 0 4.820312-.5625 7.035156-1.691407 4.554688-2.320312 7.667969-6.730469 8.328125-11.800781l2.898437-22.234375c.019532-.164063.09375-.3125.214844-.421875l16.285156-15.414062c3.710938-3.515626 5.453126-8.625 4.652344-13.675782-.800781-5.050781-4.035156-9.375-8.652344-11.570312zm-6.164062 14.507812-16.285156 15.410156c-2.582032 2.445313-4.253906 5.730469-4.714844 9.253907l-2.898438 22.234375c-.011718.101562-.046874.371094-.378906.539062-.332031.167969-.570312.039063-.660156-.007812l-19.691406-10.726563c-2.28125-1.242187-4.84375-1.886719-7.421875-1.886719-.945313 0-1.894531.085938-2.828125.261719l-22.042969 4.117188c-.101563.015625-.367187.066406-.628906-.195313-.265625-.265625-.214844-.53125-.195313-.632812l4.113282-22.039063c.652343-3.496093.074218-7.136719-1.625-10.257812l-10.722657-19.6875c-.050781-.089844-.179687-.328125-.007812-.660157.167969-.332031.4375-.367187.535156-.378906l22.238281-2.898437c3.519532-.460938 6.804688-2.132813 9.25-4.714844l15.414063-16.285156c.066406-.074219.253906-.273438.621093-.210938.371094.058594.484376.300781.527344.394531l9.628906 20.25c1.527344 3.207032 4.132813 5.816407 7.34375 7.339844l20.246094 9.628906c.09375.042969.339844.15625.394532.527344.058593.367188-.136719.554688-.210938.625zm-292.566406-137.410156c-7.292969-7.300781-17.648438-10.238281-27.6875-7.867188-10.042969 2.371094-17.984375 9.628907-21.246094 19.417969l-59.746094 179.234375c-1.289062 3.871094.804688 8.058594 4.675782 9.351563 3.875 1.289062 8.0625-.800781 9.355468-4.675781l41.769532-125.3125c27.652343 12.054687 43.648437 35.535156 59.144531 58.3125 8.492187 12.480468 17.277343 25.386718 27.738281 35.851562 10.464844 10.460938 23.371094 19.246094 35.851562 27.738281 22.777344 15.496094 46.257813 31.492188 58.3125 59.144531l-175.535156 58.511719c-6.574218-13.035156-15.839844-25.695312-27.082031-36.9375-11.246094-11.246093-23.90625-20.511719-36.941406-27.085937l5.507812-16.527344c1.292969-3.871094-.800781-8.058594-4.675781-9.351562-3.875-1.289063-8.058594.804687-9.351562 4.675781l-7.613282 22.84375c-.003906.003906-.003906.007812-.003906.015625l-12.382812 37.144531c-5.125 15.367187-1.191407 32.027344 10.261718 43.480469 8.132813 8.132812 18.890625 12.472656 29.945313 12.472656 4.515625 0 9.082031-.722656 13.535156-2.207031l272.9375-90.980469c9.785156-3.261719 17.042969-11.203125 19.414063-21.246094 2.371093-10.042968-.570313-20.390625-7.863282-27.6875zm-90.84375 324.199219c-10.167969 3.390625-20.765625.886719-28.347656-6.691407-7.578126-7.582031-10.082032-18.175781-6.691407-28.347656l9.761719-29.28125c10.960938 5.796875 21.628906 13.757813 31.214844 23.34375 9.582031 9.585938 17.546875 20.253906 23.34375 31.214844zm282.636718-101.59375c-1.183593 5.015625-4.8125 8.984375-9.703124 10.617187l-39.832032 13.277344c-13.613281-32.328125-40.328125-50.511719-64.082031-66.675781-12.464844-8.480469-24.234375-16.492188-33.710937-25.96875-9.480469-9.476563-17.492188-21.25-25.972657-33.714844-16.164062-23.753906-34.347656-50.46875-66.675781-64.078125l13.28125-39.835938c1.652344-4.964843 5.523438-8.5 10.613281-9.699218 5.015625-1.1875 10.191407.28125 13.835938 3.925781l198.316406 198.320313c3.699219 3.699218 5.132813 8.742187 3.929687 13.832031zm163.699219-99.722657 4.9375-4.941406c2.890625-2.886718 2.890625-7.566406 0-10.453125-2.886719-2.890625-7.566406-2.890625-10.453125 0l-4.941406 4.9375-4.9375-4.9375c-2.890625-2.890625-7.570312-2.890625-10.457031 0-2.890625 2.886719-2.890625 7.566407 0 10.453125l4.9375 4.941406-4.9375 4.9375c-2.890625 2.886719-2.890625 7.570313 0 10.457032 1.441406 1.445312 3.335937 2.164062 5.226562 2.164062s3.785157-.71875 5.230469-2.164062l4.9375-4.9375 4.941406 4.9375c1.441406 1.441406 3.335938 2.164062 5.226563 2.164062s3.785156-.71875 5.230469-2.164062c2.886718-2.886719 2.886718-7.570313 0-10.457032zm-379.425781 99.363282c4.910156 4.910156 11.464844 7.558594 18.613281 7.558594.542969 0 1.089844-.015626 1.640625-.046876 7.46875-.417968 14.613282-3.683593 20.121094-9.191406 7.566406-7.566406 7.28125-14.890625 5.707031-19.703125-1.667969-5.097656-5.316406-9.445312-10.28125-14.414062-4.964843-4.964844-9.316406-8.613281-14.414062-10.28125-4.8125-1.574219-12.132813-1.859375-19.703125 5.707031-11.59375 11.597656-12.347656 29.707031-1.683594 40.371094zm12.136719-29.910156c1.863281-1.863282 3.015625-2.277344 3.785156-2.277344.359375 0 .640625.089844.867187.167968 2.449219.800782 5.699219 3.824219 8.554688 6.679688s5.882812 6.105469 6.683594 8.554688c.230468.714843.625 1.914062-2.113282 4.652343-2.933593 2.933594-6.65625 4.664063-10.488281 4.882813-3.527343.191406-6.707031-.941406-8.96875-3.203125-4.898437-4.902344-4.148437-13.632813 1.679688-19.457031zm-27.597657-54.136719-7.515624 7.519531c-2.890626 2.886719-2.890626 7.566406 0 10.457031 1.441406 1.441407 3.335937 2.164063 5.226562 2.164063 1.894531 0 3.785156-.722656 5.230469-2.164063l7.515625-7.515625c2.886718-2.890625 2.886718-7.570312 0-10.457031-2.886719-2.886719-7.570313-2.890625-10.457032-.003906zm0 0"/></g><g transform="matrix(0.18071570992469788 0 0 0.18071570992469788 213.63937452939047 174.98415950651042)" id="L1_7"><path d="m492.042969 124.566406c-5.175781-6.042968-11.363281-10.59375-18.0625-13.65625-4.59375-2.097656-7.460938-6.644531-7.363281-11.691406.273437-14.625-5.160157-29.335938-16.320313-40.496094-3.515625-3.515625-7.382813-6.457031-11.492187-8.832031-3.121094-1.804687-5.5-4.710937-6.3125-8.222656-2.007813-8.691407-6.667969-16.886719-13.996094-23.296875-16.640625-14.558594-41.9375-14.390625-58.414063.359375-3.722656 3.335937-6.734375 7.136719-9.039062 11.230469-1.925781 3.414062-5.328125 5.792968-9.207031 6.335937-12.65625 1.769531-24.820313 7.875-34.078126 18.34375-18.746093 21.191406-18.457031 53.617187.632813 74.496094 15.953125 17.445312 40.128906 22.339843 60.699219 14.6875 3.742187-1.390625 7.933594-1.101563 11.273437 1.082031 3.527344 2.308594 7.261719 4.175781 11.117188 5.601562 4.730469 1.75 8.03125 6.039063 8.316406 11.074219.703125 12.402344 5.785156 24.597657 15.261719 34.070313 21.339844 21.339844 56.496094 20.441406 76.671875-2.699219 16.933593-19.425781 17.066406-48.808594.3125-68.386719zm0 0" fill="#fcf2d0"/><g fill="#f6e3a3"><path d="m490.921875 193.828125c-58.085937 2.324219-82.261719-55.730469-75.65625-82.328125 1.050781-4.242188-1.390625-8.492188-5.578125-9.730469-36.238281-10.691406-56.707031-63.46875-20.941406-94.195312-10.300782.175781-20.550782 3.894531-28.664063 11.15625-3.777343 3.382812-6.824219 7.25-9.144531 11.414062-1.886719 3.386719-5.257812 5.617188-9.097656 6.152344-12.660156 1.765625-24.824219 7.871094-34.085938 18.34375-18.742187 21.191406-18.453125 53.617187.636719 74.496094 15.953125 17.445312 40.128906 22.335937 60.699219 14.6875 3.742187-1.390625 7.929687-1.101563 11.273437 1.082031 3.527344 2.308594 7.257813 4.175781 11.117188 5.601562 4.730469 1.75 8.027343 6.039063 8.3125 11.074219.707031 12.402344 5.789062 24.597657 15.261719 34.070313 21.0625 21.0625 55.578124 20.445312 75.867187-1.824219zm0 0"/><path d="m406.449219 46.445312c0 4.003907-3.246094 7.25-7.25 7.25-4.003907 0-7.25-3.246093-7.25-7.25 0-4.003906 3.246093-7.25 7.25-7.25 4.003906 0 7.25 3.246094 7.25 7.25zm0 0"/><path d="m476.609375 156.316406c0 4.003906-3.246094 7.25-7.25 7.25s-7.25-3.246094-7.25-7.25 3.246094-7.25 7.25-7.25 7.25 3.246094 7.25 7.25zm0 0"/></g><path d="m392.402344 109.289062c0 4.003907-3.246094 7.25-7.25 7.25s-7.25-3.246093-7.25-7.25c0-4.003906 3.246094-7.25 7.25-7.25s7.25 3.246094 7.25 7.25zm0 0" fill="#fcf2d0"/><path d="m293.324219 216.433594 41.675781-41.675782-68.613281-68.613281-41.675781 41.675781c-15.324219 15.324219-36.65625 23.058594-58.238282 21.121094-22.597656-2.03125-44.925781 6.0625-60.96875 22.105469l-84.699218 84.703125c-17.738282 17.734375-17.738282 46.492188 0 64.230469l80.359374 80.363281c17.738282 17.738281 46.496094 17.738281 64.234376 0l84.699218-84.699219c16.042969-16.042969 24.140625-38.375 22.109375-60.96875-1.941406-21.585937 5.796875-42.914062 21.117188-58.242187zm0 0" fill="#6fce91"/><path d="m115.5 182.640625c-3.535156 2.496094-6.886719 5.296875-9.996094 8.40625l-84.699218 84.703125c-17.738282 17.734375-17.738282 46.496094 0 64.230469l80.359374 80.363281c17.738282 17.738281 46.496094 17.738281 64.234376 0l17.695312-17.695312c-57.085938-33.875-79.550781-141.007813-67.59375-220.007813zm0 0" fill="#4caf50"/><path d="m197.75 243.394531c13.542969 13.542969 42.875 37.285157 73.339844 52.769531 1.363281-7.003906 1.769531-14.230468 1.117187-21.488281-1.9375-21.585937 5.796875-42.917969 21.121094-58.242187l41.675781-41.675782-68.617187-68.613281-41.675781 41.675781c-15.320313 15.324219-36.65625 23.058594-58.238282 21.121094-7.257812-.652344-14.484375-.25-21.488281 1.117188 15.484375 30.464844 39.226563 59.796875 52.765625 73.335937zm0 0" fill="#f7ef87"/><path d="m312.910156 196.855469-68.613281-68.613281 22.089844-22.09375 68.617187 68.613281zm0 0" fill="#efd176"/><path d="m378.613281 136.996094-74.460937-74.460938c-6.101563-6.101562-15.996094-6.101562-22.097656 0l-18.589844 18.589844c-6.101563 6.101562-6.101563 15.996094 0 22.097656l74.460937 74.460938c6.101563 6.101562 15.996094 6.101562 22.097657 0l18.589843-18.589844c6.101563-6.101562 6.101563-15.996094 0-22.097656zm0 0" fill="#6fce91"/><path d="m229.457031 258.71875c15.105469-15.109375 16.824219-37.882812 3.839844-50.871094-12.988281-12.984375-35.761719-11.265625-50.871094 3.839844-15.105469 15.109375-16.828125 37.882812-3.839843 50.871094 12.988281 12.988281 35.761718 11.269531 50.871093-3.839844zm0 0" fill="#e1b89a"/><path d="m92.621094 203.933594 144.59375 144.59375-70.144532 70.140625-144.59375-144.59375zm0 0" fill="#fcf2d0"/><path d="m112.398438 223.714844-19.78125-19.78125-70.140626 70.144531 144.59375 144.59375 16.023438-16.023437c-47.636719-28.265626-71.160156-107.546876-70.695312-178.933594zm0 0" fill="#f6e3a3"/><path d="m212.449219 249.214844c-1.917969 0-3.839844-.730469-5.300781-2.195313l-13.019532-13.019531c-2.929687-2.929688-2.929687-7.679688 0-10.609375 2.925782-2.925781 7.675782-2.925781 10.605469 0l13.019531 13.019531c2.929688 2.929688 2.929688 7.679688 0 10.609375-1.464844 1.464844-3.382812 2.195313-5.304687 2.195313zm0 0" fill="#ffffff"/><path d="m93.539062 295.300781c6.726563-6.722656 5.332032-19.023437-3.113281-27.464843-8.445312-8.445313-20.742187-9.839844-27.46875-3.113282-6.722656 6.722656-5.328125 19.023438 3.117188 27.464844 8.441406 8.445312 20.742187 9.839844 27.464843 3.113281zm0 0" fill="#eda1ab"/><path d="m145.839844 347.613281c-6.726563 6.722657-5.332032 19.023438 3.113281 27.464844 8.445313 8.445313 20.742187 9.839844 27.46875 3.113281 6.726563-6.722656 5.332031-19.023437-3.113281-27.464844-8.445313-8.445312-20.742188-9.839843-27.46875-3.113281zm0 0" fill="#eda1ab"/><path d="m169.671875 347.144531 5.398437-5.402343c2.929688-2.929688 2.929688-7.675782 0-10.605469-2.929687-2.929688-7.679687-2.929688-10.605468 0l-5.402344 5.398437c-2.925781 2.929688-2.925781 7.679688 0 10.609375 1.464844 1.464844 3.386719 2.195313 5.304688 2.195313 1.917968 0 3.839843-.730469 5.304687-2.195313zm-46.136719-53.65625c-4.136718-.289062-7.710937 2.835938-7.996094 6.96875-.46875 6.8125 2.027344 13.480469 6.847657 18.300781 4.4375 4.4375 10.441406 6.90625 16.679687 6.90625.539063 0 1.082032-.019531 1.621094-.058593 4.132812-.28125 7.253906-3.863281 6.96875-7.996094-.28125-4.132813-3.871094-7.246094-7.996094-6.96875-2.480468.171875-4.910156-.738281-6.664062-2.488281-1.753906-1.753906-2.664063-4.183594-2.492188-6.667969.285156-4.128906-2.835937-7.710937-6.96875-7.996094zm374.203125-173.796875c-5.746093-6.71875-12.691406-11.96875-20.640625-15.601562-1.878906-.859375-3.023437-2.671875-2.984375-4.730469.328125-17.359375-6.246093-33.675781-18.511719-45.941406-3.898437-3.898438-8.285156-7.269531-13.039062-10.019531-1.445312-.835938-2.449219-2.082032-2.757812-3.421876-2.453126-10.605468-8.113282-20.027343-16.371094-27.25-19.574219-17.125-48.960938-16.945312-68.351563.417969-4.246093 3.796875-7.800781 8.21875-10.570312 13.132813-.796875 1.410156-2.183594 2.378906-3.710938 2.589844-14.910156 2.085937-28.640625 9.472656-38.660156 20.800781-.578125.65625-1.140625 1.328125-1.699219 2.011719-8.050781-2.679688-17.289062-.847657-23.6875 5.550781l-18.589844 18.589843c-8.207031 8.203126-8.917968 21.082032-2.1875 30.128907l-36.570312 36.570312c-13.789062 13.789063-32.839844 20.695313-52.265625 18.949219-24.878906-2.234375-49.277344 6.613281-66.941406 24.277344l-46.070313 46.074218c-2.929687 2.925782-2.929687 7.675782 0 10.605469 1.460938 1.464844 3.382813 2.195313 5.300782 2.195313 1.917968 0 3.839843-.730469 5.304687-2.195313l27.882813-27.882812 133.988281 133.984375-59.539063 59.539062-133.984375-133.988281 6.578125-6.578125c2.929688-2.929688 2.929688-7.679688 0-10.605469-2.929687-2.929687-7.679687-2.929687-10.605468 0l-11.878907 11.875c0 .003907-.003906.003907-.003906.003907 0 .003906-.003906.003906-.003906.003906l-1.667969 1.667968c-9.996094 9.996094-15.5 23.285157-15.5 37.421876 0 14.132812 5.503906 27.421874 15.5 37.417968l80.363281 80.363282c9.996094 9.996093 23.28125 15.5 37.417969 15.5s27.425781-5.503907 37.421875-15.5l84.699219-84.703126c17.664062-17.660156 26.511718-42.0625 24.273437-66.941406-1.746093-19.425781 5.160157-38.472656 18.953125-52.265625l36.5625-36.5625c3.96875 2.960938 8.746094 4.582031 13.78125 4.582031 6.179688 0 11.984375-2.40625 16.355469-6.773437l18.585937-18.585937c2.035157-2.035157 3.621094-4.386719 4.757813-6.9375.070313.023437.136719.054687.207031.082031 1.96875.726562 3.3125 2.480469 3.425782 4.464843.835937 14.699219 7.03125 28.535157 17.445312 38.949219 7.808594 7.804688 17.582031 13.296875 28.265625 15.875.59375.144531 1.183594.210938 1.765625.210938 3.386719 0 6.457031-2.308594 7.285156-5.742188.972656-4.027343-1.503906-8.078125-5.53125-9.050781-8-1.929688-15.324218-6.046875-21.175781-11.902344-7.808594-7.804687-12.453125-18.171875-13.078125-29.191406-.449219-7.945312-5.632812-14.886719-13.203125-17.683594-1.457031-.539062-2.894531-1.164062-4.300781-1.847656-1.070313-3.714844-3.054688-7.125-5.863282-9.933594l-71.25-71.25c.234376-.277344.46875-.5625.707032-.832031 7.65625-8.65625 18.132812-14.296875 29.5-15.882813 6.128906-.859374 11.628906-4.625 14.703125-10.082031 1.964843-3.484375 4.492187-6.621093 7.511719-9.324219 13.753906-12.316406 34.589843-12.445312 48.46875-.304687 5.871093 5.136719 9.894531 11.824219 11.628906 19.339844 1.242187 5.367187 4.835937 10.117187 9.863281 13.027343 3.625 2.09375 6.96875 4.664063 9.945313 7.640626 9.355468 9.359374 14.371093 21.808593 14.121093 35.054687-.148437 8 4.457031 15.324219 11.746094 18.652344 5.949219 2.722656 11.160156 6.664062 15.480469 11.714843 14.347656 16.761719 14.234375 41.949219-.269532 58.578126-4.152343 4.765624-9.101562 8.527343-14.714843 11.183593-3.742188 1.769531-5.34375 6.242188-3.570313 9.984375 1.28125 2.710938 3.972656 4.296875 6.785156 4.296875 1.074219 0 2.164063-.234375 3.203126-.722656 7.492187-3.546875 14.085937-8.554687 19.605468-14.882813 19.355469-22.199218 19.511719-55.816406.359375-78.191406zm-364.457031 306.457032c-10.128906 0-19.648438-3.945313-26.8125-11.109376l-80.363281-80.363281c-7.160157-7.160156-11.105469-16.683593-11.105469-26.808593 0-8.398438 2.71875-16.371094 7.722656-22.933594l133.492188 133.492187c-6.5625 5.003907-14.539063 7.722657-22.933594 7.722657zm111.515625-95.808594-7.585937 7.582031-133.984376-133.988281 7.582032-7.582032c8.515625-8.515624 18.945312-14.511718 30.238281-17.664062 8.628906 15.996094 18.609375 30.371094 26.527344 40.847656-8.355469 16.507813-6.664063 35.960938 5.710937 48.332032 7.292969 7.292968 17.050782 10.878906 27.214844 10.878906 7.070312 0 14.335938-1.75 21.109375-5.175782 10.476563 7.917969 24.851563 17.902344 40.855469 26.53125-3.152344 11.292969-9.152344 21.722657-17.667969 30.238282zm-62.09375-107.113282c.046875-.066406.089844-.136718.132813-.207031 1.378906-2.117187 3.011718-4.140625 4.894531-6.023437 6.835937-6.839844 15.542969-10.378906 23.640625-10.378906 6.296875 0 12.226562 2.144531 16.621094 6.535156 10.042968 10.042968 8.320312 28.105468-3.839844 40.265625-1.882813 1.882812-3.910156 3.515625-6.027344 4.894531-.066406.042969-.136719.082031-.203125.128906-11.5 7.382813-25.597656 7.253906-34.03125-1.183594-8.4375-8.433593-8.566406-22.527343-1.1875-34.03125zm105.320313-12.09375c-16.945313 16.941407-25.433594 40.347657-23.285157 64.214844.269531 3.007813.320313 6.007813.199219 8.984375-11.566406-6.566406-22.101562-13.730469-30.554688-19.949219.125-.121093.253907-.234374.375-.359374 18.007813-18.007813 19.734376-45.585938 3.84375-61.476563-15.894531-15.890625-43.472656-14.167969-61.480468 3.839844-.121094.125-.238282.253906-.359375.375-6.21875-8.453125-13.378907-18.984375-19.945313-30.554688 2.976563-.117187 5.976563-.066406 8.984375.203125 23.867188 2.144532 47.273438-6.34375 64.214844-23.289062l36.371094-36.371094 58.007812 58.007812zm85.285156-68.835937c1.535156 1.535156 2.378906 3.578125 2.378906 5.746094 0 2.171875-.84375 4.214843-2.378906 5.746093l-18.589844 18.589844c-1.535156 1.535156-3.574219 2.378906-5.746094 2.378906-2.167968 0-4.210937-.84375-5.746094-2.378906l-74.457031-74.460937c-1.535156-1.53125-2.382812-3.574219-2.382812-5.746094 0-2.167969.847656-4.210937 2.382812-5.746094l18.585938-18.585937c1.585937-1.585938 3.664062-2.375 5.746093-2.375 1.738282 0 3.472657.558594 4.921876 1.664062.0625.050782.128906.09375.195312.144532.214844.175781.425781.363281.628906.566406zm-268.699219 139.785156 5.402344-5.398437c2.929687-2.929688 2.929687-7.679688 0-10.609375-2.929688-2.925781-7.679688-2.929688-10.609375 0l-5.398438 5.398437c-2.929687 2.929688-2.929687 7.679688 0 10.609375 1.464844 1.464844 3.382813 2.195313 5.304688 2.195313 1.917968 0 3.839844-.730469 5.300781-2.195313zm0 0"/></g></defs><g fi:class="KUsePattern" opacity="0.5"><pattern id="pattern_L1_1" width="350" height="350" patternUnits="userSpaceOnUse"><use xlink:href="#L1_1" x="-350" y="-350"/><use xlink:href="#L1_1" x="0" y="-350"/><use xlink:href="#L1_1" x="350" y="-350"/><use xlink:href="#L1_1" x="-350" y="0"/><use xlink:href="#L1_1" x="0" y="0"/><use xlink:href="#L1_1" x="350" y="0"/><use xlink:href="#L1_1" x="-350" y="350"/><use xlink:href="#L1_1" x="0" y="350"/><use xlink:href="#L1_1" x="350" y="350"/></pattern><rect x="0" y="0" width="100%" height="100%" fill="url(#pattern_L1_1)"/></g><g fi:class="KUsePattern" opacity="0.5"><pattern id="pattern_L1_3" width="350" height="350" patternUnits="userSpaceOnUse"><use xlink:href="#L1_3" x="-350" y="-350"/><use xlink:href="#L1_3" x="0" y="-350"/><use xlink:href="#L1_3" x="350" y="-350"/><use xlink:href="#L1_3" x="-350" y="0"/><use xlink:href="#L1_3" x="0" y="0"/><use xlink:href="#L1_3" x="350" y="0"/><use xlink:href="#L1_3" x="-350" y="350"/><use xlink:href="#L1_3" x="0" y="350"/><use xlink:href="#L1_3" x="350" y="350"/></pattern><rect x="0" y="0" width="100%" height="100%" fill="url(#pattern_L1_3)"/></g><g fi:class="KUsePattern" opacity="0.5"><pattern id="pattern_L1_0" width="350" height="350" patternUnits="userSpaceOnUse"><use xlink:href="#L1_0" x="-350" y="-350"/><use xlink:href="#L1_0" x="0" y="-350"/><use xlink:href="#L1_0" x="350" y="-350"/><use xlink:href="#L1_0" x="-350" y="0"/><use xlink:href="#L1_0" x="0" y="0"/><use xlink:href="#L1_0" x="350" y="0"/><use xlink:href="#L1_0" x="-350" y="350"/><use xlink:href="#L1_0" x="0" y="350"/><use xlink:href="#L1_0" x="350" y="350"/></pattern><rect x="0" y="0" width="100%" height="100%" fill="url(#pattern_L1_0)"/></g><g fi:class="KUsePattern" opacity="0.5"><pattern id="pattern_L1_7" width="350" height="350" patternUnits="userSpaceOnUse"><use xlink:href="#L1_7" x="-350" y="-350"/><use xlink:href="#L1_7" x="0" y="-350"/><use xlink:href="#L1_7" x="350" y="-350"/><use xlink:href="#L1_7" x="-350" y="0"/><use xlink:href="#L1_7" x="0" y="0"/><use xlink:href="#L1_7" x="350" y="0"/><use xlink:href="#L1_7" x="-350" y="350"/><use xlink:href="#L1_7" x="0" y="350"/><use xlink:href="#L1_7" x="350" y="350"/></pattern><rect x="0" y="0" width="100%" height="100%" fill="url(#pattern_L1_7)"/></g></svg>