<svg width="20.473" height="21.775" xmlns="http://www.w3.org/2000/svg">

 <g>
  <title>background</title>
  <rect fill="none" id="canvas_background" height="402" width="582" y="-1" x="-1"/>
 </g>
 <g>
  <title>Layer 1</title>
  <g id="svg_1">
   <path id="svg_2" fill="#2c2c2c" d="m5.175,12.513001a5.029,5.029 0 0 1 1,-3.012a3.7,3.7 0 0 0 -6.174,2.751s0.871,7.78 3.7,7.78c1.094,0 1.895,-1.163 2.466,-2.589a29.454,29.454 0 0 1 -0.99,-4.858l-0.002,-0.072z"/>
   <path id="svg_3" fill="#2c2c2c" d="m3.703,8.282a3.27,3.27 0 0 0 2.871,-1.7a4.518,4.518 0 0 1 -0.689,-4a3.268,3.268 0 1 0 -2.182,5.7z"/>
   <path id="svg_4" fill="#2c2c2c" d="m16.770999,8.550001a3.684,3.684 0 0 0 -2.471,0.951a5.026,5.026 0 0 1 1,3.012l0,0.073a29.445,29.445 0 0 1 -0.99,4.858c0.572,1.426 1.372,2.589 2.466,2.589c2.831,0 3.7,-7.78 3.7,-7.78a3.7,3.7 0 0 0 -3.705,-3.703z"/>
   <path id="svg_5" fill="#2c2c2c" d="m13.900001,6.577a3.274,3.274 0 1 0 0.689,-4a4.516,4.516 0 0 1 -0.689,4z"/>
   <path id="svg_6" fill="#2c2c2c" d="m10.237,8.105a4.408,4.408 0 0 0 -4.408,4.408s1.037,9.262 4.408,9.262s4.412,-9.262 4.412,-9.262a4.408,4.408 0 0 0 -4.412,-4.408z"/>
   <circle id="svg_7" fill="#2c2c2c" r="3.893" cy="3.893" cx="10.237"/>
  </g>
 </g>
</svg>