<svg xmlns="http://www.w3.org/2000/svg" width="280.541" height="149.512" viewBox="0 0 280.541 149.512">
  <g id="Group_437" data-name="Group 437" transform="translate(-50.829 -356.459)">
    <g id="tumbleweed" transform="matrix(0.225, 0.974, -0.974, 0.225, 202.907, 341.096)" opacity="0.11">
      <g id="Group_422" data-name="Group 422" transform="translate(0 46.988)">
        <path id="Path_2103" data-name="Path 2103" d="M8.71,211.6c-.066,0-.132,0-.2-.01a2.174,2.174,0,0,1-1.8-1.31L.176,195.041a2.177,2.177,0,0,1,4-1.716l4.95,11.548,6.48-9.72a2.178,2.178,0,0,1,3.624,2.416l-8.71,13.065A2.18,2.18,0,0,1,8.71,211.6Z" transform="translate(0 -157.62)" fill="#526665"/>
        <path id="Path_2104" data-name="Path 2104" d="M51.567,86.459a2.178,2.178,0,0,1-2.156-2.486l2.348-16.416a2.178,2.178,0,0,1,4.313.617L54.291,80.61l10.592-4.932a2.178,2.178,0,0,1,1.837,3.949L52.486,86.256A2.173,2.173,0,0,1,51.567,86.459Z" transform="translate(-35.945 -65.687)" fill="#526665"/>
        <path id="Path_2105" data-name="Path 2105" d="M31.039,342.793a2.17,2.17,0,0,1-1.167-.34l-13.99-8.9a2.178,2.178,0,0,1,2.339-3.675l13.99,8.9a2.178,2.178,0,0,1-1.172,4.015Z" transform="translate(-10.824 -257.717)" fill="#526665"/>
        <path id="Path_2106" data-name="Path 2106" d="M111.342,447.052a2.178,2.178,0,0,1,0-4.355l16.582-.035h0a2.178,2.178,0,0,1,0,4.355l-16.582.035Z" transform="translate(-79.45 -340.051)" fill="#526665"/>
        <path id="Path_2107" data-name="Path 2107" d="M450.887,211.605a2.179,2.179,0,0,1-1.812-.97l-8.71-13.065a2.178,2.178,0,1,1,3.624-2.416l6.48,9.72,4.951-11.548a2.177,2.177,0,0,1,4,1.716l-6.533,15.243a2.173,2.173,0,0,1-1.8,1.31C451.018,211.6,450.953,211.605,450.887,211.605Z" transform="translate(-320.234 -157.623)" fill="#526665"/>
        <path id="Path_2108" data-name="Path 2108" d="M410.724,86.453a2.179,2.179,0,0,1-.919-.2L395.57,79.621a2.178,2.178,0,0,1,1.837-3.949L408,80.6l-1.78-12.437a2.178,2.178,0,0,1,4.313-.617l2.348,16.416a2.178,2.178,0,0,1-2.156,2.486Z" transform="translate(-286.983 -65.682)" fill="#526665"/>
        <path id="Path_2109" data-name="Path 2109" d="M431.9,342.79a2.178,2.178,0,0,1-1.172-4.015l13.99-8.9a2.178,2.178,0,0,1,2.339,3.675l-13.99,8.9A2.168,2.168,0,0,1,431.9,342.79Z" transform="translate(-312.756 -257.714)" fill="#526665"/>
        <path id="Path_2110" data-name="Path 2110" d="M344.675,447.052h0l-16.582-.035a2.178,2.178,0,0,1,0-4.355h0l16.582.035a2.178,2.178,0,0,1,0,4.355Z" transform="translate(-237.203 -340.051)" fill="#526665"/>
      </g>
      <g id="Group_423" data-name="Group 423" transform="translate(22.138 72.664)">
        <path id="Path_2111" data-name="Path 2111" d="M98.178,185.426A2.177,2.177,0,0,1,96,183.249V170.184a2.178,2.178,0,1,1,4.355,0v13.065A2.177,2.177,0,0,1,98.178,185.426Z" transform="translate(-92.008 -165.83)" fill="#526665"/>
        <path id="Path_2112" data-name="Path 2112" d="M391.18,173.621c-.064,0-.128,0-.194-.008a2.177,2.177,0,0,1-1.978-2.36l.817-9.255a2.178,2.178,0,0,1,4.338.383l-.817,9.255A2.178,2.178,0,0,1,391.18,173.621Z" transform="translate(-305.256 -160.013)" fill="#526665"/>
        <path id="Path_2113" data-name="Path 2113" d="M83.511,292.341a2.177,2.177,0,0,1-1.721-3.509l6.169-7.984A2.177,2.177,0,1,1,91.4,283.51l-6.169,7.984A2.171,2.171,0,0,1,83.511,292.341Z" transform="translate(-81.335 -247.34)" fill="#526665"/>
        <path id="Path_2114" data-name="Path 2114" d="M392.034,345.261a2.17,2.17,0,0,1-1.627-.731l-4.355-4.9a2.177,2.177,0,1,1,3.254-2.894l4.355,4.9a2.178,2.178,0,0,1-1.627,3.625Z" transform="translate(-302.709 -288.103)" fill="#526665"/>
        <path id="Path_2115" data-name="Path 2115" d="M397.8,260.314a2.183,2.183,0,0,1-.808-.156l-6.124-2.45a2.178,2.178,0,1,1,1.616-4.044l6.124,2.45a2.178,2.178,0,0,1-.808,4.2Z" transform="translate(-305.618 -228.06)" fill="#526665"/>
      </g>
      <g id="Group_424" data-name="Group 424" transform="translate(35.793 94.164)">
        <path id="Path_2116" data-name="Path 2116" d="M251.676,251.523a2.176,2.176,0,0,1-1.767-3.446l5.852-8.166a2.177,2.177,0,1,1,3.539,2.537l-5.852,8.166A2.174,2.174,0,0,1,251.676,251.523Z" transform="translate(-217.382 -239.001)" fill="#526665"/>
        <path id="Path_2117" data-name="Path 2117" d="M352.176,281.075a2.18,2.18,0,0,1-2.05-2.911l2.041-5.716a2.177,2.177,0,1,1,4.1,1.465l-2.041,5.716A2.176,2.176,0,0,1,352.176,281.075Z" transform="translate(-290.525 -262.291)" fill="#526665"/>
        <path id="Path_2118" data-name="Path 2118" d="M326.447,405.122a2.179,2.179,0,0,1-1.8-.946l-3.266-4.763a2.178,2.178,0,0,1,3.594-2.463l3.266,4.763a2.178,2.178,0,0,1-1.795,3.409Z" transform="translate(-269.42 -353.268)" fill="#526665"/>
        <path id="Path_2119" data-name="Path 2119" d="M157.174,397.8a2.177,2.177,0,0,1-1.733-3.494l2.994-3.947a2.178,2.178,0,0,1,3.47,2.633l-2.994,3.947A2.175,2.175,0,0,1,157.174,397.8Z" transform="translate(-148.603 -348.536)" fill="#526665"/>
        <path id="Path_2120" data-name="Path 2120" d="M136.129,301.948a2.166,2.166,0,0,1-1.58-.68l-2.45-2.586a2.177,2.177,0,1,1,3.16-2.994l2.45,2.586a2.177,2.177,0,0,1-1.58,3.675Z" transform="translate(-131.502 -279.763)" fill="#526665"/>
      </g>
      <g id="Group_425" data-name="Group 425" transform="translate(47.361 88.086)">
        <path id="Path_2121" data-name="Path 2121" d="M183.077,230.1a2.173,2.173,0,0,1-1.735-.86l-6.9-9.073a2.177,2.177,0,1,1,3.466-2.635l6.9,9.073a2.177,2.177,0,0,1-1.731,3.495Z" transform="translate(-174.001 -216.673)" fill="#526665"/>
        <path id="Path_2122" data-name="Path 2122" d="M220.839,355.264a2.177,2.177,0,0,1-1.748-3.473l3.63-4.9a2.178,2.178,0,1,1,3.5,2.592l-3.63,4.9A2.175,2.175,0,0,1,220.839,355.264Z" transform="translate(-206.507 -310.806)" fill="#526665"/>
        <path id="Path_2123" data-name="Path 2123" d="M230.173,415.092a2.178,2.178,0,0,1-.406-4.317l3.811-.726a2.178,2.178,0,0,1,.817,4.278l-3.811.726A2.257,2.257,0,0,1,230.173,415.092Z" transform="translate(-213.3 -357.387)" fill="#526665"/>
      </g>
      <path id="Path_2124" data-name="Path 2124" d="M227.1,260.224a2.16,2.16,0,0,1-1.18-.35c-38.034-24.61-20.642-73.935-20.461-74.431a2.178,2.178,0,0,1,4.093,1.488,81.555,81.555,0,0,0-3.951,26.3c.381,19.034,8.013,33.5,22.683,42.991a2.177,2.177,0,0,1-1.184,4.005Z" transform="translate(-146.533 -104.816)" fill="#526665"/>
      <path id="Path_2125" data-name="Path 2125" d="M168.664,297.333A32.666,32.666,0,0,1,141.857,246a2.178,2.178,0,1,1,3.573,2.492,28.309,28.309,0,1,0,23.234-12.134,2.178,2.178,0,0,1,0-4.355,32.663,32.663,0,1,1,0,65.326Z" transform="translate(-98.983 -139.747)" fill="#526665"/>
      <path id="Path_2126" data-name="Path 2126" d="M127.907,217.052a47.909,47.909,0,0,1-6.841-95.326,2.177,2.177,0,1,1,.617,4.31,43.553,43.553,0,1,0,49.775,43.109,43.254,43.254,0,0,0-21.11-37.333,2.177,2.177,0,1,1,2.246-3.73,47.91,47.91,0,0,1-24.686,88.968Z" transform="translate(-58.226 -59.466)" fill="#526665"/>
      <path id="Path_2127" data-name="Path 2127" d="M87.15,157.586A63.149,63.149,0,0,1,42.955,49.331,2.178,2.178,0,0,1,46,52.442a58.786,58.786,0,1,0,71.442-8.4,2.177,2.177,0,1,1,2.246-3.73A63.155,63.155,0,0,1,87.15,157.586Z" transform="translate(-17.468)" fill="#526665"/>
    </g>
    <path id="Path_2128" data-name="Path 2128" d="M2369.4,470.506c37.551,0,66.06-1.961,128.622,18.725" transform="translate(-2168.652 -18)" fill="none" stroke="#526665" stroke-linecap="round" stroke-width="4" opacity="0.11"/>
    <path id="Path_2129" data-name="Path 2129" d="M2372.978,474.365c36.753,0,82.495-7.126,127.512-2.541" transform="translate(-2180 -42)" fill="none" stroke="#526665" stroke-linecap="round" stroke-width="4" opacity="0.11"/>
    <path id="Path_2130" data-name="Path 2130" d="M2373.791,481.062c32.021,0,62.494-4.391,98.965-18.225" transform="translate(-2187.961 -68)" fill="none" stroke="#526665" stroke-linecap="round" stroke-width="4" opacity="0.11"/>
    <path id="Path_2131" data-name="Path 2131" d="M2373.376,479.479c25.476-1.093,49.75-2.809,78.639-16.642" transform="translate(-2191.857 -87)" fill="none" stroke="#526665" stroke-linecap="round" stroke-width="4" opacity="0.11"/>
  </g>
</svg>
